<?xml version="1.0" standalone="no"?>
<!DOCTYPE svg PUBLIC "-//W3C//DTD SVG 1.1//EN" "http://www.w3.org/Graphics/SVG/1.1/DTD/svg11.dtd">
<svg width="1024" height="256" viewBox="0 0 1024 256" version="1.1" xmlns="http://www.w3.org/2000/svg" xmlns:xlink="http://www.w3.org/1999/xlink" xml:space="preserve" style="fill-rule:evenodd;clip-rule:evenodd;stroke-linejoin:round;stroke-miterlimit:1.41421;">
    <path d="M256.107,128C256.107,57.1438 198.91,-0.0533556 128.053,-0.0533556C57.1972,-0.0533556 0,57.1438 0,128C0,198.856 57.1972,256.053 128.053,256.053C198.91,256.053 256.107,198.856 256.107,128" style="fill:rgb(232,117,17);fill-rule:nonzero;"/>
    <path d="M137.444,110.073L129.761,110.073C126.773,110.073 124.639,107.511 124.639,104.95C124.639,102.389 127.2,99.8283 129.761,99.8283L137.444,99.8283C141.712,99.8283 145.127,96.4135 145.127,92.5719C145.127,88.3035 141.712,85.3155 137.444,85.3155L103.296,85.3155C100.308,85.3155 98.1742,82.7545 98.1742,80.1934C98.1742,77.6323 100.735,75.0713 103.296,75.0713L137.444,75.0713C147.261,75.0713 155.798,83.1813 155.798,92.9987C155.798,102.816 147.261,110.073 137.444,110.073Z" style="fill:white;fill-rule:nonzero;"/>
    <path d="M183.116,126.719C183.116,126.293 183.116,126.293 183.116,126.719C181.836,124.158 178.421,123.305 175.86,124.585C173.299,125.866 172.445,129.281 173.726,131.842C177.14,137.817 178.848,144.647 178.848,151.903C178.848,174.953 160.067,193.307 137.017,193.307L94.3326,193.307C90.0642,193.307 86.6494,189.892 86.6494,186.051L86.6494,70.8028C86.6494,66.5344 90.0642,63.5465 94.3326,63.5465L137.017,63.5465C152.81,63.5465 166.043,76.3518 166.043,92.1451C166.043,107.938 153.237,120.744 137.017,120.744L113.541,120.744C110.553,120.744 108.419,123.305 108.419,125.866C108.419,128.427 110.98,130.988 113.541,130.988L137.017,130.988C148.115,130.988 157.506,139.952 157.506,151.05C157.506,162.148 148.542,171.111 137.017,171.111L102.87,171.111C99.8816,171.111 97.7474,173.672 97.7474,176.233C97.7474,179.221 100.308,181.356 102.87,181.356L137.017,181.356C154.091,181.356 168.177,167.27 168.177,150.623C168.177,140.378 163.055,131.415 155.798,125.866C168.177,119.036 176.714,106.231 176.714,90.8645C176.714,69.0955 159.213,51.5948 137.017,51.5948L94.3326,51.5948C84.5152,51.5948 75.9783,59.7049 75.9783,69.5223L75.9783,184.77C75.9783,194.588 84.0884,202.698 94.3326,202.698L137.017,202.698C166.043,202.698 189.519,179.221 189.519,150.623C189.946,142.94 187.385,133.976 183.116,126.719Z" style="fill:white;fill-rule:nonzero;"/>
    <path d="M492.152,193.307C513.921,193.307 523.311,180.075 523.311,161.294L523.311,100.682C523.311,96.4135 519.897,92.9987 514.774,92.9987C510.933,92.9987 507.945,95.5598 506.664,98.9746C502.823,95.5598 496.42,92.9987 489.591,92.9987C469.956,92.9987 463.126,105.377 463.126,124.585L463.126,131.842C463.126,151.903 469.529,163.428 489.164,163.428C494.713,163.428 501.115,161.721 506.238,158.306L506.238,162.148C506.238,173.672 501.542,180.075 490.444,180.075C479.346,180.075 477.639,177.087 472.944,177.087C469.102,177.087 466.541,180.075 466.541,183.917C466.541,185.624 467.395,187.331 468.675,188.185C472.517,191.6 483.188,193.307 492.152,193.307M791.37,135.256L791.37,122.878C791.37,103.67 782.833,92.9987 763.625,92.9987C756.795,92.9987 749.966,95.133 744.844,98.9746C742.283,94.7061 737.16,92.9987 733.746,92.9987C729.05,92.9987 725.636,95.133 725.636,99.8283C725.636,101.962 726.916,103.67 728.197,104.95C730.758,106.658 732.038,107.938 732.038,113.487L732.038,185.624C732.038,189.892 735.88,193.307 740.148,193.307C744.844,193.307 748.258,189.466 748.258,185.624L748.258,162.148C752.954,165.562 759.356,167.697 765.332,167.697C784.967,167.697 791.37,155.318 791.37,135.256M698.744,124.158C688.927,122.024 679.963,121.597 679.963,113.914C679.963,109.219 683.805,105.804 691.915,105.804C701.306,105.804 705.574,108.792 708.562,108.792C712.83,108.792 715.391,105.377 715.391,101.962C715.391,100.255 714.538,98.1209 713.257,96.8404C711.123,94.7061 703.44,92.1451 691.488,92.1451C676.122,92.1451 664.17,99.8283 664.17,114.341C664.17,128.427 673.561,132.268 682.951,134.403C692.769,136.537 703.013,136.964 703.013,145.074C703.013,150.196 698.744,153.611 690.208,153.611C679.11,153.611 675.268,150.623 671.853,150.623C668.012,150.623 665.024,153.611 665.024,157.452C665.024,159.16 665.451,160.867 667.158,162.574C669.719,164.709 678.256,167.27 690.208,167.27C706.001,167.27 718.806,160.44 718.806,144.647C718.806,130.134 708.562,126.293 698.744,124.158M506.664,112.634L506.664,144.647C502.823,147.635 496.847,149.342 493.005,149.342C483.188,149.342 479.773,144.22 479.773,134.403L479.773,122.024C479.773,112.207 483.615,106.658 493.432,106.658C498.128,106.658 503.25,108.792 506.664,112.634M774.723,121.597L774.723,137.817C774.723,148.489 770.881,154.038 761.491,154.038C757.222,154.038 752.1,152.33 748.258,148.489L748.258,111.353C752.1,108.365 756.795,106.658 761.064,106.658C770.881,106.658 774.723,111.78 774.723,121.597M350.439,122.451L350.439,138.671C350.439,148.915 346.598,154.038 336.353,154.038C331.658,154.038 327.39,152.33 323.548,149.342L323.548,112.207C327.39,107.938 332.512,106.231 337.207,106.231C347.025,106.658 350.439,111.78 350.439,122.451M834.054,106.658C837.896,106.658 843.445,108.365 847.286,112.634L847.286,149.342C843.445,152.33 838.749,154.038 834.481,154.038C824.664,154.038 820.395,148.915 820.395,138.671L820.395,122.451C820.822,112.207 824.664,106.658 834.054,106.658M910.459,154.464C900.642,154.464 895.947,147.635 895.947,136.537L895.947,124.158C895.947,113.06 901.496,106.231 910.886,106.231C920.277,106.231 922.411,109.219 925.826,109.219C929.667,109.219 932.228,105.377 932.228,102.389C932.228,100.682 931.802,99.8283 930.521,98.5477C927.96,96.4135 921.13,92.9987 909.606,92.9987C889.544,92.9987 879.727,107.938 879.727,125.866L879.727,135.683C879.727,154.038 888.69,168.123 909.606,168.123C920.704,168.123 927.96,164.709 930.521,162.574C931.375,161.721 932.228,160.44 932.228,158.733C932.228,155.318 929.667,151.903 925.826,151.903C922.411,151.05 920.277,154.464 910.459,154.464M980.462,120.744L980.462,122.878L953.144,122.878L953.144,120.744C953.144,110.926 957.412,105.377 967.23,105.377C977.047,105.377 980.462,110.926 980.462,120.744M391.416,167.697C396.112,167.697 399.526,163.855 399.526,160.013L399.526,119.89C402.514,111.353 409.344,108.365 417.027,107.938C422.576,107.938 424.71,104.097 424.71,100.682C424.71,95.9867 421.722,92.9987 415.747,92.9987C409.344,92.9987 402.941,95.5598 397.392,102.816C395.685,98.1209 390.563,94.2793 385.014,94.2793C380.318,94.2793 376.904,96.4135 376.904,101.109C376.904,103.243 378.184,104.95 379.465,106.231C382.026,107.938 383.306,109.219 383.306,114.768L383.306,160.44C382.88,164.282 386.721,167.697 391.416,167.697M862.226,167.697C866.921,167.697 870.336,165.562 870.336,160.867C870.336,158.733 869.055,157.025 867.775,155.745C865.214,154.038 863.933,152.757 863.933,147.208L863.933,100.255C863.933,95.9867 860.519,92.5719 855.823,92.5719C851.982,92.5719 848.567,95.133 847.713,98.5477C843.018,94.7061 836.615,92.5719 830.639,92.5719C811.005,92.5719 804.602,104.95 804.602,125.012L804.602,137.391C804.602,156.599 813.139,167.27 832.347,167.27C839.176,167.27 846.006,165.135 851.128,161.294C853.689,165.989 858.384,167.697 862.226,167.697M996.682,123.305C996.682,107.085 988.572,92.9987 967.23,92.9987C945.887,92.9987 937.351,107.511 937.351,123.732L937.351,136.964C937.351,153.611 945.034,168.123 966.803,168.123C978.754,168.123 989.426,164.282 991.987,161.721C992.84,160.44 993.694,159.16 993.694,157.452C993.694,153.611 991.133,150.623 987.291,150.623C983.877,150.623 980.462,154.464 967.657,154.464C957.412,154.464 953.144,148.489 953.144,138.244L953.144,135.256L990.279,135.256C993.694,135.256 996.255,132.695 996.255,129.281L996.255,123.305ZM449.467,160.013L449.467,100.682C449.467,96.4135 445.626,92.9987 440.93,92.9987C436.235,92.9987 432.82,96.8404 432.82,100.682L432.82,160.013C432.82,164.282 436.662,167.697 440.93,167.697C445.626,167.697 449.467,164.282 449.467,160.013M658.621,159.586C658.621,155.318 655.206,152.757 651.365,152.757L648.804,152.757C639.84,152.757 637.279,148.915 637.279,136.537L637.279,107.085L651.792,107.085C655.633,107.085 659.048,104.097 659.048,100.255C659.048,96.4135 656.06,93.8524 651.792,93.8524L637.279,93.8524L637.279,81.4739C637.279,76.7787 633.437,73.3639 629.169,73.3639C624.9,73.3639 620.632,77.2055 620.632,81.4739L620.632,93.8524L615.937,93.8524C612.095,93.8524 609.107,96.8404 609.107,100.255C609.107,104.097 612.095,107.085 615.937,107.085L620.632,107.085L620.632,138.244C620.632,157.025 627.035,166.843 646.669,166.843L651.792,166.843C655.206,166.843 658.621,163.428 658.621,159.586M450.748,74.6444C450.748,69.5223 446.479,65.2539 441.357,65.2539C435.808,65.2539 431.967,69.5223 431.967,74.6444C431.967,79.7666 436.235,84.035 441.357,84.035C446.479,84.035 450.748,79.7666 450.748,74.6444M584.35,150.196C584.35,160.013 589.472,167.697 600.143,167.697C605.692,167.697 609.107,165.135 609.107,160.44C609.107,157.452 607.827,154.891 603.985,154.038C601.424,153.184 600.57,151.476 600.57,147.635L600.57,119.463C600.57,103.67 594.594,92.9987 575.813,92.9987C567.703,92.9987 561.727,95.9867 557.032,99.8283L557.032,71.6565C557.032,67.3881 553.617,63.5465 548.495,63.5465C544.227,63.5465 540.385,67.3881 540.385,71.6565L540.385,160.44C540.385,164.709 544.227,168.123 548.495,168.123C553.19,168.123 557.032,164.282 557.032,160.44L557.032,114.341C560.02,110.073 565.142,107.085 571.972,107.085C581.789,107.085 583.923,113.06 583.923,120.317L583.923,150.196ZM367.086,137.817L367.086,125.012C367.086,104.95 361.11,92.9987 341.049,92.9987C334.646,92.9987 328.243,95.133 323.548,98.9746L323.548,71.2297C323.548,66.9612 320.133,63.1196 315.438,63.1196C310.743,63.1196 307.328,66.9612 307.328,71.2297L307.328,147.635C307.328,153.184 306.048,154.464 303.486,156.172C301.779,157.025 300.925,158.733 300.925,161.294C300.925,165.989 304.34,168.123 309.035,168.123C312.877,168.123 317.572,165.989 320.133,162.148C325.256,165.989 332.085,168.123 338.915,168.123C358.123,167.697 367.086,156.599 367.086,137.817" style="fill:rgb(86,90,92);fill-rule:nonzero;"/>
    <path d="M860.945,231.723C858.384,231.723 856.25,230.87 854.543,229.589C854.116,230.016 854.116,230.443 853.689,230.443C852.835,231.296 851.555,231.296 850.701,231.296C848.994,231.296 847.713,230.443 847.713,229.162C847.713,228.308 848.14,227.882 848.567,227.455C849.421,227.028 849.847,226.174 849.847,224.467L849.847,198.003C849.847,196.295 851.128,195.441 852.835,195.441C854.543,195.441 855.396,196.722 855.396,198.003L855.396,207.393C857.104,206.113 859.238,205.259 861.372,205.259C868.202,205.259 870.336,209.527 870.336,216.357L870.336,220.625C870.336,227.882 867.348,231.723 860.945,231.723M864.787,216.357C864.787,212.942 863.506,210.808 860.092,210.808C858.384,210.808 856.677,211.662 855.396,212.942L855.396,225.747C856.677,226.601 858.384,227.455 859.665,227.455C863.08,227.455 864.36,225.747 864.36,222.333L864.36,216.357Z" style="fill:rgb(86,90,92);fill-rule:nonzero;"/>
    <path d="M888.69,227.882C885.702,235.992 882.288,240.26 875.885,240.26C873.751,240.26 872.897,238.98 872.897,237.699C872.897,236.419 873.751,235.138 875.458,235.138C878.019,235.138 880.153,234.284 881.861,230.87C878.873,223.186 875.458,214.649 873.751,209.1C873.324,206.966 874.604,205.686 876.312,205.686C877.165,205.686 878.446,206.113 878.873,207.393C880.153,211.662 882.288,217.637 884.422,223.613L889.971,207.393C890.398,206.113 891.678,205.686 892.532,205.686C894.239,205.686 895.947,206.966 895.093,209.527Z" style="fill:rgb(86,90,92);fill-rule:nonzero;"/>
    <path d="M925.826,231.723L916.008,231.723C914.301,231.723 913.02,230.443 913.02,228.735L913.02,198.429C913.02,196.722 914.301,195.441 916.008,195.441L925.826,195.441C936.924,195.441 938.631,203.551 938.631,208.674L938.631,218.064C939.058,224.04 936.924,231.723 925.826,231.723M933.082,209.527C933.082,205.259 931.802,201.417 925.399,201.417L918.996,201.417L918.996,226.601L925.399,226.601C931.802,226.601 933.082,222.759 933.082,218.491Z" style="fill:rgb(86,90,92);fill-rule:nonzero;"/>
    <path d="M964.669,231.723L947.595,231.723C945.887,231.723 945.034,230.443 945.034,229.162C945.034,224.04 947.595,220.625 950.583,218.064C955.278,213.796 962.108,211.235 962.108,206.113C962.108,203.125 960.4,200.564 956.559,200.564C954.424,200.564 953.144,200.99 951.863,201.844C950.156,202.698 949.729,203.551 948.449,203.551C947.168,203.551 945.887,202.271 945.887,200.99C945.887,200.137 946.314,199.71 946.741,198.856C949.302,196.722 952.717,195.441 956.985,195.441C965.095,195.441 968.083,200.99 968.083,206.113C968.083,216.784 953.997,218.491 951.863,226.601L965.522,226.601C967.23,226.601 968.083,227.882 968.083,229.162C967.657,230.87 966.376,231.723 964.669,231.723" style="fill:rgb(86,90,92);fill-rule:nonzero;"/>
    <path d="M994.121,231.723L977.474,231.723C975.767,231.723 974.913,230.443 974.913,229.162L974.913,198.429C974.913,196.722 976.193,195.441 977.901,195.441C979.608,195.441 980.889,196.722 980.889,198.429L980.889,226.601L994.548,226.601C996.255,226.601 997.109,227.882 997.109,229.162C996.682,230.87 995.401,231.723 994.121,231.723" style="fill:rgb(86,90,92);fill-rule:nonzero;"/>
    <path d="M1008.63,95.133L1005.22,95.133L1005.22,93.8524L1013.33,93.8524L1013.33,95.133L1009.91,95.133L1009.91,104.097L1008.63,104.097Z" style="fill:rgb(86,90,92);fill-rule:nonzero;"/>
    <path d="M1014.61,94.2793L1016.32,94.2793L1019.3,102.816L1022.29,94.2793L1024,94.2793L1024,104.524L1022.72,104.524L1022.72,95.9867L1019.73,104.524L1018.45,104.524L1015.46,95.9867L1015.46,104.524L1014.18,104.524L1014.18,94.2793Z" style="fill:rgb(86,90,92);fill-rule:nonzero;"/>
</svg>
