<?xml version="1.0" standalone="no"?>
<!DOCTYPE svg PUBLIC "-//W3C//DTD SVG 1.1//EN" "http://www.w3.org/Graphics/SVG/1.1/DTD/svg11.dtd">
<svg width="1024px" height="272px" version="1.1" xmlns="http://www.w3.org/2000/svg" xmlns:xlink="http://www.w3.org/1999/xlink" xml:space="preserve" style="fill-rule:evenodd;clip-rule:evenodd;stroke-linejoin:round;stroke-miterlimit:1.41421;">
    <g>
        <g id="Layer_1">
            <g>
                <path d="M160.866,270.527C158.922,269.555 157.95,268.34 157.95,267.368C157.95,265.667 160.866,252.545 163.539,243.554C164.754,239.18 167.913,228.731 168.156,228.002C168.399,227.759 167.913,227.516 166.455,227.759C164.754,227.759 164.268,227.759 164.025,227.516C163.782,226.787 163.539,225.815 163.782,225.572C164.025,225.572 164.997,225.086 166.212,224.843C167.427,224.6 168.885,224.114 169.128,223.871C169.371,223.628 170.343,221.684 171.801,217.31C177.876,200.786 180.792,195.683 183.951,195.683C185.895,195.683 192.213,199.328 192.213,200.3C192.213,201.272 191.241,201.272 189.54,200.543C187.839,199.571 186.381,199.571 185.166,200.057C183.222,200.786 180.549,205.889 176.904,215.123C174.231,221.927 173.502,223.628 173.745,223.871C173.988,224.114 179.334,225.329 180.306,225.329C181.521,225.086 182.25,225.815 181.278,226.301C180.792,226.544 176.904,227.273 173.502,227.516L172.287,227.759L170.829,232.376C165.726,247.928 162.567,262.022 162.567,268.34C162.567,270.284 162.567,271.256 162.324,271.256C162.081,271.256 161.595,271.013 160.866,270.527ZM143.127,253.517C138.996,252.788 137.052,251.33 136.323,248.657C134.865,243.311 141.669,225.572 145.8,223.871C146.529,223.628 146.772,223.628 147.501,223.871C148.23,224.357 148.959,224.843 149.445,225.329L150.417,226.058L152.118,225.329C154.548,224.114 155.277,224.114 156.249,224.843C157.464,225.572 158.679,227.273 159.165,228.731C159.894,231.404 157.95,239.666 155.277,245.255C153.576,249.386 150.417,253.031 147.987,253.76C146.529,254.246 146.043,254.246 143.127,253.517ZM145.071,251.816C147.015,251.087 149.445,248.657 150.903,245.498C153.333,240.881 154.548,236.507 155.277,231.161C155.763,227.759 155.52,227.03 154.548,227.03C154.062,227.03 152.361,227.516 150.417,228.245C147.501,229.703 147.015,229.703 146.772,229.46C145.8,228.245 142.155,236.507 140.697,242.096C140.211,245.255 140.211,248.9 140.94,250.358C141.183,250.844 141.669,251.573 142.398,251.816C143.37,252.302 143.613,252.302 145.071,251.816ZM215.055,253.517C213.111,253.274 209.709,252.302 208.98,251.816C208.494,251.33 208.494,251.087 208.494,247.442C208.494,245.255 208.737,242.825 208.737,242.582C209.223,241.124 209.466,241.367 209.709,243.068C209.952,245.498 210.438,246.956 211.896,248.414C213.84,250.601 216.999,251.573 220.644,251.33C225.018,251.087 228.177,248.657 229.149,244.526C229.878,241.367 228.906,237.722 226.233,234.806C225.504,233.834 222.831,231.647 220.644,229.703C215.298,225.086 213.111,222.899 211.653,219.983C208.008,212.45 211.41,204.674 219.429,202.487C221.373,202.001 225.99,201.758 229.878,202.244L233.037,202.73L232.794,205.646C232.794,207.347 232.794,209.534 232.794,210.263C232.794,211.478 232.551,211.964 232.308,211.964C232.065,211.964 231.822,211.235 231.822,210.263C231.093,207.347 229.878,205.646 226.962,204.674C224.532,203.945 221.13,203.945 219.186,204.674C217.485,205.403 216.027,206.618 215.298,208.319C214.569,209.291 214.569,209.777 214.569,211.964C214.569,214.151 214.569,214.637 215.055,215.609C216.027,217.31 218.7,219.983 223.317,223.628C231.336,230.189 233.523,233.105 234.009,238.937C234.252,239.909 234.009,241.124 233.766,242.582C232.794,247.928 228.906,251.816 223.56,253.274C221.373,253.76 217.242,254.003 215.055,253.517ZM301.805,253.517C296.459,252.788 292.085,250.115 290.141,245.498C288.197,241.853 288.197,241.853 288.197,226.787C287.954,218.282 287.711,213.179 287.711,212.936C287.225,211.721 286.496,211.235 285.038,211.235C283.58,210.992 282.608,210.749 283.337,210.263C283.58,210.263 297.188,210.263 297.431,210.506C297.674,210.749 296.945,210.992 295.973,210.992C294.758,211.235 294.029,211.964 293.543,213.179C293.3,214.88 293.3,238.208 293.786,240.395C294.515,244.769 295.73,246.956 298.646,249.143C300.833,250.844 302.777,251.573 305.936,251.573C309.824,251.573 312.74,250.601 315.17,248.171C316.628,246.47 317.6,244.769 318.329,242.096C318.815,240.152 318.815,239.423 318.815,227.516C318.815,220.469 318.815,214.151 318.815,213.665C318.815,212.936 318.329,212.207 318.086,211.964C317.6,211.478 317.357,211.235 315.899,211.235C314.684,210.992 314.198,210.992 314.198,210.749C314.198,210.263 315.17,210.263 320.516,210.263C325.862,210.263 326.834,210.263 326.834,210.749C326.834,210.992 326.591,210.992 325.619,211.235C324.89,211.235 324.404,211.478 323.918,211.964L323.189,212.693L322.946,225.086C322.946,235.292 322.703,238.208 322.46,239.909C321.731,243.797 320.273,246.956 318.329,249.143C314.441,252.788 308.609,254.489 301.805,253.517ZM610.658,253.517C603.611,253.031 598.751,250.844 594.62,246.713C590.975,243.068 589.274,239.423 588.545,233.591C587.816,226.544 590.732,219.254 596.078,214.637C598.265,212.936 601.91,210.992 604.826,210.506C609.443,209.291 616.247,209.291 622.808,210.263C624.266,210.506 626.21,210.992 626.939,210.992L628.397,211.235L628.154,212.45C628.154,213.179 627.911,215.366 627.911,217.553C627.911,219.497 627.668,221.441 627.425,221.684C627.182,222.17 626.939,221.441 626.696,219.983C626.453,216.824 624.752,214.637 621.593,213.422C618.92,212.207 616.49,211.721 612.602,211.721C606.284,211.721 602.153,213.179 599.237,215.852C595.592,219.497 594.134,223.385 594.134,229.946C594.134,232.376 594.377,233.591 594.62,235.292C597.293,245.984 607.256,252.302 619.163,251.087C623.78,250.358 626.21,248.414 627.425,244.04C627.668,243.068 628.154,242.582 628.397,243.311C628.64,243.797 627.668,248.414 627.182,250.601C626.696,251.816 626.696,252.059 625.724,252.545C623.294,253.517 615.518,254.003 610.658,253.517ZM771.766,253.517C771.28,253.031 770.308,250.601 762.776,232.619C758.402,222.413 754.757,213.665 754.271,212.936C753.542,211.721 752.084,211.235 750.383,211.235C749.168,211.235 748.439,210.749 748.925,210.506C749.168,210.263 762.776,210.263 763.991,210.263C764.234,210.263 764.477,210.506 764.234,210.749C763.991,210.992 763.505,211.235 762.776,211.235C761.561,211.235 761.075,211.478 761.075,212.45C761.075,212.936 762.047,216.338 763.505,219.983C764.963,223.628 767.879,230.918 769.822,236.264C771.766,241.367 773.467,245.498 773.71,245.498C773.71,245.741 778.57,233.834 781.972,225.572C785.131,217.553 786.589,213.422 786.589,212.45C786.589,211.478 785.86,211.235 784.645,210.992C784.159,210.992 783.43,210.992 783.43,210.749C782.458,210.263 783.673,210.263 789.505,210.263C794.608,210.263 795.337,210.263 795.337,210.749C795.337,210.992 795.094,210.992 794.122,211.235C791.449,211.478 790.72,212.207 786.832,221.684C781,235.292 775.897,246.956 774.196,250.358C772.738,253.76 772.252,254.246 771.766,253.517ZM350.648,253.274C348.947,253.274 345.059,253.031 341.9,253.031C338.498,253.031 335.825,253.031 335.825,252.788C335.582,252.545 336.068,252.302 336.797,252.302C337.283,252.302 338.012,252.059 338.255,251.816C339.713,251.33 339.956,249.386 339.713,229.703C339.713,216.581 339.713,212.936 339.47,212.45C338.984,211.721 338.255,211.235 336.554,211.235C335.582,210.992 335.096,210.992 335.096,210.749C335.096,210.263 336.311,210.263 345.059,210.263C359.639,210.02 363.77,210.506 368.63,212.936C373.733,215.366 377.378,219.983 379.079,225.815C379.808,228.488 379.808,233.591 379.079,236.507C376.649,246.227 369.602,252.302 358.91,253.274C356.48,253.76 354.536,253.76 350.648,253.274ZM360.611,251.087C365.714,249.629 369.845,246.956 371.789,243.068C373.976,238.694 374.462,232.133 373.247,227.03C372.761,224.843 370.817,221.441 369.602,219.74C366.929,216.581 362.798,214.151 358.91,213.179C354.536,211.964 347.003,211.721 345.788,212.693L345.302,213.179L345.302,229.703C345.302,246.227 345.302,248.657 346.031,249.629C347.246,250.844 349.919,251.33 355.022,251.33C357.938,251.33 359.153,251.33 360.611,251.087ZM466.073,253.031C464.858,252.302 448.334,235.778 439.586,226.544C435.455,222.17 432.053,218.768 432.053,218.768C431.81,219.011 432.782,247.442 433.025,248.9C433.025,249.629 433.268,250.601 433.511,250.844C433.997,251.573 435.212,252.302 436.67,252.302C437.885,252.302 438.614,252.545 438.128,252.788C437.885,253.031 434.726,253.031 431.324,253.031C425.735,253.031 424.763,253.031 424.763,252.545C424.763,252.302 425.249,252.302 426.221,252.059C427.922,252.059 428.408,251.573 428.894,250.115C428.894,249.629 428.894,240.638 428.894,230.189C429.137,212.693 429.137,209.534 429.623,209.534C430.109,209.534 431.567,210.749 434.726,213.908C436.67,216.095 442.016,221.684 446.39,226.301C450.764,230.675 456.596,236.993 459.512,239.909C462.185,242.825 464.372,245.012 464.372,245.012C464.615,244.769 464.129,217.067 463.886,214.88C463.886,213.908 463.643,212.936 463.4,212.45C462.914,211.721 461.699,211.235 459.998,211.235C458.783,211.235 458.054,210.749 458.54,210.506C459.026,210.263 471.176,210.263 471.419,210.506C471.662,210.749 470.933,210.992 469.961,210.992C468.746,211.235 468.017,211.964 467.531,213.422C467.531,213.908 467.531,222.899 467.531,233.348C467.531,250.844 467.288,253.76 467.045,253.517C466.802,253.517 466.316,253.517 466.073,253.031ZM975.643,253.031C974.428,252.302 957.904,235.778 949.156,226.544C945.025,222.17 941.623,218.768 941.623,218.768C941.38,219.011 942.352,247.442 942.595,248.9C942.595,249.629 942.838,250.601 943.081,250.844C943.567,251.573 944.782,252.302 946.24,252.302C947.455,252.302 948.184,252.545 947.698,252.788C947.455,253.031 944.296,253.031 940.894,253.031C935.305,253.031 934.333,253.031 934.333,252.545C934.333,252.302 934.819,252.302 935.791,252.059C937.492,252.059 937.978,251.573 938.464,250.115C938.464,249.629 938.464,240.638 938.464,230.189C938.707,212.693 938.707,209.534 939.193,209.534C939.679,209.534 941.137,210.749 944.296,213.908C946.24,216.095 951.586,221.684 955.96,226.301C960.334,230.675 966.166,236.993 969.082,239.909C971.755,242.825 973.942,245.012 973.942,245.012C974.185,244.769 973.699,217.067 973.456,214.88C973.456,213.908 973.213,212.936 972.97,212.45C972.484,211.721 971.269,211.235 969.568,211.235C968.353,211.235 967.624,210.749 968.11,210.506C968.596,210.263 980.746,210.263 980.989,210.506C981.232,210.749 980.503,210.992 979.531,210.992C978.316,211.235 977.587,211.964 977.101,213.422C977.101,213.908 977.101,222.899 977.101,233.348C977.101,250.844 976.858,253.76 976.615,253.517C976.372,253.517 975.886,253.517 975.643,253.031ZM253.449,253.031C253.206,252.545 253.449,252.545 254.178,252.302C255.879,252.059 256.364,251.816 256.85,250.601C257.336,249.629 257.336,248.414 257.336,231.161L257.579,212.693L251.748,212.936C248.589,212.936 245.673,213.179 245.187,213.422C243.972,213.665 243,214.637 242.271,215.852C241.785,217.31 241.056,217.31 241.299,216.095C241.542,213.665 242.514,210.02 242.757,209.777C243,209.534 243.243,209.534 244.215,209.777C245.187,210.263 246.645,210.263 260.495,210.263C269.486,210.263 276.29,210.263 277.019,210.263C277.748,210.02 278.234,210.02 278.477,210.02C278.72,210.506 278.234,217.553 277.991,217.553C277.748,217.553 277.505,217.31 277.505,216.824C277.019,213.665 275.804,213.179 267.785,212.936L262.682,212.693L262.925,231.161C262.925,247.685 262.925,249.629 263.411,250.601C263.897,251.573 264.383,252.059 266.57,252.059C267.785,252.302 268.271,252.302 268.271,252.788C268.271,253.031 267.299,253.031 260.981,253.031C256.85,253.031 253.449,253.031 253.449,253.031ZM397.304,253.031C390.986,253.031 389.042,252.788 389.285,252.545C389.285,252.545 389.771,252.302 390.257,252.059C390.986,252.059 391.715,251.816 391.958,251.573C393.173,250.844 393.173,250.115 393.173,231.161C393.173,221.441 393.173,213.179 392.93,212.693C392.687,211.721 391.715,211.235 390.014,211.235C389.285,210.992 388.556,210.749 388.556,210.749C388.313,210.506 390.743,210.506 399.734,210.506C408.968,210.506 411.398,210.263 412.37,210.02C412.856,209.777 413.585,209.777 413.585,209.777C413.585,210.02 413.585,210.506 413.585,210.749C413.342,211.235 413.099,212.45 413.099,213.665C412.856,216.581 412.856,217.31 412.37,217.31C412.127,217.31 412.127,216.824 411.884,216.095C411.641,214.637 411.398,213.908 410.426,213.422C409.454,212.936 405.809,212.693 401.678,212.693L398.762,212.693L398.762,229.46L404.351,229.217C410.426,229.217 410.669,229.217 411.884,228.002C412.613,227.516 412.856,227.759 412.613,229.217C412.37,229.703 412.127,231.161 412.127,232.619C412.127,233.834 411.884,235.049 411.884,235.292C411.641,236.264 411.398,236.021 411.155,234.806C410.669,232.133 409.94,231.647 403.622,231.647L398.762,231.404L398.762,239.666C398.762,248.9 398.762,249.143 400.463,250.115C401.192,250.601 401.678,250.601 406.052,250.601C410.426,250.601 410.669,250.601 411.641,250.115C412.856,249.386 413.585,248.414 414.071,246.956C414.071,246.227 414.557,245.498 414.557,245.498C415.286,245.255 414.557,252.059 413.828,252.788C413.342,253.031 410.426,253.031 397.304,253.031ZM489.158,253.031C488.915,252.545 489.158,252.545 489.887,252.302C491.588,252.059 492.074,251.816 492.56,250.601C493.046,249.629 493.046,248.414 493.046,231.161L493.289,212.693L487.457,212.936C484.298,212.936 481.382,213.179 480.896,213.422C479.681,213.665 478.709,214.637 477.98,215.852C477.494,217.31 476.765,217.31 477.008,216.095C477.251,213.665 478.223,210.02 478.466,209.777C478.709,209.534 478.952,209.534 479.924,209.777C480.896,210.263 482.354,210.263 496.205,210.263C505.196,210.263 512,210.263 512.729,210.263C513.458,210.02 513.944,210.02 514.187,210.02C514.43,210.506 513.944,217.553 513.701,217.553C513.458,217.553 513.215,217.31 513.215,216.824C512.729,213.665 511.514,213.179 503.495,212.936L498.392,212.693L498.635,231.161C498.635,247.685 498.635,249.629 499.121,250.601C499.607,251.573 500.093,252.059 502.28,252.059C503.495,252.302 503.981,252.302 503.981,252.788C503.981,253.031 503.009,253.031 496.691,253.031C492.56,253.031 489.158,253.031 489.158,253.031ZM536.3,252.788C535.814,252.545 536.543,252.302 537.515,252.302C540.188,252.302 541.889,251.087 543.104,248.657C543.347,247.928 547.478,237.479 551.852,225.086C556.226,212.936 560.114,202.73 560.357,202.487C560.843,201.758 560.843,201.758 561.329,202.244C561.572,202.487 564.245,209.777 567.647,218.282C575.423,238.451 578.096,245.012 579.068,246.956C580.769,250.601 582.227,251.816 585.143,252.059C586.844,252.302 587.087,252.545 586.844,252.788C586.601,253.031 573.479,253.031 573.236,252.788C573.236,252.545 573.236,252.302 573.479,252.302C573.722,252.059 574.208,251.816 574.208,251.573C574.208,251.33 572.993,247.685 571.049,242.339C569.348,237.479 567.89,233.591 567.89,233.591C567.89,233.591 564.245,233.591 560.114,233.591C554.282,233.591 552.581,233.591 552.338,233.834C551.852,234.32 547.478,247.928 547.235,249.386C546.992,250.601 546.992,250.844 547.721,251.33C548.45,252.059 548.693,252.302 549.422,252.302C550.394,252.302 551.123,252.545 550.88,252.788C550.637,253.031 536.786,253.031 536.3,252.788ZM566.432,230.675C566.432,229.703 560.114,211.964 559.628,211.964C559.385,211.964 557.198,218.282 553.31,230.675C553.067,230.918 553.553,231.161 559.871,231.161C566.189,231.161 566.432,230.918 566.432,230.675ZM638.36,252.788C637.874,252.545 638.603,252.302 639.332,252.302C639.818,252.302 640.547,252.059 640.79,251.816C642.248,251.33 642.491,249.386 642.248,229.703C642.248,216.581 642.248,212.936 642.005,212.45C641.519,211.721 640.79,211.235 639.089,211.235C638.117,210.992 637.631,210.992 637.631,210.749C637.631,210.263 638.603,210.263 644.678,210.263C650.51,210.263 651.482,210.263 651.482,210.749C651.482,210.992 651.239,210.992 650.51,211.235C648.809,211.235 648.323,211.721 648.08,212.693C647.837,213.179 647.837,216.581 647.837,220.955L647.837,228.488L672.866,228.488L672.623,221.198C672.623,217.31 672.623,213.665 672.623,213.179C672.137,211.721 671.651,211.235 669.707,211.235C668.492,210.992 668.006,210.992 668.006,210.749C668.006,210.263 668.978,210.263 674.81,210.263C678.698,210.263 681.857,210.263 682.1,210.506C682.586,210.749 681.857,210.992 680.642,210.992C679.427,211.235 678.455,212.207 678.212,213.908C677.969,216.338 678.212,249.386 678.455,250.358C678.941,251.573 679.67,251.816 681.614,252.059C683.558,252.302 684.044,252.545 683.558,252.788C683.315,253.031 679.913,253.031 676.025,253.031C670.193,253.031 668.978,253.031 668.978,252.545C668.978,252.545 669.464,252.302 670.193,252.059C672.623,251.816 672.623,251.816 672.623,240.152L672.866,230.918L647.594,230.918L647.837,240.152C647.837,252.059 647.837,251.816 651.239,252.059C652.454,252.302 652.94,252.302 652.94,252.788C652.94,253.031 651.968,253.031 645.893,253.031C642.005,253.031 638.603,253.031 638.36,252.788ZM693.764,252.788C693.278,252.545 694.007,252.302 694.736,252.302C696.68,252.302 697.166,251.33 697.652,248.414C697.895,245.498 697.895,214.394 697.652,213.179C697.166,211.964 696.68,211.235 694.979,211.235C694.25,210.992 693.764,210.992 693.764,210.749C693.764,210.263 694.736,210.263 700.325,210.263C705.914,210.263 706.886,210.263 706.886,210.749C706.886,210.749 706.643,210.992 706.157,210.992C704.699,211.235 703.97,211.478 703.484,212.207C702.998,213.179 702.998,248.9 703.484,250.358C703.97,251.573 704.699,252.059 706.643,252.059C707.858,252.302 708.344,252.302 708.344,252.788C708.344,253.031 707.372,253.031 701.297,253.031C697.409,253.031 694.007,253.031 693.764,252.788ZM726.326,253.031C720.008,253.031 718.064,252.788 718.307,252.545C718.307,252.545 718.793,252.302 719.279,252.059C720.008,252.059 720.737,251.816 720.98,251.573C722.195,250.844 722.195,250.115 722.195,231.161C722.195,221.441 722.195,213.179 721.952,212.693C721.709,211.721 720.737,211.235 719.036,211.235C718.307,210.992 717.578,210.749 717.578,210.749C717.335,210.506 719.765,210.506 728.756,210.506C737.99,210.506 740.42,210.263 741.392,210.02C741.878,209.777 742.607,209.777 742.607,209.777C742.607,210.02 742.607,210.506 742.607,210.749C742.364,211.235 742.121,212.45 742.121,213.665C741.878,216.581 741.878,217.31 741.392,217.31C741.149,217.31 741.149,216.824 740.906,216.095C740.663,214.637 740.42,213.908 739.448,213.422C738.476,212.936 734.831,212.693 730.7,212.693L727.784,212.693L727.784,229.46L733.373,229.217C739.448,229.217 739.691,229.217 740.906,228.002C741.635,227.516 741.878,227.759 741.635,229.217C741.392,229.703 741.149,231.161 741.149,232.619C741.149,233.834 740.906,235.049 740.906,235.292C740.663,236.264 740.42,236.021 740.177,234.806C739.691,232.133 738.962,231.647 732.644,231.647L727.784,231.404L727.784,239.666C727.784,248.9 727.784,249.143 729.485,250.115C730.214,250.601 730.7,250.601 735.074,250.601C739.448,250.601 739.691,250.601 740.663,250.115C741.878,249.386 742.607,248.414 743.093,246.956C743.093,246.227 743.579,245.498 743.579,245.498C744.308,245.255 743.579,252.059 742.85,252.788C742.364,253.031 739.448,253.031 726.326,253.031ZM808.459,253.031C802.141,253.031 800.197,252.788 800.44,252.545C800.44,252.545 800.926,252.302 801.412,252.059C802.141,252.059 802.87,251.816 803.113,251.573C804.328,250.844 804.328,250.115 804.328,231.161C804.328,221.441 804.328,213.179 804.085,212.693C803.842,211.721 802.87,211.235 801.169,211.235C800.44,210.992 799.711,210.749 799.711,210.749C799.468,210.506 801.898,210.506 810.889,210.506C820.123,210.506 822.553,210.263 823.525,210.02C824.011,209.777 824.74,209.777 824.74,209.777C824.74,210.02 824.74,210.506 824.74,210.749C824.497,211.235 824.254,212.45 824.254,213.665C824.011,216.581 824.011,217.31 823.525,217.31C823.282,217.31 823.282,216.824 823.039,216.095C822.796,214.637 822.553,213.908 821.581,213.422C820.609,212.936 816.964,212.693 812.833,212.693L809.917,212.693L809.917,229.46L815.506,229.217C821.581,229.217 821.824,229.217 823.039,228.002C823.768,227.516 824.011,227.759 823.768,229.217C823.525,229.703 823.282,231.161 823.282,232.619C823.282,233.834 823.039,235.049 823.039,235.292C822.796,236.264 822.553,236.021 822.31,234.806C821.824,232.133 821.095,231.647 814.777,231.647L809.917,231.404L809.917,239.666C809.917,248.9 809.917,249.143 811.618,250.115C812.347,250.601 812.833,250.601 817.207,250.601C821.581,250.601 821.824,250.601 822.796,250.115C824.011,249.386 824.74,248.414 825.226,246.956C825.226,246.227 825.712,245.498 825.712,245.498C826.441,245.255 825.712,252.059 824.983,252.788C824.497,253.031 821.581,253.031 808.459,253.031ZM833.731,252.788C833.245,252.545 833.974,252.302 835.189,252.302C835.432,252.059 836.161,252.059 836.404,251.816C837.862,251.087 837.862,251.33 840.292,230.189C841.507,219.254 842.722,210.02 842.722,209.777C842.965,209.291 843.208,209.291 843.694,209.534C843.937,209.777 848.068,217.796 852.928,227.516C858.031,237.236 861.919,245.255 862.162,245.255C862.405,245.255 866.293,237.236 870.91,227.516C875.77,217.796 879.658,209.777 879.901,209.534C880.387,209.291 880.63,209.291 880.63,210.02C880.873,210.263 881.845,218.768 883.06,228.974C884.275,238.937 885.247,247.685 885.49,248.414C886.219,251.087 887.434,251.816 890.35,252.059C892.051,252.302 892.78,252.788 891.565,253.031C891.322,253.031 888.649,253.031 885.49,253.031C879.901,252.788 878.929,252.545 879.901,251.816C880.387,251.573 880.387,251.087 878.929,236.993C877.471,221.441 877.471,220.955 876.985,221.198C876.985,221.441 873.583,228.245 869.452,236.507C865.564,244.769 861.919,251.816 861.676,252.302C860.704,253.517 860.704,253.274 857.545,247.685C855.115,243.311 845.152,223.385 844.909,222.413C844.666,221.684 844.423,221.684 844.18,222.656C843.937,223.871 841.993,248.414 841.993,249.629C841.993,251.33 842.479,251.816 844.423,252.059C845.638,252.302 846.124,252.545 845.881,252.788C845.638,253.031 834.217,253.031 833.731,252.788ZM906.874,253.031C900.556,253.031 898.612,252.788 898.855,252.545C898.855,252.545 899.341,252.302 899.827,252.059C900.556,252.059 901.285,251.816 901.528,251.573C902.743,250.844 902.743,250.115 902.743,231.161C902.743,221.441 902.743,213.179 902.5,212.693C902.257,211.721 901.285,211.235 899.584,211.235C898.855,210.992 898.126,210.749 898.126,210.749C897.883,210.506 900.313,210.506 909.304,210.506C918.538,210.506 920.968,210.263 921.94,210.02C922.426,209.777 923.155,209.777 923.155,209.777C923.155,210.02 923.155,210.506 923.155,210.749C922.912,211.235 922.669,212.45 922.669,213.665C922.426,216.581 922.426,217.31 921.94,217.31C921.697,217.31 921.697,216.824 921.454,216.095C921.211,214.637 920.968,213.908 919.996,213.422C919.024,212.936 915.379,212.693 911.248,212.693L908.332,212.693L908.332,229.46L913.921,229.217C919.996,229.217 920.239,229.217 921.454,228.002C922.183,227.516 922.426,227.759 922.183,229.217C921.94,229.703 921.697,231.161 921.697,232.619C921.697,233.834 921.454,235.049 921.454,235.292C921.211,236.264 920.968,236.021 920.725,234.806C920.239,232.133 919.51,231.647 913.192,231.647L908.332,231.404L908.332,239.666C908.332,248.9 908.332,249.143 910.033,250.115C910.762,250.601 911.248,250.601 915.622,250.601C919.996,250.601 920.239,250.601 921.211,250.115C922.426,249.386 923.155,248.414 923.641,246.956C923.641,246.227 924.127,245.498 924.127,245.498C924.856,245.255 924.127,252.059 923.398,252.788C922.912,253.031 919.996,253.031 906.874,253.031ZM998.728,253.031C998.485,252.545 998.728,252.545 999.457,252.302C1001.16,252.059 1001.64,251.816 1002.13,250.601C1002.62,249.629 1002.62,248.414 1002.62,231.161L1002.86,212.693L997.027,212.936C993.868,212.936 990.952,213.179 990.466,213.422C989.251,213.665 988.279,214.637 987.55,215.852C987.064,217.31 986.335,217.31 986.578,216.095C986.821,213.665 987.793,210.02 988.036,209.777C988.279,209.534 988.522,209.534 989.494,209.777C990.466,210.263 991.924,210.263 1005.78,210.263C1014.77,210.263 1021.57,210.263 1022.3,210.263C1023.03,210.02 1023.51,210.02 1023.76,210.02C1024,210.506 1023.51,217.553 1023.27,217.553C1023.03,217.553 1022.79,217.31 1022.79,216.824C1022.3,213.665 1021.08,213.179 1013.07,212.936L1007.96,212.693L1008.21,231.161C1008.21,247.685 1008.21,249.629 1008.69,250.601C1009.18,251.573 1009.66,252.059 1011.85,252.059C1013.07,252.302 1013.55,252.302 1013.55,252.788C1013.55,253.031 1012.58,253.031 1006.26,253.031C1002.13,253.031 998.728,253.031 998.728,253.031ZM287.954,166.28C271.916,164.822 262.196,157.289 259.28,144.41C259.037,142.223 258.794,136.391 259.037,133.961C260.009,128.129 262.439,122.783 266.327,118.652C269.972,114.764 275.561,111.605 281.636,110.39C286.496,109.418 294.758,109.418 302.048,110.633C303.749,110.876 306.179,111.119 307.394,111.362C310.553,111.605 310.796,111.848 310.553,112.82C310.553,113.306 310.31,116.222 310.31,119.381C310.31,122.54 310.067,125.213 309.824,125.456C309.338,126.428 308.852,125.699 308.609,123.998C308.123,121.568 306.908,119.624 305.45,118.166C303.749,116.708 299.861,114.764 296.945,114.035C294.758,113.306 294.029,113.306 289.655,113.306C284.066,113.306 282.608,113.549 279.206,115.25C275.561,117.194 273.131,119.624 271.43,123.269C269.243,127.4 268.757,130.802 269,136.877C269,139.064 269.243,141.494 269.486,142.466C271.916,152.915 278.477,159.962 287.954,162.392C289.655,162.878 290.87,162.878 294.272,162.878C300.59,162.878 301.562,162.392 301.805,159.476C301.805,158.504 301.805,154.373 301.805,150.242C301.562,143.438 301.562,142.466 301.319,141.737C300.59,140.522 299.375,139.793 296.945,139.793C294.758,139.55 294.515,139.307 294.758,138.821C294.758,138.578 296.459,138.578 305.693,138.578C316.142,138.578 316.385,138.578 316.385,139.064C316.385,139.55 316.142,139.55 314.684,139.793C312.74,139.793 312.011,140.279 311.525,141.494C311.039,142.223 311.039,143.195 311.039,152.429C310.796,164.336 311.039,162.878 308.366,164.093C304.478,165.551 299.861,166.28 294.029,166.523C291.842,166.523 289.169,166.523 287.954,166.28ZM789.748,166.28C779.785,165.308 772.009,159.962 767.636,151.7C763.505,142.952 763.505,132.26 768.121,123.998C770.065,120.353 773.224,116.708 776.383,114.764C786.832,107.717 804.571,107.96 814.291,115.25C816.478,116.951 818.908,119.867 820.366,122.054C821.581,124.484 823.039,127.886 823.525,130.802C824.011,133.718 824.011,139.793 823.525,142.709C821.338,153.644 814.777,161.42 804.571,164.822C800.44,166.28 794.365,167.009 789.748,166.28ZM802.141,162.149C808.702,159.962 812.59,153.887 813.805,144.653C814.048,141.008 813.805,134.447 813.076,131.288C811.375,123.512 807.244,117.923 801.169,115.007C798.01,113.549 796.066,113.063 792.664,113.063C787.075,113.063 783.673,114.278 780.514,117.68C778.327,119.867 777.112,121.811 776.14,124.97C774.682,129.344 774.196,136.148 774.925,141.494C776.626,152.672 782.944,160.448 792.421,162.635C795.094,163.121 799.954,162.878 802.141,162.149ZM345.302,166.037C335.825,165.065 328.778,160.205 325.133,152.429C322.217,146.111 322.217,138.578 325.133,132.017C328.535,124.727 334.853,120.11 343.601,118.652C346.274,118.166 352.835,118.166 355.508,118.409C366.443,120.353 373.49,126.185 375.434,135.905C376.649,141.251 375.92,147.812 373.247,152.672C369.845,159.476 363.77,164.093 355.751,165.551C352.835,166.28 347.975,166.523 345.302,166.037ZM355.508,162.635C360.125,161.42 363.527,157.775 365.228,152.672C366.686,148.298 366.929,141.008 365.714,136.391C363.77,129.101 359.153,123.755 352.835,122.054C345.545,119.867 338.255,122.54 335.096,128.129C333.881,129.83 333.152,132.26 332.666,135.176C332.18,138.092 332.18,144.167 332.909,147.083C335.096,155.345 339.956,160.691 347.003,162.392C349.19,163.121 353.564,163.121 355.508,162.635ZM402.407,166.28C401.921,166.037 400.949,164.093 392.201,143.681C387.584,132.746 383.453,123.269 382.967,122.54C381.995,120.839 380.537,120.11 378.107,120.11C376.892,119.867 376.406,119.867 376.406,119.624C376.163,119.381 376.406,119.138 376.406,119.138C376.649,118.895 395.117,118.895 396.332,118.895C396.818,119.138 396.818,119.624 396.332,119.867C396.089,119.867 395.36,120.11 394.874,120.11C394.145,120.11 393.659,120.11 393.173,120.596C392.687,121.082 392.444,121.082 392.687,122.054C392.687,123.026 404.594,153.644 404.837,154.13C405.08,154.373 406.295,151.7 412.37,136.634C417.473,124.241 418.445,121.811 418.202,121.082C417.959,120.353 416.987,120.11 415.286,120.11C414.071,120.11 413.342,119.381 414.314,119.138C415.043,118.895 429.137,118.895 429.38,119.138C430.109,119.381 429.38,120.11 428.165,120.11C425.492,120.11 424.52,121.082 422.09,126.671C421.118,128.372 419.417,132.503 417.716,135.662C416.258,138.821 412.856,146.354 410.183,152.429C404.594,164.822 404.351,165.308 403.622,166.037C403.379,166.28 402.893,166.523 402.407,166.28ZM567.404,166.037C566.918,165.794 565.46,164.579 563.759,162.878C554.525,154.373 543.833,143.924 538.487,138.335C535.085,134.69 532.169,131.774 532.169,131.774C531.926,131.774 532.655,159.476 532.898,160.934C533.384,162.392 534.113,163.607 534.842,164.093C535.328,164.093 536.3,164.336 537.272,164.336C539.216,164.579 539.702,164.822 539.216,165.308C538.73,165.551 515.402,165.794 512.729,165.308C511.514,165.308 510.299,164.822 509.327,164.336C506.411,163.121 502.766,158.99 496.448,149.756C495.233,148.298 494.261,146.84 494.018,146.84C493.775,146.597 492.317,146.354 490.13,146.354L486.728,146.354L486.728,149.513C486.485,153.887 486.971,161.663 487.457,162.635C487.943,163.85 488.915,164.093 491.102,164.336C492.56,164.579 493.289,164.579 493.289,164.822C493.532,165.065 493.289,165.308 493.289,165.308C492.803,165.551 473.606,165.551 473.363,165.308C472.877,164.822 473.606,164.579 475.064,164.336C475.793,164.336 476.765,164.093 477.008,163.85C478.466,162.878 478.466,163.121 478.466,142.223C478.709,123.998 478.466,122.783 478.223,122.054C477.494,120.839 476.036,120.11 474.092,120.11C472.877,120.11 472.391,119.867 472.391,119.624C472.391,119.381 472.391,119.138 472.391,119.138C472.634,118.895 493.046,118.895 496.205,119.138C502.28,119.624 505.925,121.568 507.869,125.456C510.299,130.559 508.598,135.662 502.766,141.251L500.093,143.681L502.28,146.354C507.626,153.158 510.542,156.317 513.458,159.233C516.131,162.149 516.86,162.635 518.561,163.364C520.262,164.336 520.748,164.336 522.692,164.336C525.365,164.336 526.094,164.093 526.58,162.635C527.066,161.663 527.066,160.934 527.552,128.858C527.795,119.867 527.795,118.409 528.281,118.166C528.524,117.923 528.767,117.923 529.253,117.923C529.496,117.923 537.758,126.185 547.478,135.905C557.198,145.625 565.46,153.644 565.46,153.401C565.46,153.401 564.974,128.858 564.731,124.97C564.731,122.054 564.245,121.082 562.787,120.353C562.301,120.11 561.329,120.11 560.357,120.11C559.628,120.11 558.899,119.867 558.656,119.867C558.17,119.624 558.17,119.138 558.899,118.895C559.628,118.895 574.937,118.895 575.423,118.895C575.666,119.138 575.666,119.624 575.18,119.867C574.937,119.867 574.451,120.11 573.965,120.11C572.75,120.11 571.535,120.596 571.049,121.325C570.806,121.568 570.563,122.54 570.563,123.269C570.32,123.998 570.077,131.531 570.077,140.522C569.591,162.149 569.591,165.551 569.105,166.037C568.619,166.523 568.376,166.523 567.404,166.037ZM496.448,142.466C499.364,140.765 501.065,137.363 501.065,132.989C501.065,129.101 499.85,126.428 497.663,124.241C495.719,122.54 494.261,122.054 490.373,122.054C488.186,122.054 487.214,122.054 486.971,122.297C486.728,122.783 486.728,123.755 486.728,132.503C486.728,143.195 486.485,142.709 488.186,142.952C488.672,142.952 489.401,143.195 489.644,143.195C489.644,143.195 491.102,143.195 492.56,143.195C494.99,143.195 495.233,143.195 496.448,142.466ZM604.583,166.037C595.106,165.065 588.059,160.205 584.414,152.429C581.498,146.111 581.498,138.578 584.414,132.017C587.816,124.727 594.134,120.11 602.882,118.652C605.555,118.166 612.116,118.166 614.789,118.409C625.724,120.353 632.771,126.185 634.715,135.905C635.93,141.251 635.201,147.812 632.528,152.672C629.126,159.476 623.051,164.093 615.032,165.551C612.116,166.28 607.256,166.523 604.583,166.037ZM614.789,162.635C619.406,161.42 622.808,158.018 624.509,152.672C625.967,148.298 626.21,141.251 624.995,136.391C623.051,129.101 618.434,123.755 612.116,122.054C604.826,119.867 597.536,122.54 594.377,128.129C593.162,129.83 592.433,132.26 591.947,135.176C591.461,138.092 591.461,144.167 592.19,147.083C594.377,155.345 599.237,160.691 606.284,162.392C608.471,163.121 612.845,163.121 614.789,162.635ZM712.232,166.037C709.559,165.794 706.4,165.065 705.671,164.336L704.942,163.85L705.185,158.99C705.185,153.887 705.428,152.915 706.157,153.158C706.643,153.158 706.643,153.644 706.886,154.859C707.372,160.448 711.989,163.607 718.307,163.121C720.98,163.121 722.924,162.149 724.382,160.448C726.083,158.747 726.569,157.289 726.326,154.859C726.326,151.214 724.625,149.27 718.064,145.382C715.877,144.167 713.204,142.223 712.232,141.494C708.344,138.335 706.643,134.933 706.643,130.559C706.643,123.755 712.232,118.895 721.223,118.166C724.868,117.923 732.158,118.895 732.401,119.624C732.401,120.839 732.158,128.129 731.915,128.615C731.915,128.858 731.672,129.344 731.429,129.344C731.186,129.344 730.943,128.858 730.7,127.157C730.214,124.727 728.027,122.54 725.354,121.568C722.924,120.839 719.522,121.082 717.335,122.054C714.662,123.269 713.447,125.213 713.447,127.643C713.204,131.288 715.148,133.232 722.195,137.12C725.84,139.064 727.298,140.279 729.485,142.223C732.887,145.625 734.102,149.756 733.616,154.373C733.13,157.289 731.915,159.476 729.728,161.663C726.326,165.065 723.41,166.037 717.578,166.28C715.634,166.28 713.204,166.28 712.232,166.037ZM962.521,166.037C951.1,165.065 942.595,159.719 939.193,151.457C937.735,148.055 937.492,146.354 937.492,141.98C937.492,137.12 937.978,135.176 939.679,131.774C943.081,124.241 949.399,120.11 958.876,118.409C961.306,118.166 968.839,118.166 972.241,118.409C975.4,118.895 981.232,119.867 981.475,120.11C981.718,120.11 981.232,130.559 980.989,131.288C980.746,132.017 980.017,132.017 979.774,131.531C979.774,131.288 979.774,130.802 979.774,130.316C979.774,129.101 978.802,127.157 977.83,125.942C976.615,123.998 973.699,122.54 970.054,121.811C967.624,121.325 961.792,121.325 959.362,121.811C953.287,123.026 949.156,127.157 947.455,133.718C946.969,135.662 946.969,136.391 946.969,140.765C946.969,145.139 946.969,145.625 947.698,147.569C949.399,153.644 953.287,158.018 958.876,160.691C961.792,162.149 963.979,162.635 967.867,162.392C971.512,162.392 973.942,162.149 975.4,161.42C977.83,159.962 979.774,157.532 980.503,154.616C980.746,153.887 981.475,153.644 981.718,154.373C981.961,155.345 980.746,163.121 980.017,164.093C979.531,164.822 977.344,165.551 974.671,165.794C971.998,166.28 965.194,166.523 962.521,166.037ZM144.828,165.551C144.585,165.065 144.828,165.065 146.043,164.822C146.529,164.822 147.258,164.579 147.501,164.336C148.23,163.85 148.473,162.392 148.473,148.055L148.716,133.718L145.071,133.718C138.753,133.718 137.538,133.961 136.566,136.148C135.594,138.335 135.351,136.877 136.323,133.232C136.566,131.774 136.809,130.802 136.809,130.559C137.052,130.559 137.295,130.559 137.781,130.802C138.267,131.045 140.94,131.045 151.389,131.045C158.679,131.045 164.997,131.045 165.483,130.802L166.455,130.559L166.212,133.961C166.212,136.877 166.212,138.092 165.726,137.606C165.726,137.606 165.483,137.12 165.483,136.634C165.24,135.419 164.511,134.447 163.296,133.961C162.567,133.961 160.623,133.718 158.193,133.718L154.305,133.475L154.305,147.326C154.305,155.588 154.305,161.663 154.548,162.635C154.791,164.336 155.277,164.579 157.464,164.822C158.193,164.822 159.165,165.065 159.165,165.308C159.165,165.308 159.165,165.551 158.922,165.551C158.193,165.551 144.828,165.551 144.828,165.551ZM170.586,165.551C170.343,165.065 170.586,164.822 171.315,164.822C172.53,164.822 173.259,164.336 173.502,163.364C173.745,162.878 173.745,159.233 173.745,150.485L173.988,138.578L173.259,137.849C172.773,137.363 172.53,137.12 171.315,137.12C170.586,136.877 170.1,136.877 170.1,136.634C170.1,136.391 182.493,136.391 182.493,136.634C182.493,136.877 182.25,136.877 181.521,137.12C180.792,137.12 180.063,137.363 179.82,137.606C179.334,138.092 179.334,138.335 179.334,143.438L179.334,148.784L187.11,148.784L195.129,149.027L195.129,144.167C195.129,141.494 194.886,139.064 194.886,138.821C194.643,137.849 193.914,137.12 192.213,137.12C191.484,136.877 190.998,136.877 190.998,136.634C190.998,136.391 193.428,136.391 197.316,136.391C201.204,136.391 203.634,136.391 203.634,136.634C203.634,136.877 203.148,136.877 202.419,137.12C200.232,137.363 200.475,136.391 200.475,150.242C200.232,163.85 200.232,164.093 201.933,164.579C202.176,164.822 203.148,164.822 203.634,164.822C204.363,164.822 204.849,165.065 204.606,165.308C204.606,165.551 191.727,165.794 191.727,165.308C191.727,165.065 191.97,165.065 192.699,164.822C193.428,164.822 193.914,164.579 194.4,164.336C194.886,163.607 195.129,161.177 194.886,155.831L194.886,151.214L179.334,151.214L179.334,155.345C179.091,163.607 179.334,164.579 182.007,164.822C182.979,165.065 183.465,165.065 183.465,165.308C183.465,165.551 181.521,165.551 177.147,165.551C173.502,165.551 170.586,165.551 170.586,165.551ZM216.27,165.551C212.382,165.551 209.952,165.308 209.952,165.065C209.952,165.065 210.195,164.822 210.681,164.822C211.896,164.822 212.625,164.336 212.868,163.364C213.111,162.878 213.111,159.233 213.111,150.485L213.354,138.578L212.625,137.849C212.139,137.363 211.896,137.12 210.681,137.12C209.709,136.877 209.466,136.877 209.466,136.634C209.466,136.391 210.924,136.391 218.457,136.391C223.56,136.391 227.934,136.148 228.42,136.148L229.392,135.905L229.149,137.606C228.906,141.008 228.663,141.98 228.42,141.737C228.42,141.737 228.177,141.494 228.177,141.008C227.934,138.821 227.205,138.578 222.345,138.578L218.7,138.578L218.7,148.784L223.074,148.784C227.205,148.784 227.205,148.784 227.934,148.298C228.177,147.812 228.663,147.812 228.663,147.812C228.663,148.055 228.663,149.027 228.42,149.999C228.42,150.971 228.177,152.429 228.177,152.915C228.177,154.13 227.691,154.859 227.691,153.644C227.691,151.7 226.719,151.214 222.102,150.971L218.7,150.971L218.7,156.074C218.457,161.663 218.7,161.906 219.915,162.878C220.401,163.364 220.887,163.364 223.803,163.364C228.177,163.364 228.906,163.121 229.392,160.691C229.635,159.962 229.878,159.719 230.121,159.719C230.607,159.719 230.121,164.822 229.392,165.308C229.149,165.551 227.934,165.551 225.99,165.551C224.289,165.551 219.915,165.551 216.27,165.551ZM442.259,165.551C433.511,165.308 432.053,165.308 432.053,165.065C432.053,164.579 432.539,164.579 433.511,164.336C434.483,164.336 435.455,164.093 435.698,163.85C437.156,162.878 437.156,163.121 437.156,142.223C437.399,123.998 437.156,122.783 436.913,122.054C436.184,120.839 434.969,120.11 433.025,120.11C431.324,119.867 431.081,119.867 431.081,119.381C430.838,119.138 431.81,119.138 445.661,119.138C458.297,119.138 460.484,118.895 461.456,118.652C462.185,118.409 462.914,118.409 462.914,118.409C462.914,118.409 462.914,119.624 462.914,120.839C462.671,122.297 462.428,124.241 462.428,125.456C462.185,126.671 461.942,127.643 461.942,127.886C461.456,128.129 461.213,127.886 461.213,126.914C461.213,125.456 460.241,123.755 459.026,123.269C457.811,122.783 453.923,122.297 449.306,122.54L445.904,122.54L445.904,138.821L452.222,138.821C455.624,138.821 458.783,138.821 459.269,138.578C459.512,138.578 460.241,138.092 460.727,137.606C461.213,137.363 461.699,137.12 461.942,137.12C461.942,137.363 461.942,138.821 461.699,140.765C461.456,142.709 461.456,144.896 461.456,145.625C461.456,146.84 460.97,147.812 460.484,147.569C460.241,147.569 460.241,146.84 459.998,146.111C459.998,144.41 459.269,143.681 458.054,142.952C457.325,142.466 456.353,142.466 451.736,142.466C448.577,142.223 446.147,142.223 446.147,142.466C445.661,142.709 445.661,158.504 446.147,159.476C447.362,161.177 448.334,161.663 451.979,162.149C454.895,162.392 457.811,162.149 459.755,161.663C461.456,161.177 462.671,159.962 463.157,158.261C463.157,157.775 463.4,157.046 463.4,156.803C463.643,155.831 464.372,155.831 464.615,156.56C464.858,158.018 463.886,164.336 463.157,165.065C462.914,165.551 462.671,165.551 457.568,165.551C454.652,165.551 447.605,165.551 442.259,165.551ZM642.005,165.308C642.005,165.308 641.762,165.065 642.005,164.822C642.005,164.579 642.491,164.579 643.706,164.336C644.435,164.336 645.407,164.093 645.65,163.85C647.108,162.878 647.108,163.121 647.108,142.223C647.351,123.998 647.108,122.783 646.865,122.054C646.136,120.839 644.678,120.11 642.734,120.11C641.519,120.11 641.033,119.867 641.033,119.624C641.033,119.381 641.033,119.138 641.033,119.138C641.276,118.895 661.688,118.895 664.847,119.138C670.922,119.624 674.567,121.568 676.511,125.456C678.941,130.559 677.24,135.662 671.408,141.251L668.735,143.681L670.922,146.354C676.268,153.158 679.184,156.317 682.1,159.233C684.773,161.906 685.502,162.635 686.96,163.364C688.175,163.85 689.39,164.336 690.362,164.336C691.82,164.579 692.306,165.065 691.577,165.551C691.334,165.794 683.558,165.794 681.371,165.308C680.156,165.308 678.941,164.822 677.969,164.336C675.053,163.121 671.408,158.99 665.09,149.756C663.875,148.298 662.903,146.84 662.66,146.84C662.417,146.597 660.959,146.354 658.772,146.354L655.37,146.354L655.37,149.513C655.127,153.887 655.613,161.663 656.099,162.635C656.585,163.85 657.557,164.093 659.744,164.336C661.202,164.579 661.931,164.579 661.931,164.822C662.174,165.065 661.931,165.308 661.931,165.308C661.688,165.551 642.491,165.551 642.005,165.308ZM665.09,142.466C668.006,140.765 669.707,137.363 669.707,132.989C669.707,129.101 668.492,126.428 666.305,124.241C664.361,122.54 662.903,122.054 659.015,122.054C656.828,122.054 655.856,122.054 655.613,122.297C655.37,122.783 655.37,123.755 655.37,132.503C655.37,143.195 655.127,142.709 656.828,142.952C657.314,142.952 658.043,143.195 658.286,143.195C658.286,143.195 659.744,143.195 661.202,143.195C663.632,143.195 663.875,143.195 665.09,142.466ZM830.329,165.308C830.329,165.308 830.086,165.065 830.329,164.822C830.329,164.579 830.815,164.579 832.03,164.336C832.759,164.336 833.731,164.093 833.974,163.85C835.432,162.878 835.432,163.121 835.432,141.737C835.432,122.297 835.432,122.297 834.946,121.568C834.217,120.596 833.245,120.11 831.787,120.11C829.843,119.867 829.357,119.867 829.357,119.381C829.357,119.138 831.301,118.895 844.423,118.895C857.059,118.895 859.975,118.895 860.704,118.652C861.919,118.166 862.162,118.409 861.919,120.11C861.676,120.839 861.433,122.783 861.433,124.484C861.19,127.643 860.947,128.615 860.218,127.643C859.975,127.4 859.732,126.671 859.732,126.185C859.732,124.97 859.246,123.755 858.031,123.269C857.302,122.783 856.087,122.783 850.741,122.54C845.638,122.54 844.423,122.54 844.18,122.783C844.18,122.783 844.18,126.671 844.18,131.045C844.18,137.12 844.18,138.821 844.423,139.064C844.423,139.064 847.582,139.064 851.47,139.064L858.031,138.821L859.003,138.092C860.218,136.877 860.461,136.877 860.218,138.821C860.218,139.55 859.975,141.98 859.732,143.681C859.489,146.84 859.489,147.326 859.003,147.326C858.76,147.569 858.517,147.326 858.274,145.868C858.031,144.653 857.302,143.438 856.33,142.952C855.601,142.466 854.872,142.466 850.012,142.466L844.18,142.466L844.18,157.289C844.666,163.607 844.909,164.093 848.797,164.336C850.255,164.579 851.227,164.579 851.227,164.822C851.227,165.065 851.227,165.308 850.984,165.308C850.741,165.551 830.815,165.551 830.329,165.308ZM870.181,165.308C870.181,165.308 869.938,165.065 870.181,164.822C870.181,164.579 870.667,164.579 871.882,164.336C872.611,164.336 873.583,164.093 873.826,163.85C875.284,162.878 875.284,163.121 875.284,141.737C875.284,122.297 875.284,122.297 874.798,121.568C874.069,120.596 873.097,120.11 871.639,120.11C869.695,119.867 869.209,119.867 869.209,119.381C869.209,119.138 871.153,118.895 884.275,118.895C896.911,118.895 899.827,118.895 900.556,118.652C901.771,118.166 902.014,118.409 901.771,120.11C901.528,120.839 901.285,122.783 901.285,124.484C901.042,127.643 900.799,128.615 900.07,127.643C899.827,127.4 899.584,126.671 899.584,126.185C899.584,124.97 899.098,123.755 897.883,123.269C897.154,122.783 895.939,122.783 890.593,122.54C885.49,122.54 884.275,122.54 884.032,122.783C884.032,122.783 884.032,126.671 884.032,131.045C884.032,137.12 884.032,138.821 884.275,139.064C884.275,139.064 887.434,139.064 891.322,139.064L897.883,138.821L898.855,138.092C900.07,136.877 900.313,136.877 900.07,138.821C900.07,139.55 899.827,141.98 899.584,143.681C899.341,146.84 899.341,147.326 898.855,147.326C898.612,147.569 898.369,147.326 898.126,145.868C897.883,144.653 897.154,143.438 896.182,142.952C895.453,142.466 894.724,142.466 889.864,142.466L884.032,142.466L884.032,157.289C884.518,163.607 884.761,164.093 888.649,164.336C890.107,164.579 891.079,164.579 891.079,164.822C891.079,165.065 891.079,165.308 890.836,165.308C890.593,165.551 870.667,165.551 870.181,165.308ZM910.033,165.308C910.033,165.308 909.79,165.065 910.033,164.822C910.033,164.579 910.762,164.579 911.734,164.336C913.435,164.336 913.921,163.85 914.407,163.121C915.136,162.149 915.379,158.747 915.136,140.522C915.136,123.269 915.136,122.054 914.65,121.325C914.164,120.596 912.706,120.11 911.491,120.11C910.762,120.11 910.276,119.867 910.033,119.867C909.547,119.624 909.547,119.138 910.276,118.895C911.005,118.652 928.987,118.895 929.23,119.138C929.716,119.381 928.744,119.867 927.286,120.11C926.557,120.11 925.585,120.353 925.342,120.596C923.884,121.811 923.884,121.082 923.884,139.064C923.884,148.298 923.884,156.803 923.884,158.99C924.37,163.607 924.613,164.093 928.501,164.336C929.959,164.579 930.931,164.579 930.931,164.822C930.931,165.065 930.931,165.308 930.688,165.308C930.445,165.551 910.519,165.551 910.033,165.308ZM1000.43,165.551C991.681,165.308 990.223,165.308 990.223,165.065C990.223,164.579 990.709,164.579 991.681,164.336C992.653,164.336 993.625,164.093 993.868,163.85C995.326,162.878 995.326,163.121 995.326,142.223C995.569,123.998 995.326,122.783 995.083,122.054C994.354,120.839 993.139,120.11 991.195,120.11C989.494,119.867 989.251,119.867 989.251,119.381C989.008,119.138 989.98,119.138 1003.83,119.138C1016.47,119.138 1018.65,118.895 1019.63,118.652C1020.36,118.409 1021.08,118.409 1021.08,118.409C1021.08,118.409 1021.08,119.624 1021.08,120.839C1020.84,122.297 1020.6,124.241 1020.6,125.456C1020.36,126.671 1020.11,127.643 1020.11,127.886C1019.63,128.129 1019.38,127.886 1019.38,126.914C1019.38,125.456 1018.41,123.755 1017.2,123.269C1015.98,122.783 1012.09,122.297 1007.48,122.54L1004.07,122.54L1004.07,138.821L1010.39,138.821C1013.79,138.821 1016.95,138.821 1017.44,138.578C1017.68,138.578 1018.41,138.092 1018.9,137.606C1019.38,137.363 1019.87,137.12 1020.11,137.12C1020.11,137.363 1020.11,138.821 1019.87,140.765C1019.63,142.709 1019.63,144.896 1019.63,145.625C1019.63,146.84 1019.14,147.812 1018.65,147.569C1018.41,147.569 1018.41,146.84 1018.17,146.111C1018.17,144.41 1017.44,143.681 1016.22,142.952C1015.5,142.466 1014.52,142.466 1009.91,142.466C1006.75,142.223 1004.32,142.223 1004.32,142.466C1003.83,142.709 1003.83,158.504 1004.32,159.476C1005.53,161.177 1006.5,161.663 1010.15,162.149C1013.07,162.392 1015.98,162.149 1017.93,161.663C1019.63,161.177 1020.84,159.962 1021.33,158.261C1021.33,157.775 1021.57,157.046 1021.57,156.803C1021.81,155.831 1022.54,155.831 1022.79,156.56C1023.03,158.018 1022.06,164.336 1021.33,165.065C1021.08,165.551 1020.84,165.551 1015.74,165.551C1012.82,165.551 1005.78,165.551 1000.43,165.551ZM690.119,125.213C690.119,124.97 690.362,123.998 690.848,123.026C692.306,119.381 693.278,116.222 693.278,112.82C693.278,110.633 692.549,108.932 691.577,107.474C690.119,105.773 690.605,105.53 693.278,106.016C695.951,106.502 698.138,107.231 698.867,107.717C699.596,108.203 699.596,108.203 699.353,109.661C699.353,110.633 699.11,112.091 698.624,113.063C697.409,116.708 694.493,121.568 692.063,123.998C690.848,125.213 690.362,125.456 690.119,125.213Z" style="fill:rgb(55,103,150);fill-rule:nonzero;"/>
            </g>
            <g>
                <path d="M49.0859,242.757C48.5999,242.271 48.5999,242.271 49.0859,240.57C49.3289,239.355 49.8149,237.168 50.0579,235.71C50.3009,234.009 51.0299,231.336 51.2729,229.878C51.5159,228.42 52.0019,226.233 52.2449,224.775C52.9739,222.102 53.7029,217.971 54.6749,214.083C54.9179,212.625 55.4039,210.438 55.6469,209.223C56.3759,206.307 57.5909,199.017 57.3479,198.045C57.3479,197.316 58.0769,192.942 59.2919,186.381C59.5349,184.923 59.7779,183.222 59.7779,182.736C59.7779,182.493 59.7779,180.792 60.2639,179.577C60.5069,178.119 60.7499,175.932 60.7499,174.717C60.9929,172.773 61.7219,170.1 62.6939,166.455C63.1799,164.268 64.1519,150.66 64.3949,146.286C64.3949,145.071 64.3949,139.968 64.8809,135.108C65.1239,130.005 65.3669,120.042 65.3669,112.752C65.8529,95.4988 66.0959,87.9658 66.3389,88.2088C66.3389,88.2088 66.5819,88.2088 66.5819,88.4518C66.5819,88.4518 66.5819,88.6948 66.8249,88.6948C67.0679,88.6948 67.3109,88.6948 67.5539,89.1808C68.0399,89.4238 68.2829,89.6668 68.5259,89.6668C68.7689,89.6668 69.0119,89.6668 69.0119,89.6668C69.0119,89.9098 69.2549,90.1528 69.7409,90.3958C71.4419,91.6108 71.6849,92.0968 73.8719,96.4708L76.0589,100.845L76.3019,105.705C76.3019,109.107 76.3019,111.051 76.0589,112.023C75.8159,112.752 75.3299,114.939 75.0869,116.64C74.8439,118.341 74.1149,121.014 73.8719,122.472C73.1429,125.631 72.8999,127.575 72.4139,129.276C72.4139,130.005 71.9279,131.706 71.6849,133.164C71.4419,134.379 70.9559,135.837 70.9559,136.323C70.9559,136.566 70.7129,137.781 70.4699,138.996C69.9839,141.183 69.9839,141.669 69.9839,149.688C69.9839,156.978 69.7409,158.193 69.4979,160.623C69.0119,161.838 68.5259,164.754 68.2829,166.698C68.0399,168.642 67.5539,170.829 67.3109,171.801C67.0679,173.259 66.5819,195.858 66.8249,199.989C66.8249,201.447 67.0679,203.391 67.3109,204.363C67.5539,205.821 68.5259,209.952 69.2549,213.111C69.4979,214.083 69.7409,216.27 69.7409,218.943C69.7409,222.588 69.7409,222.831 70.4699,224.289C70.7129,225.018 71.1989,226.233 71.1989,226.719C72.1709,229.149 72.4139,229.635 72.8999,230.607C73.1429,231.336 73.1429,231.822 73.3859,232.065C73.3859,232.065 73.6289,232.794 73.8719,233.523C74.1149,234.252 74.6009,234.981 74.6009,235.224C74.6009,235.224 74.6009,235.953 75.0869,236.682C75.3299,237.168 75.5729,237.897 75.8159,238.383C75.8159,238.869 76.0589,239.355 76.0589,239.598C76.3019,239.841 76.0589,240.084 74.8439,240.57C74.1149,240.813 73.3859,241.299 72.8999,241.299C71.9279,241.299 71.9279,241.299 70.7129,238.626C70.4699,238.14 70.2269,237.897 69.9839,237.897C69.9839,237.897 69.9839,237.654 69.9839,237.411C69.9839,237.168 68.5259,234.495 68.2829,234.495C68.2829,234.252 67.7969,233.523 67.3109,232.551C66.3389,230.607 65.8529,230.121 63.6659,228.663L63.1799,228.177L63.1799,233.28C63.1799,239.112 63.1799,239.112 60.7499,234.738C60.5069,234.009 60.2639,233.523 60.0209,233.28C59.7779,233.28 59.5349,233.037 59.5349,232.794C59.5349,232.551 58.0769,231.579 56.8619,231.093C56.8619,231.093 56.6189,231.336 56.3759,231.822C56.1329,232.308 55.6469,233.28 55.4039,233.766C54.6749,234.981 53.7029,236.925 52.4879,239.112C52.0019,240.084 51.2729,241.056 51.2729,241.542C51.0299,241.785 50.5439,242.271 50.5439,242.757C50.0579,243.486 49.8149,243.486 49.0859,242.757ZM44.2259,227.205C43.9829,226.476 43.7399,225.747 43.4969,225.504C43.4969,225.018 43.2539,220.158 43.2539,214.569C43.0109,205.335 43.0109,203.877 43.4969,202.662C43.7399,201.933 43.9829,200.961 43.9829,200.718L44.2259,199.746L44.4689,200.718C45.1979,203.148 45.4409,206.307 45.4409,213.111C45.4409,219.429 45.1979,225.747 44.7119,227.448L44.4689,228.177L44.2259,227.205ZM33.7769,221.373C33.7769,221.13 34.0199,219.915 34.2629,218.943C34.5059,217.971 34.7489,216.756 34.9919,216.513C34.9919,216.027 35.2349,214.812 35.4779,213.84C35.7209,212.868 35.9639,211.653 35.9639,211.41C35.9639,211.167 36.2069,210.438 36.4499,209.466C37.6649,206.064 38.1509,204.12 38.6369,200.718C39.8519,194.643 40.0949,193.671 40.0949,189.783C40.0949,187.839 40.0949,185.652 40.3379,185.166C40.5809,183.951 42.0389,178.605 43.2539,174.717L43.7399,173.259L43.7399,178.119C43.7399,182.007 43.7399,183.222 43.4969,185.166C43.0109,186.624 43.0109,188.082 43.0109,188.325C43.0109,188.811 42.5249,190.512 42.2819,192.456C42.0389,194.4 41.3099,197.802 41.0669,199.746C39.1229,210.438 39.3659,209.952 38.6369,211.896C38.3939,212.382 38.1509,213.597 37.9079,214.083C37.6649,214.812 37.4219,215.784 37.1789,216.513C36.6929,217.728 36.2069,218.7 34.7489,220.644C34.0199,221.13 33.7769,221.373 33.7769,221.373ZM50.7869,180.792C50.7869,173.016 50.5439,169.857 50.0579,166.941C49.8149,164.754 49.5719,162.081 49.5719,161.109C49.3289,160.137 49.0859,158.436 48.8429,157.464C48.3569,154.791 48.3569,150.903 48.8429,145.071C49.3289,142.155 49.8149,137.052 50.0579,133.407C50.3009,129.762 51.0299,124.173 51.2729,120.771C51.5159,117.126 52.0019,111.78 52.4879,108.864C52.9739,103.032 53.7029,95.0128 54.6749,85.2928C54.9179,82.3768 55.1609,79.7038 55.1609,79.2178C55.1609,78.4888 55.1609,78.4888 56.3759,78.4888L61.7219,78.4888L61.4789,77.5168C61.4789,76.5449 61.2359,76.0589 59.7779,73.1429C59.2919,72.6569 59.2919,71.9279 59.2919,71.4419L59.2919,70.7129L60.2639,71.1989C60.9929,71.4419 61.4789,71.6849 61.7219,71.6849C61.9649,71.6849 62.6939,71.6849 63.1799,71.9279C63.6659,72.1709 64.1519,72.1709 64.1519,72.1709C64.3949,71.9279 63.9089,69.7409 63.4229,69.4979C63.4229,69.2549 62.9369,69.2549 62.6939,69.2549C62.4509,69.2549 61.9649,69.0119 61.2359,68.7689C60.5069,68.2829 60.0209,68.2829 59.7779,68.2829C59.2919,68.2829 59.2919,68.2829 59.7779,64.6379L60.2639,63.4229L60.9929,63.4229C61.4789,63.6659 62.2079,63.9089 62.9369,64.1519C63.9089,64.6379 64.3949,64.6379 64.3949,64.3949C64.6379,63.6659 65.3669,61.4789 65.3669,61.2359C65.3669,60.9929 64.1519,60.7499 62.6939,60.2639L61.7219,60.0209L62.2079,58.8059C62.4509,58.0769 62.9369,57.1049 63.1799,56.6189L63.6659,55.6469L66.0959,58.0769C67.3109,59.2919 67.7969,59.7779 67.7969,60.7499C68.0399,61.2359 68.2829,62.2079 68.5259,62.6939C68.7689,63.4229 69.0119,64.1519 69.0119,64.6379C68.7689,64.8809 69.0119,65.6099 69.2549,66.0959C69.4979,67.0679 69.4979,67.3109 69.2549,68.5259C68.0399,72.1709 67.5539,73.8719 67.0679,75.8159C66.3389,78.2458 65.6099,81.1618 65.3669,82.1338C65.1239,83.1058 64.8809,83.3488 64.3949,83.1058C63.9089,82.8628 63.6659,82.6198 63.4229,82.6198C63.4229,82.6198 62.9369,82.6198 62.6939,82.3768C62.2079,81.8908 61.7219,81.8908 61.4789,81.8908C61.2359,81.8908 60.7499,81.4048 60.2639,81.1618C59.7779,80.9188 58.8059,80.4328 58.5629,80.4328C58.0769,80.1898 57.3479,79.9468 57.3479,79.7038C57.1049,79.7038 57.5909,80.1898 58.3199,80.9188C59.0489,81.6478 60.0209,82.3768 60.2639,82.6198L60.7499,83.1058L60.7499,121.5C60.5069,157.95 60.5069,160.137 60.2639,161.352C60.0209,162.081 59.5349,163.053 59.5349,163.539C59.2919,164.025 59.0489,164.754 59.0489,165.24C58.8059,165.726 58.5629,166.941 58.0769,167.913C57.8339,168.885 57.3479,170.829 56.8619,171.801C56.6189,172.773 56.1329,174.474 55.6469,175.689C55.4039,176.661 54.9179,178.119 54.6749,179.091C54.4319,179.82 53.9459,181.035 53.9459,181.521C53.7029,182.007 53.4599,182.979 53.2169,183.708C52.2449,186.624 52.0019,187.11 52.0019,188.082C51.7589,188.325 51.5159,189.297 51.2729,189.783C51.0299,190.512 51.0299,189.54 50.7869,180.792ZM43.7399,152.604C43.2539,151.632 42.5249,150.66 42.2819,150.174C41.7959,149.445 40.8239,146.043 40.5809,143.37C40.3379,142.398 40.0949,140.94 39.8519,140.211C39.6089,138.753 39.1229,132.678 39.1229,129.762C39.1229,125.874 40.0949,117.855 41.0669,111.537C42.0389,106.434 42.7679,99.1438 43.0109,97.9288C43.0109,96.4708 43.2539,95.0128 43.9829,93.5548C44.2259,92.5828 44.7119,91.6108 44.7119,91.1248C44.9549,90.3958 45.4409,89.4238 45.6839,88.9378C45.9269,88.2088 46.4129,87.4798 46.4129,87.2368C46.4129,86.9938 46.4129,88.4518 46.4129,90.6388C46.6559,92.5828 46.6559,98.6578 46.6559,104.004C46.8989,111.294 46.8989,115.182 46.6559,119.313C46.4129,122.472 46.4129,126.117 46.4129,127.575C46.4129,129.276 45.9269,133.164 45.6839,136.566C45.4409,139.968 44.9549,144.828 44.9549,147.258C44.9549,149.445 44.7119,152.118 44.7119,152.847L44.4689,154.305L43.7399,152.604ZM186.867,99.1438C186.624,98.6578 186.381,98.1718 186.381,97.9288C186.381,96.9568 184.68,94.5268 182.979,92.8258C176.904,86.7508 163.296,81.1618 146.772,78.2458C143.856,77.7598 143.37,77.7598 138.51,78.0028C125.145,78.7318 116.64,80.9188 113.238,84.0778C112.023,85.0498 110.565,86.0218 109.107,86.2648C108.135,86.5078 107.892,86.2648 105.705,83.3488C104.976,82.6198 104.247,81.8908 104.247,81.8908C103.761,81.8908 103.275,80.1898 103.032,78.7318C102.789,78.0028 102.789,75.8159 102.789,74.1149C102.789,71.4419 102.789,70.9559 103.275,69.7409C103.518,69.0119 104.49,67.5539 105.462,66.8249L106.92,65.1239L108.378,65.3669C109.35,65.6099 186.381,81.6478 186.381,81.6478C186.381,81.6478 265.112,65.3669 269.729,64.6379C270.701,64.3949 270.701,64.3949 270.944,64.8809C271.187,65.3669 271.43,65.6099 271.43,65.8529C271.43,65.8529 271.673,66.5819 271.916,67.3109L272.645,68.5259L272.645,75.0869C272.888,80.4328 272.645,81.8908 272.402,82.6198C270.944,86.5078 270.701,86.9938 269.729,88.2088C269,88.6948 268.514,89.4238 268.271,89.4238C268.271,89.4238 268.028,88.9378 267.785,88.4518C267.056,86.5078 266.327,85.7788 265.355,85.0498C264.869,84.8068 263.897,84.0778 263.168,83.3488C259.766,80.6758 255.15,78.9748 247.86,78.0028C244.701,77.5168 243.972,77.5168 238.14,77.5168C231.579,78.0028 231.579,78.0028 228.42,78.7318C216.027,81.4048 203.391,86.2648 196.587,90.8818C194.157,92.3398 190.998,95.4988 190.269,96.9568C189.783,97.9288 188.082,99.8728 187.596,99.8728C187.596,99.8728 187.353,99.3868 186.867,99.1438ZM184.923,76.5449C184.194,76.3019 90.8818,53.9459 89.6668,53.7029L87.4798,53.2169L88.9378,52.7309C89.6668,52.4879 91.3678,52.0019 92.3398,51.7589C97.4428,50.3009 161.109,31.8329 162.324,31.3469C163.296,31.1039 164.511,30.6179 164.511,30.6179C164.754,30.6179 165.24,30.6179 165.483,30.3749L166.212,30.1319L165.24,29.6459C162.324,28.1879 162.567,28.1879 160.623,28.6739C159.651,28.9169 87.7228,46.6559 86.9938,46.8989C86.0218,47.1419 84.8068,47.3849 84.3208,47.6279C82.3768,47.8709 78.9748,48.8429 76.7879,49.3289C75.8159,49.8149 74.8439,50.0579 74.6009,50.0579C74.1149,50.0579 73.3859,50.3009 70.7129,51.5159C70.2269,51.7589 69.7409,52.0019 69.7409,52.2449C69.4979,52.2449 68.7689,52.4879 68.2829,52.7309C67.5539,53.2169 67.0679,53.4599 66.8249,53.4599C66.8249,53.4599 66.3389,53.7029 65.8529,53.9459C64.1519,55.1609 63.9089,54.6749 64.8809,52.2449C65.1239,51.5159 65.6099,50.5439 65.6099,50.0579C65.8529,48.3569 66.0959,48.1139 67.0679,47.8709C67.5539,47.8709 69.0119,47.3849 70.2269,47.1419C71.4419,46.8989 73.3859,46.4129 74.3579,46.1699C75.3299,45.9269 77.0308,45.4409 78.0028,45.1979C78.7318,44.9549 79.9468,44.7119 80.6758,44.4689C81.1618,44.4689 82.6198,43.9829 83.8348,43.7399C85.7788,43.2539 88.2088,42.5249 91.1248,42.0389C92.8258,41.5529 95.2558,40.8239 97.4428,40.3379C99.3868,39.8519 101.817,39.1229 104.733,38.6369C106.434,38.1509 108.864,37.4219 111.051,36.9359C112.995,36.4499 115.425,35.7209 118.341,35.2349C121.743,34.2629 122.715,34.0199 123.93,33.5339C125.631,33.0479 125.145,33.0479 121.986,33.7769C120.771,34.0199 118.341,34.5059 116.883,34.7489C115.182,34.9919 112.752,35.4779 111.537,35.7209C110.322,35.9639 108.864,36.2069 108.135,36.4499C107.163,36.4499 105.705,36.6929 104.247,36.9359C103.032,37.1789 100.116,37.9079 98.1718,38.1509C92.3398,39.1229 89.9098,39.6089 86.9938,40.3379C85.2928,40.5809 83.5918,40.8239 82.8628,41.0669C82.1338,41.0669 80.4328,41.3099 78.9748,41.5529C77.2738,42.0389 75.0869,42.5249 73.6289,42.7679C72.4139,42.7679 69.9839,43.2539 68.5259,43.7399C66.8249,43.9829 64.8809,44.2259 64.1519,44.4689C63.4229,44.4689 61.7219,44.7119 60.5069,44.9549C57.5909,45.6839 55.8899,45.6839 53.4599,44.9549C52.4879,44.7119 51.0299,44.4689 50.5439,44.4689C50.0579,44.2259 3.40199,33.0479 2.91599,33.0479C2.187,33.0479 0.728999,32.3189 0.728999,32.0759C0.728999,32.0759 1.215,32.0759 1.701,32.0759C2.187,32.0759 171.558,0.243 173.259,0.728999C174.231,0.971998 350.891,40.5809 350.891,40.8239C350.891,40.8239 350.405,41.0669 350.162,41.0669C349.919,41.0669 185.895,77.0308 184.923,76.5449ZM181.035,31.1039C182.493,30.8609 184.68,30.6179 186.381,30.3749C188.082,30.1319 189.297,29.8889 189.54,29.8889C190.026,29.6459 192.699,26.4869 192.699,26.4869C192.699,26.2439 192.213,26.0009 191.484,25.7579C187.11,23.571 187.11,23.571 183.465,24.543C182.007,24.786 179.577,25.272 178.362,25.7579C176.904,26.0009 175.932,26.2439 175.932,26.4869C175.932,26.7299 176.175,27.2159 176.418,27.7019C176.661,28.1879 177.147,29.4029 177.633,30.1319C177.876,30.8609 178.362,31.5899 178.362,31.5899C178.605,31.5899 179.82,31.3469 181.035,31.1039Z" style="fill:rgb(206,31,39);fill-rule:nonzero;"/>
            </g>
        </g>
    </g>
</svg>
