<?xml version="1.0" standalone="no"?>
<!DOCTYPE svg PUBLIC "-//W3C//DTD SVG 1.1//EN" "http://www.w3.org/Graphics/SVG/1.1/DTD/svg11.dtd">
<svg width="286px" height="69px" version="1.1" xmlns="http://www.w3.org/2000/svg" xmlns:xlink="http://www.w3.org/1999/xlink" xml:space="preserve" style="fill-rule:evenodd;clip-rule:evenodd;stroke-miterlimit:1.41421;">
    <g>
        <g>
            <path d="M25.81,66.5467C25.81,67.9033 23.59,69 20.85,69C18.11,69 15.8867,67.9033 15.8867,66.5467C15.8867,65.19 18.11,64.0933 20.85,64.0933C23.59,64.0933 25.81,65.19 25.81,66.5467Z" style="fill:rgb(241,92,25);fill-rule:nonzero;"/>
            <path d="M46.63,55.9233C46.5867,55.7467 42.3533,38.86 42.2733,38.5333C43,38.2367 43.97,37.67 44.68,37.1967C44.85,37.9733 47.4167,55.7367 47.4167,55.7367C47.5633,56.22 46.76,56.4367 46.63,55.9233Z" style="fill:rgb(241,92,25);fill-rule:nonzero;"/>
            <path d="M10.79,35.6533C10.1833,37.8767 6.29333,48.6233 6.10333,49.28C5.91333,49.9367 5.21667,49.77 5.41333,49.1033C5.55333,48.63 9.00333,34.0733 9.32667,33.0267C9.55333,33.7267 10.08,34.6267 10.79,35.6533Z" style="fill:rgb(241,92,25);fill-rule:nonzero;"/>
            <path d="M13.63,38.4033C14.6433,39.46 15.87,40.34 17.1967,41.0867C17.6067,42.9467 21.42,66.5467 21.42,66.5467C21.56,67.2367 20.3,67.29 20.1933,66.77L13.63,38.4033Z" style="fill:rgb(241,92,25);fill-rule:nonzero;"/>
            <path d="M10.0033,29.25C9.81667,29.09 9.53,28.7833 9.49667,29.0533C10.5067,35.1067 17.7433,38.49 18.6667,39.03C20.0133,39.8133 23.7567,40.9133 27.76,40.2833C32.06,39.61 43.25,37.0833 45.9333,33.1867C46.45,32.4367 46.38,30.0667 43.8533,28.1167C41.8333,26.5533 40.5967,26.09 38.1933,24.2233C31.4867,19.0167 30.7667,1.59333 23.8667,0.419998C16.9667,-0.75 13.3467,1.02 12.2033,1.73333C11.06,2.44666 10.24,3.96333 9.95333,6.09666C9.67,8.18333 9.35,9.22667 9.33,16.9267C9.33,17.0667 9.29333,17.25 9.44667,17.3767C10.44,17.98 12.1967,18.7767 15.63,18.2733C19.26,17.74 22.09,17.3567 24.2233,17.66C25.82,17.89 33.85,21.4133 35.1367,22.5833C35.67,23.07 35.85,23.5133 35.92,23.9633C36.14,25.36 36.1867,27.63 35.2967,27.9467C33.9767,28.4167 22.0233,32.4467 17.0067,32.4767C14.7533,32.49 11.6167,31.01 10.0033,29.25Z" style="fill:rgb(241,92,25);fill-rule:nonzero;"/>
            <path d="M34.23,24.3067C34.2167,24.27 34.1667,24.02 33.7867,24.16C31.56,24.9967 20.07,28.01 17.98,28.1467C17.1667,28.17 16.68,28.2767 15.47,27.89C11.57,26.6367 1.57,17.6367 0.153333,16.2267C0.0733333,16.1533 0,16.25 0,16.3167L0,18.51C0,18.51 -0.01,18.5867 0.0533333,18.65C0.123333,18.7133 11.13,29.26 15.29,30.43C16.01,30.6333 16.1633,30.8167 18.02,30.7467C19.9133,30.6967 31.5767,27.4167 33.87,26.6533C34.17,26.5533 34.26,26.56 34.31,26.16C34.4133,25.3333 34.36,24.76 34.23,24.3067Z" style="fill:rgb(241,92,25);fill-rule:nonzero;"/>
            <path d="M50.7167,55.45C50.7167,56.4733 48.9933,57.3033 46.87,57.3033C44.7467,57.3033 43.0233,56.4733 43.0233,55.45C43.0233,54.4267 44.7467,53.6 46.87,53.6C48.9933,53.6 50.7167,54.4267 50.7167,55.45Z" style="fill:rgb(241,92,25);fill-rule:nonzero;"/>
            <path d="M8.39667,50.0333C8.39667,50.86 7.04667,51.5333 5.38,51.5333C3.71333,51.5333 2.36,50.86 2.36,50.0333C2.36,49.2033 3.71333,48.5333 5.38,48.5333C7.04667,48.5333 8.39667,49.2033 8.39667,50.0333Z" style="fill:rgb(241,92,25);fill-rule:nonzero;"/>
            <path d="M68.1733,16.2433L63.9833,16.2433L63.9833,30.69L68.1733,30.69C72.6333,30.69 75.5467,27.6867 75.5467,23.4967C75.5467,19.31 72.6333,16.2433 68.1733,16.2433ZM68.1733,34.09L60.25,34.09L60.25,12.8433L68.1733,12.8433C74.85,12.8433 79.4633,17.4267 79.4633,23.4367C79.4633,29.4467 74.85,34.09 68.1733,34.09Z" style="fill:rgb(241,92,25);fill-rule:nonzero;"/>
            <path d="M88.3633,22.66C85.8033,22.66 84.1667,24.6667 84.1667,27.12C84.1667,29.6033 85.9367,31.6333 88.4167,31.6333C91.0033,31.6333 92.64,29.6267 92.64,27.1733C92.64,24.6933 90.8733,22.66 88.3633,22.66ZM88.3633,34.4067C84.1133,34.4067 80.9733,31.16 80.9733,27.1733C80.9733,23.16 84.14,19.86 88.4167,19.86C92.6933,19.86 95.8367,23.1067 95.8367,27.12C95.8367,31.1067 92.6667,34.4067 88.3633,34.4067Z" style="fill:rgb(241,92,25);fill-rule:nonzero;"/>
            <path d="M100.957,34.09L97.7633,34.09L97.7633,20.15L100.957,20.15L100.957,22.3167C101.857,20.9967 103.15,19.86 105.313,19.86C108.457,19.86 110.277,21.9733 110.277,25.22L110.277,34.09L107.083,34.09L107.083,26.17C107.083,24.0067 106,22.7633 104.1,22.7633C102.25,22.7633 100.957,24.0567 100.957,26.2233L100.957,34.09Z" style="fill:rgb(241,92,25);fill-rule:nonzero;"/>
            <path d="M119.437,22.66C116.877,22.66 115.24,24.6667 115.24,27.12C115.24,29.6033 117.01,31.6333 119.49,31.6333C122.077,31.6333 123.713,29.6267 123.713,27.1733C123.713,24.6933 121.947,22.66 119.437,22.66ZM119.437,34.4067C115.187,34.4067 112.047,31.16 112.047,27.1733C112.047,23.16 115.213,19.86 119.49,19.86C123.767,19.86 126.91,23.1067 126.91,27.12C126.91,31.1067 123.74,34.4067 119.437,34.4067Z" style="fill:rgb(241,92,25);fill-rule:nonzero;"/>
            <path d="M132.03,34.09L128.837,34.09L128.837,20.15L132.03,20.15L132.03,23.2933C132.9,21.2067 134.513,19.7833 136.967,19.8867L136.967,23.2667L136.783,23.2667C133.983,23.2667 132.03,25.0867 132.03,28.7833L132.03,34.09Z" style="fill:rgb(241,92,25);fill-rule:nonzero;"/>
            <path d="M143.2,34.3533C141.22,34.3533 139.027,33.64 137.287,32.2667L138.71,30.1033C140.217,31.24 141.853,31.82 143.277,31.82C144.65,31.82 145.443,31.24 145.443,30.3133L145.443,30.2633C145.443,29.18 143.963,28.81 142.327,28.3067C140.27,27.7267 137.97,26.8833 137.97,24.2167L137.97,24.1633C137.97,21.5233 140.163,19.9133 142.933,19.9133C144.677,19.9133 146.577,20.52 148.057,21.4967L146.787,23.7667C145.443,22.95 144.017,22.4467 142.853,22.4467C141.613,22.4467 140.9,23.03 140.9,23.8467L140.9,23.9C140.9,24.9033 142.407,25.3267 144.043,25.8533C146.077,26.4867 148.373,27.41 148.373,29.92L148.373,29.97C148.373,32.9 146.1,34.3533 143.2,34.3533Z" style="fill:rgb(241,92,25);fill-rule:nonzero;"/>
            <path d="M164.85,34.4533C158.657,34.4533 154.043,29.6267 154.043,23.4967C154.043,17.4267 158.567,12.48 165,12.48C168.917,12.48 171.283,13.8467 173.317,15.79L170.92,18.55C169.22,16.9733 167.4,15.91 164.97,15.91C160.903,15.91 157.96,19.25 157.96,23.4367C157.96,27.6267 160.903,31.0233 164.97,31.0233C167.58,31.0233 169.25,29.9633 171.07,28.2633L173.47,30.69C171.253,32.9967 168.827,34.4533 164.85,34.4533Z" style="fill:rgb(241,92,25);fill-rule:nonzero;"/>
            <path d="M178.33,34.09L175.137,34.09L175.137,14.82L178.33,14.82L178.33,22.3167C179.23,20.9967 180.523,19.86 182.687,19.86C185.83,19.86 187.65,21.9733 187.65,25.22L187.65,34.09L184.457,34.09L184.457,26.17C184.457,24.0067 183.373,22.7633 181.473,22.7633C179.627,22.7633 178.33,24.0567 178.33,26.2233L178.33,34.09Z" style="fill:rgb(241,92,25);fill-rule:nonzero;"/>
            <path d="M196.81,22.66C194.25,22.66 192.613,24.6667 192.613,27.12C192.613,29.6033 194.383,31.6333 196.863,31.6333C199.45,31.6333 201.087,29.6267 201.087,27.1733C201.087,24.6933 199.32,22.66 196.81,22.66ZM196.81,34.4067C192.56,34.4067 189.42,31.16 189.42,27.1733C189.42,23.16 192.587,19.86 196.863,19.86C201.14,19.86 204.283,23.1067 204.283,27.12C204.283,31.1067 201.113,34.4067 196.81,34.4067Z" style="fill:rgb(241,92,25);fill-rule:nonzero;"/>
            <path d="M212.837,22.66C210.277,22.66 208.64,24.6667 208.64,27.12C208.64,29.6033 210.41,31.6333 212.89,31.6333C215.477,31.6333 217.113,29.6267 217.113,27.1733C217.113,24.6933 215.343,22.66 212.837,22.66ZM212.837,34.4067C208.587,34.4067 205.447,31.16 205.447,27.1733C205.447,23.16 208.613,19.86 212.89,19.86C217.167,19.86 220.307,23.1067 220.307,27.12C220.307,31.1067 217.14,34.4067 212.837,34.4067Z" style="fill:rgb(241,92,25);fill-rule:nonzero;"/>
            <path d="M227.013,34.3533C225.033,34.3533 222.843,33.64 221.1,32.2667L222.527,30.1033C224.03,31.24 225.667,31.82 227.093,31.82C228.467,31.82 229.257,31.24 229.257,30.3133L229.257,30.2633C229.257,29.18 227.78,28.81 226.143,28.3067C224.083,27.7267 221.787,26.8833 221.787,24.2167L221.787,24.1633C221.787,21.5233 223.977,19.9133 226.75,19.9133C228.493,19.9133 230.393,20.52 231.87,21.4967L230.603,23.7667C229.257,22.95 227.83,22.4467 226.67,22.4467C225.43,22.4467 224.717,23.03 224.717,23.8467L224.717,23.9C224.717,24.9033 226.22,25.3267 227.86,25.8533C229.89,26.4867 232.187,27.41 232.187,29.92L232.187,29.97C232.187,32.9 229.917,34.3533 227.013,34.3533Z" style="fill:rgb(241,92,25);fill-rule:nonzero;"/>
            <path d="M243.673,26.1433C243.46,24.0833 242.247,22.4733 240.133,22.4733C238.18,22.4733 236.81,23.98 236.52,26.1433L243.673,26.1433ZM240.557,31.7933C242.117,31.7933 243.223,31.2133 244.33,30.13L246.207,31.7933C244.887,33.3767 243.067,34.4067 240.503,34.4067C236.467,34.4067 233.35,31.4767 233.35,27.1467C233.35,23.1333 236.177,19.86 240.163,19.86C244.597,19.86 246.84,23.3467 246.84,27.3833C246.84,27.6733 246.813,27.94 246.787,28.2567L236.543,28.2567C236.917,30.5267 238.5,31.7933 240.557,31.7933Z" style="fill:rgb(241,92,25);fill-rule:nonzero;"/>
            <rect x="249.453" y="31.2733" width="2.73334" height="2.81667" style="fill:rgb(241,92,25);fill-rule:nonzero;"/>
            <path d="M259.89,25.19C257.9,25.19 256.623,26.7533 256.623,28.6633C256.623,30.5967 258,32.1767 259.933,32.1767C261.947,32.1767 263.22,30.6167 263.22,28.7033C263.22,26.7733 261.843,25.19 259.89,25.19ZM259.89,34.3367C256.583,34.3367 254.137,31.8067 254.137,28.7033C254.137,25.58 256.603,23.01 259.933,23.01C263.263,23.01 265.71,25.54 265.71,28.6633C265.71,31.7667 263.243,34.3367 259.89,34.3367Z" style="fill:rgb(241,92,25);fill-rule:nonzero;"/>
            <path d="M269.69,34.09L267.207,34.09L267.207,23.2367L269.69,23.2367L269.69,25.6833C270.37,24.06 271.623,22.95 273.537,23.0333L273.537,25.6633L273.39,25.6633C271.213,25.6633 269.69,27.08 269.69,29.9567L269.69,34.09Z" style="fill:rgb(241,92,25);fill-rule:nonzero;"/>
            <path d="M279.387,25.1067C277.66,25.1067 276.303,26.3 276.303,28.11C276.303,29.9167 277.68,31.13 279.387,31.13C281.113,31.13 282.573,29.9167 282.573,28.13C282.573,26.3 281.113,25.1067 279.387,25.1067ZM279.183,37.42C277.393,37.42 275.73,36.9667 274.33,36.1233L275.257,34.2533C276.407,34.9733 277.64,35.4033 279.12,35.4033C281.34,35.4033 282.553,34.2533 282.553,32.0767L282.553,31.2333C281.65,32.4033 280.52,33.2267 278.73,33.2267C276.18,33.2267 273.797,31.3567 273.797,28.13C273.797,24.9033 276.203,23.01 278.73,23.01C280.56,23.01 281.69,23.8533 282.533,24.86L282.533,23.2367L285.02,23.2367L285.02,31.87C285.02,35.7133 282.923,37.42 279.183,37.42Z" style="fill:rgb(241,92,25);fill-rule:nonzero;"/>
            <path d="M66.2067,53.72L64.7233,53.72L64.7233,42.1067L60.37,42.1067L60.37,40.7533L70.56,40.7533L70.56,42.1067L66.2067,42.1067L66.2067,53.72Z" style="fill:rgb(106,107,109);fill-rule:nonzero;"/>
            <path d="M66.2067,53.72L64.7233,53.72L64.7233,42.1067L60.37,42.1067L60.37,40.7533L70.56,40.7533L70.56,42.1067L66.2067,42.1067L66.2067,53.72Z" style="fill:none;stroke-width:0.25px;stroke:rgb(106,107,109);"/>
            <path d="M78.2233,48.4033C78.0767,46.6633 77.0767,45.1433 75.1667,45.1433C73.5,45.1433 72.24,46.5333 72.0567,48.4033L78.2233,48.4033ZM75.4267,52.7033C76.7433,52.7033 77.67,52.1667 78.4467,51.35L79.3367,52.1467C78.3733,53.22 77.2067,53.9433 75.39,53.9433C72.76,53.9433 70.61,51.9233 70.61,48.9433C70.61,46.1633 72.5567,43.94 75.2033,43.94C78.04,43.94 79.67,46.2 79.67,49.0167C79.67,49.1467 79.67,49.2933 79.65,49.46L72.0567,49.46C72.26,51.5367 73.74,52.7033 75.4267,52.7033Z" style="fill:rgb(106,107,109);fill-rule:nonzero;"/>
            <path d="M78.2233,48.4033C78.0767,46.6633 77.0767,45.1433 75.1667,45.1433C73.5,45.1433 72.24,46.5333 72.0567,48.4033L78.2233,48.4033ZM75.4267,52.7033C76.7433,52.7033 77.67,52.1667 78.4467,51.35L79.3367,52.1467C78.3733,53.22 77.2067,53.9433 75.39,53.9433C72.76,53.9433 70.61,51.9233 70.61,48.9433C70.61,46.1633 72.5567,43.94 75.2033,43.94C78.04,43.94 79.67,46.2 79.67,49.0167C79.67,49.1467 79.67,49.2933 79.65,49.46L72.0567,49.46C72.26,51.5367 73.74,52.7033 75.4267,52.7033Z" style="fill:none;stroke-width:0.25px;stroke:rgb(106,107,109);"/>
            <path d="M82.4267,50.87C82.4267,52.09 83.5367,52.7967 84.8333,52.7967C86.5933,52.7967 88.04,51.72 88.04,50.2033L88.04,49.2767C87.3333,49.0733 86.39,48.8667 85.2233,48.8667C83.4267,48.8667 82.4267,49.6467 82.4267,50.87ZM82.26,45.9767L81.8333,44.81C82.89,44.33 83.9267,44.0133 85.3167,44.0133C87.9267,44.0133 89.39,45.35 89.39,47.8667L89.39,53.72L88.02,53.72L88.02,52.2767C87.3533,53.1467 86.24,53.9267 84.5567,53.9267C82.7767,53.9267 80.98,52.9233 80.98,50.9233C80.98,48.8867 82.6467,47.8133 85.0733,47.8133C86.2967,47.8133 87.1667,47.98 88.02,48.22L88.02,47.8867C88.02,46.1633 86.9633,45.2733 85.1667,45.2733C84.0367,45.2733 83.1467,45.57 82.26,45.9767Z" style="fill:rgb(106,107,109);fill-rule:nonzero;"/>
            <path d="M82.4267,50.87C82.4267,52.09 83.5367,52.7967 84.8333,52.7967C86.5933,52.7967 88.04,51.72 88.04,50.2033L88.04,49.2767C87.3333,49.0733 86.39,48.8667 85.2233,48.8667C83.4267,48.8667 82.4267,49.6467 82.4267,50.87ZM82.26,45.9767L81.8333,44.81C82.89,44.33 83.9267,44.0133 85.3167,44.0133C87.9267,44.0133 89.39,45.35 89.39,47.8667L89.39,53.72L88.02,53.72L88.02,52.2767C87.3533,53.1467 86.24,53.9267 84.5567,53.9267C82.7767,53.9267 80.98,52.9233 80.98,50.9233C80.98,48.8867 82.6467,47.8133 85.0733,47.8133C86.2967,47.8133 87.1667,47.98 88.02,48.22L88.02,47.8867C88.02,46.1633 86.9633,45.2733 85.1667,45.2733C84.0367,45.2733 83.1467,45.57 82.26,45.9767Z" style="fill:none;stroke-width:0.25px;stroke:rgb(106,107,109);"/>
            <path d="M96.28,53.9433C93.4833,53.9433 91.37,51.6633 91.37,48.96C91.37,46.2367 93.4833,43.94 96.28,43.94C98.0933,43.94 99.2233,44.7 100.113,45.6467L99.1667,46.6467C98.41,45.85 97.5567,45.2 96.26,45.2C94.3167,45.2 92.8333,46.85 92.8333,48.9233C92.8333,51.0167 94.3533,52.6667 96.3533,52.6667C97.5767,52.6667 98.52,52.0533 99.28,51.24L100.187,52.09C99.2233,53.1667 98.0767,53.9433 96.28,53.9433Z" style="fill:rgb(106,107,109);fill-rule:nonzero;"/>
            <path d="M96.28,53.9433C93.4833,53.9433 91.37,51.6633 91.37,48.96C91.37,46.2367 93.4833,43.94 96.28,43.94C98.0933,43.94 99.2233,44.7 100.113,45.6467L99.1667,46.6467C98.41,45.85 97.5567,45.2 96.26,45.2C94.3167,45.2 92.8333,46.85 92.8333,48.9233C92.8333,51.0167 94.3533,52.6667 96.3533,52.6667C97.5767,52.6667 98.52,52.0533 99.28,51.24L100.187,52.09C99.2233,53.1667 98.0767,53.9433 96.28,53.9433Z" style="fill:none;stroke-width:0.25px;stroke:rgb(106,107,109);"/>
            <path d="M103.5,53.72L102.073,53.72L102.073,40.2L103.5,40.2L103.5,45.81C104.13,44.7733 105.13,43.94 106.78,43.94C109.093,43.94 110.447,45.4967 110.447,47.7767L110.447,53.72L109.02,53.72L109.02,48.1267C109.02,46.35 108.057,45.2367 106.37,45.2367C104.723,45.2367 103.5,46.44 103.5,48.2367L103.5,53.72Z" style="fill:rgb(106,107,109);fill-rule:nonzero;"/>
            <path d="M103.5,53.72L102.073,53.72L102.073,40.2L103.5,40.2L103.5,45.81C104.13,44.7733 105.13,43.94 106.78,43.94C109.093,43.94 110.447,45.4967 110.447,47.7767L110.447,53.72L109.02,53.72L109.02,48.1267C109.02,46.35 108.057,45.2367 106.37,45.2367C104.723,45.2367 103.5,46.44 103.5,48.2367L103.5,53.72Z" style="fill:none;stroke-width:0.25px;stroke:rgb(106,107,109);"/>
            <path d="M120.04,48.4033C119.89,46.6633 118.89,45.1433 116.98,45.1433C115.313,45.1433 114.057,46.5333 113.87,48.4033L120.04,48.4033ZM117.24,52.7033C118.557,52.7033 119.483,52.1667 120.26,51.35L121.15,52.1467C120.187,53.22 119.02,53.9433 117.203,53.9433C114.573,53.9433 112.427,51.9233 112.427,48.9433C112.427,46.1633 114.37,43.94 117.02,43.94C119.853,43.94 121.483,46.2 121.483,49.0167C121.483,49.1467 121.483,49.2933 121.463,49.46L113.87,49.46C114.073,51.5367 115.557,52.7033 117.24,52.7033Z" style="fill:rgb(106,107,109);fill-rule:nonzero;"/>
            <path d="M120.04,48.4033C119.89,46.6633 118.89,45.1433 116.98,45.1433C115.313,45.1433 114.057,46.5333 113.87,48.4033L120.04,48.4033ZM117.24,52.7033C118.557,52.7033 119.483,52.1667 120.26,51.35L121.15,52.1467C120.187,53.22 119.02,53.9433 117.203,53.9433C114.573,53.9433 112.427,51.9233 112.427,48.9433C112.427,46.1633 114.37,43.94 117.02,43.94C119.853,43.94 121.483,46.2 121.483,49.0167C121.483,49.1467 121.483,49.2933 121.463,49.46L113.87,49.46C114.073,51.5367 115.557,52.7033 117.24,52.7033Z" style="fill:none;stroke-width:0.25px;stroke:rgb(106,107,109);"/>
            <path d="M124.943,53.72L123.517,53.72L123.517,44.1433L124.943,44.1433L124.943,46.6467C125.647,45.0533 127.037,43.9033 128.853,43.9767L128.853,45.5167L128.74,45.5167C126.647,45.5167 124.943,47.0167 124.943,49.9033L124.943,53.72Z" style="fill:rgb(106,107,109);fill-rule:nonzero;"/>
            <path d="M124.943,53.72L123.517,53.72L123.517,44.1433L124.943,44.1433L124.943,46.6467C125.647,45.0533 127.037,43.9033 128.853,43.9767L128.853,45.5167L128.74,45.5167C126.647,45.5167 124.943,47.0167 124.943,49.9033L124.943,53.72Z" style="fill:none;stroke-width:0.25px;stroke:rgb(106,107,109);"/>
            <path d="M133.723,53.9067C132.35,53.9067 130.833,53.37 129.757,52.5L130.48,51.48C131.517,52.2567 132.667,52.7033 133.797,52.7033C134.943,52.7033 135.78,52.11 135.78,51.1833L135.78,51.1467C135.78,50.1833 134.65,49.8133 133.39,49.46C131.89,49.0333 130.22,48.5167 130.22,46.7567L130.22,46.72C130.22,45.07 131.59,43.9767 133.48,43.9767C134.65,43.9767 135.943,44.3867 136.927,45.0333L136.28,46.1067C135.39,45.5333 134.37,45.18 133.443,45.18C132.313,45.18 131.59,45.7733 131.59,46.57L131.59,46.6067C131.59,47.5167 132.777,47.8667 134.057,48.2567C135.537,48.7 137.13,49.2767 137.13,51L137.13,51.0367C137.13,52.85 135.63,53.9067 133.723,53.9067Z" style="fill:rgb(106,107,109);fill-rule:nonzero;"/>
            <path d="M133.723,53.9067C132.35,53.9067 130.833,53.37 129.757,52.5L130.48,51.48C131.517,52.2567 132.667,52.7033 133.797,52.7033C134.943,52.7033 135.78,52.11 135.78,51.1833L135.78,51.1467C135.78,50.1833 134.65,49.8133 133.39,49.46C131.89,49.0333 130.22,48.5167 130.22,46.7567L130.22,46.72C130.22,45.07 131.59,43.9767 133.48,43.9767C134.65,43.9767 135.943,44.3867 136.927,45.0333L136.28,46.1067C135.39,45.5333 134.37,45.18 133.443,45.18C132.313,45.18 131.59,45.7733 131.59,46.57L131.59,46.6067C131.59,47.5167 132.777,47.8667 134.057,48.2567C135.537,48.7 137.13,49.2767 137.13,51L137.13,51.0367C137.13,52.85 135.63,53.9067 133.723,53.9067Z" style="fill:none;stroke-width:0.25px;stroke:rgb(106,107,109);"/>
            <path d="M145.13,50.87C145.13,52.09 146.24,52.7967 147.537,52.7967C149.297,52.7967 150.74,51.72 150.74,50.2033L150.74,49.2767C150.037,49.0733 149.09,48.8667 147.927,48.8667C146.13,48.8667 145.13,49.6467 145.13,50.87ZM144.96,45.9767L144.537,44.81C145.59,44.33 146.63,44.0133 148.02,44.0133C150.63,44.0133 152.093,45.35 152.093,47.8667L152.093,53.72L150.723,53.72L150.723,52.2767C150.053,53.1467 148.943,53.9267 147.26,53.9267C145.48,53.9267 143.683,52.9233 143.683,50.9233C143.683,48.8867 145.35,47.8133 147.777,47.8133C149,47.8133 149.87,47.98 150.723,48.22L150.723,47.8867C150.723,46.1633 149.667,45.2733 147.87,45.2733C146.74,45.2733 145.85,45.57 144.96,45.9767Z" style="fill:rgb(106,107,109);fill-rule:nonzero;"/>
            <path d="M145.13,50.87C145.13,52.09 146.24,52.7967 147.537,52.7967C149.297,52.7967 150.74,51.72 150.74,50.2033L150.74,49.2767C150.037,49.0733 149.09,48.8667 147.927,48.8667C146.13,48.8667 145.13,49.6467 145.13,50.87ZM144.96,45.9767L144.537,44.81C145.59,44.33 146.63,44.0133 148.02,44.0133C150.63,44.0133 152.093,45.35 152.093,47.8667L152.093,53.72L150.723,53.72L150.723,52.2767C150.053,53.1467 148.943,53.9267 147.26,53.9267C145.48,53.9267 143.683,52.9233 143.683,50.9233C143.683,48.8867 145.35,47.8133 147.777,47.8133C149,47.8133 149.87,47.98 150.723,48.22L150.723,47.8867C150.723,46.1633 149.667,45.2733 147.87,45.2733C146.74,45.2733 145.85,45.57 144.96,45.9767Z" style="fill:none;stroke-width:0.25px;stroke:rgb(106,107,109);"/>
            <path d="M157.83,53.9067C156.46,53.9067 154.943,53.37 153.87,52.5L154.59,51.48C155.63,52.2567 156.777,52.7033 157.907,52.7033C159.053,52.7033 159.89,52.11 159.89,51.1833L159.89,51.1467C159.89,50.1833 158.757,49.8133 157.5,49.46C156,49.0333 154.33,48.5167 154.33,46.7567L154.33,46.72C154.33,45.07 155.703,43.9767 157.59,43.9767C158.757,43.9767 160.053,44.3867 161.037,45.0333L160.39,46.1067C159.5,45.5333 158.48,45.18 157.553,45.18C156.423,45.18 155.703,45.7733 155.703,46.57L155.703,46.6067C155.703,47.5167 156.89,47.8667 158.167,48.2567C159.65,48.7 161.24,49.2767 161.24,51L161.24,51.0367C161.24,52.85 159.74,53.9067 157.83,53.9067Z" style="fill:rgb(106,107,109);fill-rule:nonzero;"/>
            <path d="M157.83,53.9067C156.46,53.9067 154.943,53.37 153.87,52.5L154.59,51.48C155.63,52.2567 156.777,52.7033 157.907,52.7033C159.053,52.7033 159.89,52.11 159.89,51.1833L159.89,51.1467C159.89,50.1833 158.757,49.8133 157.5,49.46C156,49.0333 154.33,48.5167 154.33,46.7567L154.33,46.72C154.33,45.07 155.703,43.9767 157.59,43.9767C158.757,43.9767 160.053,44.3867 161.037,45.0333L160.39,46.1067C159.5,45.5333 158.48,45.18 157.553,45.18C156.423,45.18 155.703,45.7733 155.703,46.57L155.703,46.6067C155.703,47.5167 156.89,47.8667 158.167,48.2567C159.65,48.7 161.24,49.2767 161.24,51L161.24,51.0367C161.24,52.85 159.74,53.9067 157.83,53.9067Z" style="fill:none;stroke-width:0.25px;stroke:rgb(106,107,109);"/>
            <path d="M171.927,53.72L170.223,53.72L166.793,49.2567L164.85,51.22L164.85,53.72L163.423,53.72L163.423,40.2L164.85,40.2L164.85,49.5333L170.017,44.1433L171.797,44.1433L167.777,48.2567L171.927,53.72Z" style="fill:rgb(106,107,109);fill-rule:nonzero;"/>
            <path d="M171.927,53.72L170.223,53.72L166.793,49.2567L164.85,51.22L164.85,53.72L163.423,53.72L163.423,40.2L164.85,40.2L164.85,49.5333L170.017,44.1433L171.797,44.1433L167.777,48.2567L171.927,53.72Z" style="fill:none;stroke-width:0.25px;stroke:rgb(106,107,109);"/>
            <rect x="173.33" y="51.7767" width="1.70667" height="1.94333" style="fill:rgb(106,107,109);fill-rule:nonzero;"/>
            <rect x="173.33" y="51.7767" width="1.70667" height="1.94333" style="fill:none;stroke-width:0.25px;stroke:rgb(106,107,109);"/>
            <path d="M187.053,53.72L185.573,53.72L185.573,48.59L180.18,40.7533L181.96,40.7533L186.33,47.2367L190.74,40.7533L192.443,40.7533L187.053,48.5733L187.053,53.72Z" style="fill:rgb(106,107,109);fill-rule:nonzero;"/>
            <path d="M187.053,53.72L185.573,53.72L185.573,48.59L180.18,40.7533L181.96,40.7533L186.33,47.2367L190.74,40.7533L192.443,40.7533L187.053,48.5733L187.053,53.72Z" style="fill:none;stroke-width:0.25px;stroke:rgb(106,107,109);"/>
            <path d="M197.053,45.2C194.98,45.2 193.553,46.85 193.553,48.9233C193.553,51 195.07,52.6667 197.09,52.6667C199.163,52.6667 200.61,51.0167 200.61,48.96C200.61,46.8667 199.073,45.2 197.053,45.2ZM197.053,53.9433C194.18,53.9433 192.087,51.6833 192.087,48.96C192.087,46.2367 194.2,43.94 197.09,43.94C199.96,43.94 202.073,46.2 202.073,48.9233C202.073,51.6467 199.943,53.9433 197.053,53.9433Z" style="fill:rgb(106,107,109);fill-rule:nonzero;"/>
            <path d="M197.053,45.2C194.98,45.2 193.553,46.85 193.553,48.9233C193.553,51 195.07,52.6667 197.09,52.6667C199.163,52.6667 200.61,51.0167 200.61,48.96C200.61,46.8667 199.073,45.2 197.053,45.2ZM197.053,53.9433C194.18,53.9433 192.087,51.6833 192.087,48.96C192.087,46.2367 194.2,43.94 197.09,43.94C199.96,43.94 202.073,46.2 202.073,48.9233C202.073,51.6467 199.943,53.9433 197.053,53.9433Z" style="fill:none;stroke-width:0.25px;stroke:rgb(106,107,109);"/>
            <path d="M210.98,44.1433L212.387,44.1433L212.387,53.72L210.98,53.72L210.98,52.0533C210.33,53.09 209.35,53.9267 207.7,53.9267C205.383,53.9267 204.033,52.37 204.033,50.09L204.033,44.1433L205.46,44.1433L205.46,49.74C205.46,51.5167 206.423,52.63 208.11,52.63C209.74,52.63 210.98,51.4233 210.98,49.6267L210.98,44.1433Z" style="fill:rgb(106,107,109);fill-rule:nonzero;"/>
            <path d="M210.98,44.1433L212.387,44.1433L212.387,53.72L210.98,53.72L210.98,52.0533C210.33,53.09 209.35,53.9267 207.7,53.9267C205.383,53.9267 204.033,52.37 204.033,50.09L204.033,44.1433L205.46,44.1433L205.46,49.74C205.46,51.5167 206.423,52.63 208.11,52.63C209.74,52.63 210.98,51.4233 210.98,49.6267L210.98,44.1433Z" style="fill:none;stroke-width:0.25px;stroke:rgb(106,107,109);"/>
            <path d="M224.533,53.9433C221.737,53.9433 219.623,51.6633 219.623,48.96C219.623,46.2367 221.737,43.94 224.533,43.94C226.35,43.94 227.48,44.7 228.37,45.6467L227.423,46.6467C226.663,45.85 225.813,45.2 224.517,45.2C222.57,45.2 221.087,46.85 221.087,48.9233C221.087,51.0167 222.607,52.6667 224.607,52.6667C225.83,52.6667 226.777,52.0533 227.537,51.24L228.44,52.09C227.48,53.1667 226.33,53.9433 224.533,53.9433Z" style="fill:rgb(106,107,109);fill-rule:nonzero;"/>
            <path d="M224.533,53.9433C221.737,53.9433 219.623,51.6633 219.623,48.96C219.623,46.2367 221.737,43.94 224.533,43.94C226.35,43.94 227.48,44.7 228.37,45.6467L227.423,46.6467C226.663,45.85 225.813,45.2 224.517,45.2C222.57,45.2 221.087,46.85 221.087,48.9233C221.087,51.0167 222.607,52.6667 224.607,52.6667C225.83,52.6667 226.777,52.0533 227.537,51.24L228.44,52.09C227.48,53.1667 226.33,53.9433 224.533,53.9433Z" style="fill:none;stroke-width:0.25px;stroke:rgb(106,107,109);"/>
            <path d="M231.757,53.72L230.33,53.72L230.33,40.2L231.757,40.2L231.757,45.81C232.383,44.7733 233.383,43.94 235.033,43.94C237.35,43.94 238.7,45.4967 238.7,47.7767L238.7,53.72L237.277,53.72L237.277,48.1267C237.277,46.35 236.313,45.2367 234.627,45.2367C232.98,45.2367 231.757,46.44 231.757,48.2367L231.757,53.72Z" style="fill:rgb(106,107,109);fill-rule:nonzero;"/>
            <path d="M231.757,53.72L230.33,53.72L230.33,40.2L231.757,40.2L231.757,45.81C232.383,44.7733 233.383,43.94 235.033,43.94C237.35,43.94 238.7,45.4967 238.7,47.7767L238.7,53.72L237.277,53.72L237.277,48.1267C237.277,46.35 236.313,45.2367 234.627,45.2367C232.98,45.2367 231.757,46.44 231.757,48.2367L231.757,53.72Z" style="fill:none;stroke-width:0.25px;stroke:rgb(106,107,109);"/>
            <path d="M245.643,45.2C243.57,45.2 242.143,46.85 242.143,48.9233C242.143,51 243.663,52.6667 245.68,52.6667C247.757,52.6667 249.2,51.0167 249.2,48.96C249.2,46.8667 247.663,45.2 245.643,45.2ZM245.643,53.9433C242.773,53.9433 240.68,51.6833 240.68,48.96C240.68,46.2367 242.793,43.94 245.68,43.94C248.553,43.94 250.663,46.2 250.663,48.9233C250.663,51.6467 248.537,53.9433 245.643,53.9433Z" style="fill:rgb(106,107,109);fill-rule:nonzero;"/>
            <path d="M245.643,45.2C243.57,45.2 242.143,46.85 242.143,48.9233C242.143,51 243.663,52.6667 245.68,52.6667C247.757,52.6667 249.2,51.0167 249.2,48.96C249.2,46.8667 247.663,45.2 245.643,45.2ZM245.643,53.9433C242.773,53.9433 240.68,51.6833 240.68,48.96C240.68,46.2367 242.793,43.94 245.68,43.94C248.553,43.94 250.663,46.2 250.663,48.9233C250.663,51.6467 248.537,53.9433 245.643,53.9433Z" style="fill:none;stroke-width:0.25px;stroke:rgb(106,107,109);"/>
            <path d="M257.143,45.2C255.07,45.2 253.643,46.85 253.643,48.9233C253.643,51 255.163,52.6667 257.18,52.6667C259.257,52.6667 260.7,51.0167 260.7,48.96C260.7,46.8667 259.163,45.2 257.143,45.2ZM257.143,53.9433C254.273,53.9433 252.18,51.6833 252.18,48.96C252.18,46.2367 254.293,43.94 257.18,43.94C260.053,43.94 262.163,46.2 262.163,48.9233C262.163,51.6467 260.037,53.9433 257.143,53.9433Z" style="fill:rgb(106,107,109);fill-rule:nonzero;"/>
            <path d="M257.143,45.2C255.07,45.2 253.643,46.85 253.643,48.9233C253.643,51 255.163,52.6667 257.18,52.6667C259.257,52.6667 260.7,51.0167 260.7,48.96C260.7,46.8667 259.163,45.2 257.143,45.2ZM257.143,53.9433C254.273,53.9433 252.18,51.6833 252.18,48.96C252.18,46.2367 254.293,43.94 257.18,43.94C260.053,43.94 262.163,46.2 262.163,48.9233C262.163,51.6467 260.037,53.9433 257.143,53.9433Z" style="fill:none;stroke-width:0.25px;stroke:rgb(106,107,109);"/>
            <path d="M267.44,53.9067C266.07,53.9067 264.55,53.37 263.477,52.5L264.197,51.48C265.237,52.2567 266.383,52.7033 267.513,52.7033C268.663,52.7033 269.497,52.11 269.497,51.1833L269.497,51.1467C269.497,50.1833 268.367,49.8133 267.107,49.46C265.607,49.0333 263.94,48.5167 263.94,46.7567L263.94,46.72C263.94,45.07 265.31,43.9767 267.2,43.9767C268.367,43.9767 269.663,44.3867 270.643,45.0333L269.997,46.1067C269.107,45.5333 268.087,45.18 267.163,45.18C266.03,45.18 265.31,45.7733 265.31,46.57L265.31,46.6067C265.31,47.5167 266.497,47.8667 267.773,48.2567C269.257,48.7 270.847,49.2767 270.847,51L270.847,51.0367C270.847,52.85 269.347,53.9067 267.44,53.9067Z" style="fill:rgb(106,107,109);fill-rule:nonzero;"/>
            <path d="M267.44,53.9067C266.07,53.9067 264.55,53.37 263.477,52.5L264.197,51.48C265.237,52.2567 266.383,52.7033 267.513,52.7033C268.663,52.7033 269.497,52.11 269.497,51.1833L269.497,51.1467C269.497,50.1833 268.367,49.8133 267.107,49.46C265.607,49.0333 263.94,48.5167 263.94,46.7567L263.94,46.72C263.94,45.07 265.31,43.9767 267.2,43.9767C268.367,43.9767 269.663,44.3867 270.643,45.0333L269.997,46.1067C269.107,45.5333 268.087,45.18 267.163,45.18C266.03,45.18 265.31,45.7733 265.31,46.57L265.31,46.6067C265.31,47.5167 266.497,47.8667 267.773,48.2567C269.257,48.7 270.847,49.2767 270.847,51L270.847,51.0367C270.847,52.85 269.347,53.9067 267.44,53.9067Z" style="fill:none;stroke-width:0.25px;stroke:rgb(106,107,109);"/>
            <path d="M280.05,48.4033C279.903,46.6633 278.903,45.1433 276.997,45.1433C275.327,45.1433 274.07,46.5333 273.883,48.4033L280.05,48.4033ZM277.253,52.7033C278.57,52.7033 279.497,52.1667 280.273,51.35L281.163,52.1467C280.2,53.22 279.033,53.9433 277.217,53.9433C274.587,53.9433 272.437,51.9233 272.437,48.9433C272.437,46.1633 274.383,43.94 277.033,43.94C279.867,43.94 281.497,46.2 281.497,49.0167C281.497,49.1467 281.497,49.2933 281.48,49.46L273.883,49.46C274.087,51.5367 275.57,52.7033 277.253,52.7033Z" style="fill:rgb(106,107,109);fill-rule:nonzero;"/>
            <path d="M280.05,48.4033C279.903,46.6633 278.903,45.1433 276.997,45.1433C275.327,45.1433 274.07,46.5333 273.883,48.4033L280.05,48.4033ZM277.253,52.7033C278.57,52.7033 279.497,52.1667 280.273,51.35L281.163,52.1467C280.2,53.22 279.033,53.9433 277.217,53.9433C274.587,53.9433 272.437,51.9233 272.437,48.9433C272.437,46.1633 274.383,43.94 277.033,43.94C279.867,43.94 281.497,46.2 281.497,49.0167C281.497,49.1467 281.497,49.2933 281.48,49.46L273.883,49.46C274.087,51.5367 275.57,52.7033 277.253,52.7033Z" style="fill:none;stroke-width:0.25px;stroke:rgb(106,107,109);"/>
            <rect x="283.367" y="51.7767" width="1.70334" height="1.94333" style="fill:rgb(106,107,109);fill-rule:nonzero;"/>
            <rect x="283.367" y="51.7767" width="1.70334" height="1.94333" style="fill:none;stroke-width:0.25px;stroke:rgb(106,107,109);"/>
        </g>
    </g>
</svg>
