<?xml version="1.0" standalone="no"?>
<!DOCTYPE svg PUBLIC "-//W3C//DTD SVG 1.1//EN" "http://www.w3.org/Graphics/SVG/1.1/DTD/svg11.dtd">
<svg width="1024" height="248" viewBox="0 0 1024 248" version="1.1" xmlns="http://www.w3.org/2000/svg" xmlns:xlink="http://www.w3.org/1999/xlink" xml:space="preserve" style="fill-rule:evenodd;clip-rule:evenodd;stroke-miterlimit:1.41421;">
    <path d="M92.7133,238.963C92.7133,243.836 84.7389,247.775 74.8965,247.775C65.0542,247.775 57.0679,243.836 57.0679,238.963C57.0679,234.09 65.0542,230.15 74.8965,230.15C84.7389,230.15 92.7133,234.09 92.7133,238.963Z" style="fill:rgb(241,92,25);fill-rule:nonzero;"/>
    <path d="M167.501,200.803C167.345,200.168 152.138,139.51 151.851,138.336C154.461,137.271 157.946,135.235 160.496,133.535C161.107,136.325 170.326,200.133 170.326,200.133C170.853,201.869 167.968,202.647 167.501,200.803Z" style="fill:rgb(241,92,25);fill-rule:nonzero;"/>
    <path d="M38.7601,127.991C36.5808,135.978 22.6077,174.581 21.9252,176.939C21.2427,179.298 18.7402,178.7 19.4467,176.305C19.9495,174.605 32.3423,122.316 33.5037,118.556C34.3179,121.071 36.2097,124.304 38.7601,127.991Z" style="fill:rgb(241,92,25);fill-rule:nonzero;"/>
    <path d="M48.9617,137.869C52.6015,141.665 57.0079,144.826 61.7736,147.508C63.2463,154.19 76.944,238.963 76.944,238.963C77.4469,241.442 72.9209,241.633 72.5376,239.765L48.9617,137.869Z" style="fill:rgb(241,92,25);fill-rule:nonzero;"/>
    <path d="M35.9342,104.99C35.2638,104.415 34.2341,103.314 34.1144,104.283C37.7425,126.028 63.737,138.181 67.0539,140.121C71.891,142.934 85.3377,146.886 99.7179,144.623C115.164,142.204 155.359,133.128 164.998,119.131C166.854,116.437 166.603,107.924 157.526,100.919C150.27,95.3032 145.828,93.639 137.195,86.9336C113.105,68.231 110.518,5.64475 85.7328,1.43004C60.9474,-2.7727 47.944,3.5853 43.8368,6.14764C39.73,8.70999 36.7845,14.158 35.7547,21.8211C34.737,29.3166 33.5875,33.0644 33.5157,60.7236C33.5157,61.2265 33.384,61.8849 33.9348,62.34C37.5029,64.5071 43.8131,67.3689 56.1458,65.5607C69.1851,63.645 79.3507,62.2682 87.0137,63.3577C92.7492,64.1838 121.594,76.8398 126.216,81.0426C128.131,82.7909 128.778,84.3832 129.029,85.9997C129.82,91.0167 129.987,99.1708 126.79,100.308C122.049,101.997 79.1111,116.473 61.0911,116.581C52.9967,116.628 41.7297,111.312 35.9342,104.99Z" style="fill:rgb(241,92,25);fill-rule:nonzero;"/>
    <path d="M122.959,87.2332C122.911,87.1014 122.731,86.2033 121.366,86.7062C113.368,89.7117 72.0947,100.536 64.5872,101.027C61.6658,101.111 59.9175,101.494 55.5711,100.105C41.562,95.6028 5.64107,63.274 0.552279,58.2091C0.264913,57.9455 0.00149304,58.2928 0.00149304,58.5324L0.00149304,66.4109C0.00149304,66.4109 -0.0344278,66.6864 0.193071,66.9138C0.444516,67.1412 39.9814,105.026 54.9245,109.229C57.5108,109.959 58.0615,110.618 64.7309,110.366C71.5318,110.187 113.428,98.4046 121.666,95.6624C122.743,95.3032 123.066,95.3272 123.246,93.8904C123.617,90.9208 123.426,88.8615 122.959,87.2332Z" style="fill:rgb(241,92,25);fill-rule:nonzero;"/>
    <path d="M182.18,199.103C182.18,202.778 175.99,205.76 168.363,205.76C160.736,205.76 154.545,202.778 154.545,199.103C154.545,195.427 160.736,192.457 168.363,192.457C175.99,192.457 182.18,195.427 182.18,199.103Z" style="fill:rgb(241,92,25);fill-rule:nonzero;"/>
    <path d="M30.1631,179.645C30.1631,182.615 25.3138,185.034 19.3269,185.034C13.3401,185.034 8.47882,182.615 8.47882,179.645C8.47882,176.664 13.3401,174.257 19.3269,174.257C25.3138,174.257 30.1631,176.664 30.1631,179.645Z" style="fill:rgb(241,92,25);fill-rule:nonzero;"/>
    <path d="M244.886,58.2687L229.835,58.2687L229.835,110.163L244.886,110.163C260.907,110.163 271.372,99.3744 271.372,84.3236C271.372,69.2846 260.907,58.2687 244.886,58.2687ZM244.886,122.376L216.425,122.376L216.425,46.0556L244.886,46.0556C268.869,46.0556 285.441,62.5196 285.441,84.1081C285.441,105.697 268.869,122.376 244.886,122.376Z" style="fill:rgb(241,92,25);fill-rule:nonzero;"/>
    <path d="M317.41,81.3181C308.215,81.3181 302.336,88.5263 302.336,97.3388C302.336,106.259 308.694,113.551 317.602,113.551C326.893,113.551 332.773,106.343 332.773,97.5303C332.773,88.6219 326.426,81.3181 317.41,81.3181ZM317.41,123.513C302.144,123.513 290.865,111.851 290.865,97.5303C290.865,83.1141 302.24,71.2602 317.602,71.2602C332.964,71.2602 344.255,82.9227 344.255,97.3388C344.255,111.659 332.868,123.513 317.41,123.513Z" style="fill:rgb(241,92,25);fill-rule:nonzero;"/>
    <path d="M362.648,122.376L351.176,122.376L351.176,72.302L362.648,72.302L362.648,80.0849C365.881,75.3434 370.525,71.2602 378.295,71.2602C389.589,71.2602 396.126,78.8514 396.126,90.5138L396.126,122.376L384.653,122.376L384.653,93.9263C384.653,86.1556 380.763,81.6892 373.938,81.6892C367.293,81.6892 362.648,86.3352 362.648,94.1178L362.648,122.376Z" style="fill:rgb(241,92,25);fill-rule:nonzero;"/>
    <path d="M429.03,81.3181C419.834,81.3181 413.954,88.5263 413.954,97.3388C413.954,106.259 420.312,113.551 429.22,113.551C438.513,113.551 444.39,106.343 444.39,97.5303C444.39,88.6219 438.046,81.3181 429.03,81.3181ZM429.03,123.513C413.763,123.513 402.484,111.851 402.484,97.5303C402.484,83.1141 413.857,71.2602 429.22,71.2602C444.584,71.2602 455.873,82.9227 455.873,97.3388C455.873,111.659 444.487,123.513 429.03,123.513Z" style="fill:rgb(241,92,25);fill-rule:nonzero;"/>
    <path d="M474.265,122.376L462.795,122.376L462.795,72.302L474.265,72.302L474.265,83.593C477.39,76.0977 483.184,70.9847 491.999,71.3562L491.999,83.4974L491.338,83.4974C481.28,83.4974 474.265,90.035 474.265,103.314L474.265,122.376Z" style="fill:rgb(241,92,25);fill-rule:nonzero;"/>
    <path d="M514.389,123.321C507.276,123.321 499.399,120.759 493.149,115.826L498.26,108.055C503.673,112.138 509.55,114.222 514.665,114.222C519.597,114.222 522.446,112.138 522.446,108.809L522.446,108.63C522.446,104.739 517.129,103.409 511.253,101.602C503.864,99.5181 495.602,96.4886 495.602,86.9099L495.602,86.7181C495.602,77.235 503.479,71.4517 513.429,71.4517C519.694,71.4517 526.519,73.631 531.835,77.1394L527.273,85.2935C522.446,82.3598 517.323,80.5519 513.142,80.5519C508.688,80.5519 506.127,82.6472 506.127,85.5808L506.127,85.7723C506.127,89.3762 511.54,90.8971 517.417,92.7887C524.723,95.0639 532.97,98.3805 532.97,107.397L532.97,107.576C532.97,118.101 524.806,123.321 514.389,123.321Z" style="fill:rgb(241,92,25);fill-rule:nonzero;"/>
    <path d="M592.157,123.681C569.912,123.681 553.338,106.343 553.338,84.3236C553.338,62.5196 569.588,44.7506 592.696,44.7506C606.766,44.7506 615.265,49.6599 622.572,56.6404L613.961,66.5546C607.855,60.891 601.317,57.0715 592.588,57.0715C577.979,57.0715 567.408,69.0691 567.408,84.1081C567.408,99.1589 577.979,111.36 592.588,111.36C601.964,111.36 607.962,107.552 614.5,101.446L623.121,110.163C615.157,118.448 606.443,123.681 592.157,123.681Z" style="fill:rgb(241,92,25);fill-rule:nonzero;"/>
    <path d="M640.579,122.376L629.109,122.376L629.109,53.1561L640.579,53.1561L640.579,80.0849C643.812,75.3434 648.456,71.2602 656.229,71.2602C667.519,71.2602 674.057,78.8514 674.057,90.5138L674.057,122.376L662.587,122.376L662.587,93.9263C662.587,86.1556 658.694,81.6892 651.869,81.6892C645.238,81.6892 640.579,86.3352 640.579,94.1178L640.579,122.376Z" style="fill:rgb(241,92,25);fill-rule:nonzero;"/>
    <path d="M706.96,81.3181C697.765,81.3181 691.884,88.5263 691.884,97.3388C691.884,106.259 698.242,113.551 707.151,113.551C716.444,113.551 722.324,106.343 722.324,97.5303C722.324,88.6219 715.977,81.3181 706.96,81.3181ZM706.96,123.513C691.694,123.513 680.415,111.851 680.415,97.5303C680.415,83.1141 691.791,71.2602 707.151,71.2602C722.514,71.2602 733.804,82.9227 733.804,97.3388C733.804,111.659 722.417,123.513 706.96,123.513Z" style="fill:rgb(241,92,25);fill-rule:nonzero;"/>
    <path d="M764.531,81.3181C755.335,81.3181 749.455,88.5263 749.455,97.3388C749.455,106.259 755.813,113.551 764.721,113.551C774.014,113.551 779.891,106.343 779.891,97.5303C779.891,88.6219 773.533,81.3181 764.531,81.3181ZM764.531,123.513C749.264,123.513 737.985,111.851 737.985,97.5303C737.985,83.1141 749.358,71.2602 764.721,71.2602C780.085,71.2602 791.364,82.9227 791.364,97.3388C791.364,111.659 779.988,123.513 764.531,123.513Z" style="fill:rgb(241,92,25);fill-rule:nonzero;"/>
    <path d="M815.452,123.321C808.34,123.321 800.473,120.759 794.212,115.826L799.338,108.055C804.737,112.138 810.617,114.222 815.74,114.222C820.675,114.222 823.513,112.138 823.513,108.809L823.513,108.63C823.513,104.739 818.207,103.409 812.327,101.602C804.927,99.5181 796.68,96.4886 796.68,86.9099L796.68,86.7181C796.68,77.235 804.547,71.4517 814.508,71.4517C820.769,71.4517 827.594,73.631 832.899,77.1394L828.348,85.2935C823.513,82.3598 818.387,80.5519 814.22,80.5519C809.766,80.5519 807.205,82.6472 807.205,85.5808L807.205,85.7723C807.205,89.3762 812.604,90.8971 818.495,92.7887C825.787,95.0639 834.038,98.3805 834.038,107.397L834.038,107.576C834.038,118.101 825.884,123.321 815.452,123.321Z" style="fill:rgb(241,92,25);fill-rule:nonzero;"/>
    <path d="M875.297,93.8304C874.531,86.4307 870.174,80.6475 862.581,80.6475C855.565,80.6475 850.644,86.0597 849.602,93.8304L875.297,93.8304ZM864.104,114.126C869.707,114.126 873.68,112.042 877.657,108.151L884.399,114.126C879.657,119.813 873.12,123.513 863.91,123.513C849.412,123.513 838.215,112.988 838.215,97.4347C838.215,83.0182 848.37,71.2602 862.688,71.2602C878.616,71.2602 886.673,83.7848 886.673,98.2846C886.673,99.3263 886.576,100.284 886.482,101.422L849.685,101.422C851.028,109.576 856.715,114.126 864.104,114.126Z" style="fill:rgb(241,92,25);fill-rule:nonzero;"/>
    <rect x="896.059" y="112.258" width="9.8184" height="10.1177" style="fill:rgb(241,92,25);"/>
    <path d="M933.549,90.4061C926.401,90.4061 921.814,96.0216 921.814,102.882C921.814,109.827 926.76,115.503 933.704,115.503C940.938,115.503 945.511,109.899 945.511,103.026C945.511,96.0934 940.565,90.4061 933.549,90.4061ZM933.549,123.262C921.67,123.262 912.884,114.174 912.884,103.026C912.884,91.807 921.742,82.5753 933.704,82.5753C945.666,82.5753 954.455,91.6633 954.455,102.882C954.455,114.03 945.594,123.262 933.549,123.262Z" style="fill:rgb(241,92,25);fill-rule:nonzero;"/>
    <path d="M968.752,122.376L959.833,122.376L959.833,83.3897L968.752,83.3897L968.752,92.1781C971.194,86.347 975.695,82.3598 982.571,82.659L982.571,92.1062L982.043,92.1062C974.223,92.1062 968.752,97.1951 968.752,107.528L968.752,122.376Z" style="fill:rgb(241,92,25);fill-rule:nonzero;"/>
    <path d="M1003.58,90.1069C997.381,90.1069 992.506,94.3933 992.506,100.895C992.506,107.385 997.453,111.743 1003.58,111.743C1009.78,111.743 1015.03,107.385 1015.03,100.967C1015.03,94.3933 1009.78,90.1069 1003.58,90.1069ZM1002.85,134.337C996.422,134.337 990.448,132.709 985.419,129.679L988.749,122.962C992.88,125.549 997.309,127.093 1002.63,127.093C1010.6,127.093 1014.96,122.962 1014.96,115.144L1014.96,112.114C1011.71,116.317 1007.65,119.275 1001.22,119.275C992.065,119.275 983.505,112.557 983.505,100.967C983.505,89.3762 992.147,82.5753 1001.22,82.5753C1007.8,82.5753 1011.86,85.6045 1014.89,89.2207L1014.89,83.3897L1023.82,83.3897L1023.82,114.401C1023.82,128.207 1016.29,134.337 1002.85,134.337Z" style="fill:rgb(241,92,25);fill-rule:nonzero;"/>
    <path d="M237.822,192.888L232.493,192.888L232.493,151.172L216.856,151.172L216.856,146.311L253.459,146.311L253.459,151.172L237.822,151.172L237.822,192.888Z" style="fill:rgb(106,107,109);fill-rule:nonzero;"/>
    <path d="M237.822,192.888L232.493,192.888L232.493,151.172L216.856,151.172L216.856,146.311L253.459,146.311L253.459,151.172L237.822,151.172L237.822,192.888Z" style="fill:none;stroke-width:0.9px;stroke:rgb(106,107,109);"/>
    <path d="M280.987,173.79C280.46,167.54 276.868,162.08 270.007,162.08C264.02,162.08 259.494,167.073 258.836,173.79L280.987,173.79ZM270.941,189.236C275.67,189.236 278.999,187.309 281.789,184.375L284.986,187.237C281.525,191.092 277.335,193.69 270.809,193.69C261.362,193.69 253.639,186.434 253.639,175.73C253.639,165.744 260.632,157.758 270.138,157.758C280.328,157.758 286.183,165.876 286.183,175.994C286.183,176.461 286.183,176.987 286.111,177.586L258.836,177.586C259.566,185.046 264.882,189.236 270.941,189.236Z" style="fill:rgb(106,107,109);fill-rule:nonzero;"/>
    <path d="M280.987,173.79C280.46,167.54 276.868,162.08 270.007,162.08C264.02,162.08 259.494,167.073 258.836,173.79L280.987,173.79ZM270.941,189.236C275.67,189.236 278.999,187.309 281.789,184.375L284.986,187.237C281.525,191.092 277.335,193.69 270.809,193.69C261.362,193.69 253.639,186.434 253.639,175.73C253.639,165.744 260.632,157.758 270.138,157.758C280.328,157.758 286.183,165.876 286.183,175.994C286.183,176.461 286.183,176.987 286.111,177.586L258.836,177.586C259.566,185.046 264.882,189.236 270.941,189.236Z" style="fill:none;stroke-width:0.9px;stroke:rgb(106,107,109);"/>
    <path d="M296.086,182.651C296.086,187.033 300.073,189.572 304.73,189.572C311.052,189.572 316.249,185.704 316.249,180.256L316.249,176.928C313.71,176.197 310.322,175.455 306.131,175.455C299.678,175.455 296.086,178.257 296.086,182.651ZM295.487,165.074L293.954,160.883C297.75,159.159 301.474,158.021 306.467,158.021C315.842,158.021 321.098,162.823 321.098,171.863L321.098,192.888L316.177,192.888L316.177,187.704C313.782,190.829 309.783,193.631 303.737,193.631C297.343,193.631 290.889,190.027 290.889,182.842C290.889,175.527 296.876,171.671 305.592,171.671C309.987,171.671 313.112,172.27 316.177,173.132L316.177,171.935C316.177,165.744 312.381,162.547 305.928,162.547C301.869,162.547 298.672,163.613 295.487,165.074Z" style="fill:rgb(106,107,109);fill-rule:nonzero;"/>
    <path d="M296.086,182.651C296.086,187.033 300.073,189.572 304.73,189.572C311.052,189.572 316.249,185.704 316.249,180.256L316.249,176.928C313.71,176.197 310.322,175.455 306.131,175.455C299.678,175.455 296.086,178.257 296.086,182.651ZM295.487,165.074L293.954,160.883C297.75,159.159 301.474,158.021 306.467,158.021C315.842,158.021 321.098,162.823 321.098,171.863L321.098,192.888L316.177,192.888L316.177,187.704C313.782,190.829 309.783,193.631 303.737,193.631C297.343,193.631 290.889,190.027 290.889,182.842C290.889,175.527 296.876,171.671 305.592,171.671C309.987,171.671 313.112,172.27 316.177,173.132L316.177,171.935C316.177,165.744 312.381,162.547 305.928,162.547C301.869,162.547 298.672,163.613 295.487,165.074Z" style="fill:none;stroke-width:0.9px;stroke:rgb(106,107,109);"/>
    <path d="M345.848,193.69C335.802,193.69 328.211,185.501 328.211,175.79C328.211,166.008 335.802,157.758 345.848,157.758C352.361,157.758 356.42,160.488 359.616,163.888L356.217,167.48C353.499,164.619 350.434,162.284 345.776,162.284C338.795,162.284 333.467,168.211 333.467,175.658C333.467,183.178 338.927,189.105 346.111,189.105C350.506,189.105 353.894,186.901 356.624,183.98L359.882,187.033C356.42,190.901 352.302,193.69 345.848,193.69Z" style="fill:rgb(106,107,109);fill-rule:nonzero;"/>
    <path d="M345.848,193.69C335.802,193.69 328.211,185.501 328.211,175.79C328.211,166.008 335.802,157.758 345.848,157.758C352.361,157.758 356.42,160.488 359.616,163.888L356.217,167.48C353.499,164.619 350.434,162.284 345.776,162.284C338.795,162.284 333.467,168.211 333.467,175.658C333.467,183.178 338.927,189.105 346.111,189.105C350.506,189.105 353.894,186.901 356.624,183.98L359.882,187.033C356.42,190.901 352.302,193.69 345.848,193.69Z" style="fill:none;stroke-width:0.9px;stroke:rgb(106,107,109);"/>
     <path d="M371.783,192.888L366.657,192.888L366.657,144.323L371.783,144.323L371.783,164.475C374.046,160.751 377.638,157.758 383.565,157.758C391.873,157.758 396.737,163.35 396.737,171.54L396.737,192.888L391.611,192.888L391.611,172.797C391.611,166.415 388.152,162.416 382.092,162.416C376.176,162.416 371.783,166.738 371.783,173.192L371.783,192.888Z" style="fill:rgb(106,107,109);fill-rule:nonzero;"/>
    <path d="M371.783,192.888L366.657,192.888L366.657,144.323L371.783,144.323L371.783,164.475C374.046,160.751 377.638,157.758 383.565,157.758C391.873,157.758 396.737,163.35 396.737,171.54L396.737,192.888L391.611,192.888L391.611,172.797C391.611,166.415 388.152,162.416 382.092,162.416C376.176,162.416 371.783,166.738 371.783,173.192L371.783,192.888Z" style="fill:none;stroke-width:0.9px;stroke:rgb(106,107,109);"/>
    <path d="M431.196,173.79C430.657,167.54 427.065,162.08 420.204,162.08C414.216,162.08 409.704,167.073 409.033,173.79L431.196,173.79ZM421.138,189.236C425.869,189.236 429.195,187.309 431.986,184.375L435.183,187.237C431.724,191.092 427.532,193.69 421.005,193.69C411.558,193.69 403.849,186.434 403.849,175.73C403.849,165.744 410.829,157.758 420.348,157.758C430.524,157.758 436.379,165.876 436.379,175.994C436.379,176.461 436.379,176.987 436.307,177.586L409.033,177.586C409.762,185.046 415.092,189.236 421.138,189.236Z" style="fill:rgb(106,107,109);fill-rule:nonzero;"/>
    <path d="M431.196,173.79C430.657,167.54 427.065,162.08 420.204,162.08C414.216,162.08 409.704,167.073 409.033,173.79L431.196,173.79ZM421.138,189.236C425.869,189.236 429.195,187.309 431.986,184.375L435.183,187.237C431.724,191.092 427.532,193.69 421.005,193.69C411.558,193.69 403.849,186.434 403.849,175.73C403.849,165.744 410.829,157.758 420.348,157.758C430.524,157.758 436.379,165.876 436.379,175.994C436.379,176.461 436.379,176.987 436.307,177.586L409.033,177.586C409.762,185.046 415.092,189.236 421.138,189.236Z" style="fill:none;stroke-width:0.9px;stroke:rgb(106,107,109);"/>
    <path d="M448.808,192.888L443.686,192.888L443.686,158.488L448.808,158.488L448.808,167.48C451.337,161.757 456.33,157.626 462.853,157.89L462.853,163.421L462.447,163.421C454.929,163.421 448.808,168.81 448.808,179.178L448.808,192.888Z" style="fill:rgb(106,107,109);fill-rule:nonzero;"/>
    <path d="M448.808,192.888L443.686,192.888L443.686,158.488L448.808,158.488L448.808,167.48C451.337,161.757 456.33,157.626 462.853,157.89L462.853,163.421L462.447,163.421C454.929,163.421 448.808,168.81 448.808,179.178L448.808,192.888Z" style="fill:none;stroke-width:0.9px;stroke:rgb(106,107,109);"/>
    <path d="M480.346,193.559C475.414,193.559 469.965,191.631 466.1,188.506L468.697,184.842C472.422,187.632 476.553,189.236 480.612,189.236C484.729,189.236 487.735,187.105 487.735,183.776L487.735,183.645C487.735,180.184 483.676,178.855 479.15,177.586C473.762,176.053 467.763,174.198 467.763,167.876L467.763,167.744C467.763,161.817 472.684,157.89 479.473,157.89C483.676,157.89 488.321,159.362 491.855,161.685L489.531,165.541C486.334,163.481 482.67,162.212 479.341,162.212C475.282,162.212 472.684,164.343 472.684,167.205L472.684,167.337C472.684,170.606 476.948,171.863 481.546,173.264C486.862,174.856 492.585,176.928 492.585,183.118L492.585,183.25C492.585,189.763 487.196,193.559 480.346,193.559Z" style="fill:rgb(106,107,109);fill-rule:nonzero;"/>
    <path d="M480.346,193.559C475.414,193.559 469.965,191.631 466.1,188.506L468.697,184.842C472.422,187.632 476.553,189.236 480.612,189.236C484.729,189.236 487.735,187.105 487.735,183.776L487.735,183.645C487.735,180.184 483.676,178.855 479.15,177.586C473.762,176.053 467.763,174.198 467.763,167.876L467.763,167.744C467.763,161.817 472.684,157.89 479.473,157.89C483.676,157.89 488.321,159.362 491.855,161.685L489.531,165.541C486.334,163.481 482.67,162.212 479.341,162.212C475.282,162.212 472.684,164.343 472.684,167.205L472.684,167.337C472.684,170.606 476.948,171.863 481.546,173.264C486.862,174.856 492.585,176.928 492.585,183.118L492.585,183.25C492.585,189.763 487.196,193.559 480.346,193.559Z" style="fill:none;stroke-width:0.9px;stroke:rgb(106,107,109);"/>
    <path d="M521.321,182.651C521.321,187.033 525.309,189.572 529.967,189.572C536.29,189.572 541.473,185.704 541.473,180.256L541.473,176.928C538.948,176.197 535.546,175.455 531.368,175.455C524.913,175.455 521.321,178.257 521.321,182.651ZM520.711,165.074L519.191,160.883C522.974,159.159 526.709,158.021 531.702,158.021C541.078,158.021 546.333,162.823 546.333,171.863L546.333,192.888L541.412,192.888L541.412,187.704C539.005,190.829 535.018,193.631 528.972,193.631C522.579,193.631 516.124,190.027 516.124,182.842C516.124,175.527 522.112,171.671 530.83,171.671C535.223,171.671 538.348,172.27 541.412,173.132L541.412,171.935C541.412,165.744 537.619,162.547 531.164,162.547C527.105,162.547 523.908,163.613 520.711,165.074Z" style="fill:rgb(106,107,109);fill-rule:nonzero;"/>
    <path d="M521.321,182.651C521.321,187.033 525.309,189.572 529.967,189.572C536.29,189.572 541.473,185.704 541.473,180.256L541.473,176.928C538.948,176.197 535.546,175.455 531.368,175.455C524.913,175.455 521.321,178.257 521.321,182.651ZM520.711,165.074L519.191,160.883C522.974,159.159 526.709,158.021 531.702,158.021C541.078,158.021 546.333,162.823 546.333,171.863L546.333,192.888L541.412,192.888L541.412,187.704C539.005,190.829 535.018,193.631 528.972,193.631C522.579,193.631 516.124,190.027 516.124,182.842C516.124,175.527 522.112,171.671 530.83,171.671C535.223,171.671 538.348,172.27 541.412,173.132L541.412,171.935C541.412,165.744 537.619,162.547 531.164,162.547C527.105,162.547 523.908,163.613 520.711,165.074Z" style="fill:none;stroke-width:0.9px;stroke:rgb(106,107,109);"/>
    <path d="M566.941,193.559C562.02,193.559 556.57,191.631 552.716,188.506L555.302,184.842C559.038,187.632 563.158,189.236 567.217,189.236C571.334,189.236 574.341,187.105 574.341,183.776L574.341,183.645C574.341,180.184 570.271,178.855 565.755,177.586C560.367,176.053 554.369,174.198 554.369,167.876L554.369,167.744C554.369,161.817 559.3,157.89 566.079,157.89C570.271,157.89 574.926,159.362 578.461,161.685L576.137,165.541C572.94,163.481 569.276,162.212 565.946,162.212C561.887,162.212 559.3,164.343 559.3,167.205L559.3,167.337C559.3,170.606 563.564,171.863 568.151,173.264C573.478,174.856 579.19,176.928 579.19,183.118L579.19,183.25C579.19,189.763 573.802,193.559 566.941,193.559Z" style="fill:rgb(106,107,109);fill-rule:nonzero;"/>
    <path d="M566.941,193.559C562.02,193.559 556.57,191.631 552.716,188.506L555.302,184.842C559.038,187.632 563.158,189.236 567.217,189.236C571.334,189.236 574.341,187.105 574.341,183.776L574.341,183.645C574.341,180.184 570.271,178.855 565.755,177.586C560.367,176.053 554.369,174.198 554.369,167.876L554.369,167.744C554.369,161.817 559.3,157.89 566.079,157.89C570.271,157.89 574.926,159.362 578.461,161.685L576.137,165.541C572.94,163.481 569.276,162.212 565.946,162.212C561.887,162.212 559.3,164.343 559.3,167.205L559.3,167.337C559.3,170.606 563.564,171.863 568.151,173.264C573.478,174.856 579.19,176.928 579.19,183.118L579.19,183.25C579.19,189.763 573.802,193.559 566.941,193.559Z" style="fill:none;stroke-width:0.9px;stroke:rgb(106,107,109);"/>
    <path d="M617.579,192.888L611.458,192.888L599.137,176.856L592.157,183.908L592.157,192.888L587.031,192.888L587.031,144.323L592.157,144.323L592.157,177.849L610.718,158.488L617.112,158.488L602.671,173.264L617.579,192.888Z" style="fill:rgb(106,107,109);fill-rule:nonzero;"/>
    <path d="M617.579,192.888L611.458,192.888L599.137,176.856L592.157,183.908L592.157,192.888L587.031,192.888L587.031,144.323L592.157,144.323L592.157,177.849L610.718,158.488L617.112,158.488L602.671,173.264L617.579,192.888Z" style="fill:none;stroke-width:0.9px;stroke:rgb(106,107,109);"/>
    <rect x="622.618" y="185.908" width="6.13051" height="6.98061" style="fill:rgb(106,107,109);"/>
    <rect x="622.618" y="185.908" width="6.13051" height="6.98061" style="fill:none;stroke-width:0.9px;stroke:rgb(106,107,109);"/>
    <path d="M671.912,192.888L666.596,192.888L666.596,174.461L647.224,146.311L653.618,146.311L669.315,169.6L685.156,146.311L691.274,146.311L671.912,174.401L671.912,192.888Z" style="fill:rgb(106,107,109);fill-rule:nonzero;"/>
    <path d="M671.912,192.888L666.596,192.888L666.596,174.461L647.224,146.311L653.618,146.311L669.315,169.6L685.156,146.311L691.274,146.311L671.912,174.401L671.912,192.888Z" style="fill:none;stroke-width:0.9px;stroke:rgb(106,107,109);"/>
    <path d="M707.833,162.284C700.387,162.284 695.261,168.211 695.261,175.658C695.261,183.118 700.71,189.105 707.966,189.105C715.413,189.105 720.61,183.178 720.61,175.79C720.61,168.271 715.089,162.284 707.833,162.284ZM707.833,193.69C697.513,193.69 689.995,185.572 689.995,175.79C689.995,166.008 697.585,157.758 707.966,157.758C718.276,157.758 725.866,165.876 725.866,175.658C725.866,185.441 718.214,193.69 707.833,193.69Z" style="fill:rgb(106,107,109);fill-rule:nonzero;"/>
    <path d="M707.833,162.284C700.387,162.284 695.261,168.211 695.261,175.658C695.261,183.118 700.71,189.105 707.966,189.105C715.413,189.105 720.61,183.178 720.61,175.79C720.61,168.271 715.089,162.284 707.833,162.284ZM707.833,193.69C697.513,193.69 689.995,185.572 689.995,175.79C689.995,166.008 697.585,157.758 707.966,157.758C718.276,157.758 725.866,165.876 725.866,175.658C725.866,185.441 718.214,193.69 707.833,193.69Z" style="fill:none;stroke-width:0.9px;stroke:rgb(106,107,109);"/>
    <path d="M757.86,158.488L762.914,158.488L762.914,192.888L757.86,192.888L757.86,186.901C755.525,190.625 752.005,193.631 746.078,193.631C737.755,193.631 732.906,188.039 732.906,179.849L732.906,158.488L738.032,158.488L738.032,178.592C738.032,184.974 741.491,188.973 747.551,188.973C753.406,188.973 757.86,184.638 757.86,178.185L757.86,158.488Z" style="fill:rgb(106,107,109);fill-rule:nonzero;"/>
    <path d="M757.86,158.488L762.914,158.488L762.914,192.888L757.86,192.888L757.86,186.901C755.525,190.625 752.005,193.631 746.078,193.631C737.755,193.631 732.906,188.039 732.906,179.849L732.906,158.488L738.032,158.488L738.032,178.592C738.032,184.974 741.491,188.973 747.551,188.973C753.406,188.973 757.86,184.638 757.86,178.185L757.86,158.488Z" style="fill:none;stroke-width:0.9px;stroke:rgb(106,107,109);"/>
    <path d="M806.544,193.69C796.5,193.69 788.907,185.501 788.907,175.79C788.907,166.008 796.5,157.758 806.544,157.758C813.071,157.758 817.13,160.488 820.327,163.888L816.925,167.48C814.195,164.619 811.142,162.284 806.486,162.284C799.493,162.284 794.166,168.211 794.166,175.658C794.166,183.178 799.626,189.105 806.81,189.105C811.203,189.105 814.605,186.901 817.335,183.98L820.578,187.033C817.13,190.901 812.999,193.69 806.544,193.69Z" style="fill:rgb(106,107,109);fill-rule:nonzero;"/>
    <path d="M806.544,193.69C796.5,193.69 788.907,185.501 788.907,175.79C788.907,166.008 796.5,157.758 806.544,157.758C813.071,157.758 817.13,160.488 820.327,163.888L816.925,167.48C814.195,164.619 811.142,162.284 806.486,162.284C799.493,162.284 794.166,168.211 794.166,175.658C794.166,183.178 799.626,189.105 806.81,189.105C811.203,189.105 814.605,186.901 817.335,183.98L820.578,187.033C817.13,190.901 812.999,193.69 806.544,193.69Z" style="fill:none;stroke-width:0.9px;stroke:rgb(106,107,109);"/>
    <path d="M832.493,192.888L827.367,192.888L827.367,144.323L832.493,144.323L832.493,164.475C834.742,160.751 838.334,157.758 844.261,157.758C852.584,157.758 857.433,163.35 857.433,171.54L857.433,192.888L852.322,192.888L852.322,172.797C852.322,166.415 848.859,162.416 842.802,162.416C836.886,162.416 832.493,166.738 832.493,173.192L832.493,192.888Z" style="fill:rgb(106,107,109);fill-rule:nonzero;"/>
    <path d="M832.493,192.888L827.367,192.888L827.367,144.323L832.493,144.323L832.493,164.475C834.742,160.751 838.334,157.758 844.261,157.758C852.584,157.758 857.433,163.35 857.433,171.54L857.433,192.888L852.322,192.888L852.322,172.797C852.322,166.415 848.859,162.416 842.802,162.416C836.886,162.416 832.493,166.738 832.493,173.192L832.493,192.888Z" style="fill:none;stroke-width:0.9px;stroke:rgb(106,107,109);"/>
    <path d="M882.373,162.284C874.927,162.284 869.801,168.211 869.801,175.658C869.801,183.118 875.261,189.105 882.506,189.105C889.967,189.105 895.15,183.178 895.15,175.79C895.15,168.271 889.629,162.284 882.373,162.284ZM882.373,193.69C872.064,193.69 864.545,185.572 864.545,175.79C864.545,166.008 872.135,157.758 882.506,157.758C892.826,157.758 900.405,165.876 900.405,175.658C900.405,185.441 892.768,193.69 882.373,193.69Z" style="fill:rgb(106,107,109);fill-rule:nonzero;"/>
    <path d="M882.373,162.284C874.927,162.284 869.801,168.211 869.801,175.658C869.801,183.118 875.261,189.105 882.506,189.105C889.967,189.105 895.15,183.178 895.15,175.79C895.15,168.271 889.629,162.284 882.373,162.284ZM882.373,193.69C872.064,193.69 864.545,185.572 864.545,175.79C864.545,166.008 872.135,157.758 882.506,157.758C892.826,157.758 900.405,165.876 900.405,175.658C900.405,185.441 892.768,193.69 882.373,193.69Z" style="fill:none;stroke-width:0.9px;stroke:rgb(106,107,109);"/>
    <path d="M923.682,162.284C916.236,162.284 911.11,168.211 911.11,175.658C911.11,183.118 916.57,189.105 923.815,189.105C931.276,189.105 936.459,183.178 936.459,175.79C936.459,168.271 930.938,162.284 923.682,162.284ZM923.682,193.69C913.373,193.69 905.854,185.572 905.854,175.79C905.854,166.008 913.444,157.758 923.815,157.758C934.135,157.758 941.714,165.876 941.714,175.658C941.714,185.441 934.077,193.69 923.682,193.69Z" style="fill:rgb(106,107,109);fill-rule:nonzero;"/>
    <path d="M923.682,162.284C916.236,162.284 911.11,168.211 911.11,175.658C911.11,183.118 916.57,189.105 923.815,189.105C931.276,189.105 936.459,183.178 936.459,175.79C936.459,168.271 930.938,162.284 923.682,162.284ZM923.682,193.69C913.373,193.69 905.854,185.572 905.854,175.79C905.854,166.008 913.444,157.758 923.815,157.758C934.135,157.758 941.714,165.876 941.714,175.658C941.714,185.441 934.077,193.69 923.682,193.69Z" style="fill:none;stroke-width:0.9px;stroke:rgb(106,107,109);"/>
    <path d="M960.67,193.559C955.749,193.559 950.289,191.631 946.434,188.506L949.021,184.842C952.756,187.632 956.873,189.236 960.932,189.236C965.063,189.236 968.059,187.105 968.059,183.776L968.059,183.645C968.059,180.184 964,178.855 959.474,177.586C954.085,176.053 948.097,174.198 948.097,167.876L948.097,167.744C948.097,161.817 953.019,157.89 959.808,157.89C964,157.89 968.655,159.362 972.175,161.685L969.855,165.541C966.658,163.481 962.994,162.212 959.675,162.212C955.605,162.212 953.019,164.343 953.019,167.205L953.019,167.337C953.019,170.606 957.282,171.863 961.866,173.264C967.197,174.856 972.908,176.928 972.908,183.118L972.908,183.25C972.908,189.763 967.52,193.559 960.67,193.559Z" style="fill:rgb(106,107,109);fill-rule:nonzero;"/>
    <path d="M960.67,193.559C955.749,193.559 950.289,191.631 946.434,188.506L949.021,184.842C952.756,187.632 956.873,189.236 960.932,189.236C965.063,189.236 968.059,187.105 968.059,183.776L968.059,183.645C968.059,180.184 964,178.855 959.474,177.586C954.085,176.053 948.097,174.198 948.097,167.876L948.097,167.744C948.097,161.817 953.019,157.89 959.808,157.89C964,157.89 968.655,159.362 972.175,161.685L969.855,165.541C966.658,163.481 962.994,162.212 959.675,162.212C955.605,162.212 953.019,164.343 953.019,167.205L953.019,167.337C953.019,170.606 957.282,171.863 961.866,173.264C967.197,174.856 972.908,176.928 972.908,183.118L972.908,183.25C972.908,189.763 967.52,193.559 960.67,193.559Z" style="fill:none;stroke-width:0.9px;stroke:rgb(106,107,109);"/>
    <path d="M1005.97,173.79C1005.44,167.54 1001.85,162.08 994.999,162.08C989,162.08 984.485,167.073 983.814,173.79L1005.97,173.79ZM995.919,189.236C1000.65,189.236 1003.98,187.309 1006.77,184.375L1009.96,187.237C1006.5,191.092 1002.31,193.69 995.79,193.69C986.342,193.69 978.619,186.434 978.619,175.73C978.619,165.744 985.61,157.758 995.129,157.758C1005.31,157.758 1011.16,165.876 1011.16,175.994C1011.16,176.461 1011.16,176.987 1011.1,177.586L983.814,177.586C984.546,185.046 989.873,189.236 995.919,189.236Z" style="fill:rgb(106,107,109);fill-rule:nonzero;"/>
    <path d="M1005.97,173.79C1005.44,167.54 1001.85,162.08 994.999,162.08C989,162.08 984.485,167.073 983.814,173.79L1005.97,173.79ZM995.919,189.236C1000.65,189.236 1003.98,187.309 1006.77,184.375L1009.96,187.237C1006.5,191.092 1002.31,193.69 995.79,193.69C986.342,193.69 978.619,186.434 978.619,175.73C978.619,165.744 985.61,157.758 995.129,157.758C1005.31,157.758 1011.16,165.876 1011.16,175.994C1011.16,176.461 1011.16,176.987 1011.1,177.586L983.814,177.586C984.546,185.046 989.873,189.236 995.919,189.236Z" style="fill:none;stroke-width:0.9px;stroke:rgb(106,107,109);"/>
    <rect x="1017.88" y="185.908" width="6.11855" height="6.98061" style="fill:rgb(106,107,109);"/>
    <rect x="1017.88" y="185.908" width="6.11855" height="6.98061" style="fill:none;stroke-width:0.9px;stroke:rgb(106,107,109);"/>
</svg>
