<?xml version="1.0" standalone="no"?>
<!DOCTYPE svg PUBLIC "-//W3C//DTD SVG 1.1//EN" "http://www.w3.org/Graphics/SVG/1.1/DTD/svg11.dtd">
<svg viewBox="0 0 1024 279" version="1.1" xmlns="http://www.w3.org/2000/svg" xmlns:xlink="http://www.w3.org/1999/xlink" xml:space="preserve" style="fill-rule:evenodd;clip-rule:evenodd;stroke-linejoin:round;stroke-miterlimit:1.41421;">
    <g>
        <g id="group2">
            <g id="bezier">
                <path d="M166.572,146.29C166.572,165.185 151.256,180.501 132.361,180.501C113.498,180.501 98.1825,165.185 98.1825,146.29C98.1825,127.395 113.498,112.112 132.361,112.112C151.256,112.112 166.572,127.395 166.572,146.29Z" style="fill:rgb(32,131,208);fill-rule:nonzero;"/>
            </g>
            <g id="bezier2">
                <path d="M70.5818,65.6162C70.5818,75.902 62.2306,84.2209 51.9448,84.2209C41.659,84.2209 33.3401,75.902 33.3401,65.6162C33.3401,55.3304 41.659,46.9793 51.9448,46.9793C62.2306,46.9793 70.5818,55.3304 70.5818,65.6162Z" style="fill:rgb(32,131,208);fill-rule:nonzero;"/>
            </g>
            <g id="bezier3">
                <path d="M151.353,31.6957C151.353,41.9815 143.001,50.3004 132.748,50.3004C122.462,50.3004 114.111,41.9815 114.111,31.6957C114.111,21.4099 122.462,13.091 132.748,13.091C143.001,13.091 151.353,21.4099 151.353,31.6957Z" style="fill:rgb(32,131,208);fill-rule:nonzero;"/>
            </g>
            <g id="bezier4">
                <path d="M231.543,65.0358C231.543,75.3216 223.224,83.6728 212.938,83.6728C202.653,83.6728 194.334,75.3216 194.334,65.0358C194.334,54.7823 202.653,46.4311 212.938,46.4311C223.224,46.4311 231.543,54.7823 231.543,65.0358Z" style="fill:rgb(32,131,208);fill-rule:nonzero;"/>
            </g>
            <g id="bezier5">
                <path d="M231.543,226.61C231.543,236.863 223.224,245.214 212.938,245.214C202.653,245.214 194.334,236.863 194.334,226.61C194.334,216.324 202.653,207.973 212.938,207.973C223.224,207.973 231.543,216.324 231.543,226.61Z" style="fill:rgb(32,131,208);fill-rule:nonzero;"/>
            </g>
            <g id="bezier6">
                <path d="M150.998,259.95C150.998,270.236 142.679,278.555 132.393,278.555C122.107,278.555 113.789,270.236 113.789,259.95C113.789,249.664 122.107,241.313 132.393,241.313C142.679,241.313 150.998,249.664 150.998,259.95Z" style="fill:rgb(32,131,208);fill-rule:nonzero;"/>
            </g>
            <g id="bezier7">
                <path d="M71.1299,226.61C71.1299,236.863 62.811,245.214 52.5252,245.214C42.2394,245.214 33.9205,236.863 33.9205,226.61C33.9205,216.324 42.2394,207.973 52.5252,207.973C62.811,207.973 71.1299,216.324 71.1299,226.61Z" style="fill:rgb(32,131,208);fill-rule:nonzero;"/>
            </g>
            <g id="bezier8">
                <path d="M37.2416,146.581C37.2416,156.866 28.8905,165.217 18.6047,165.217C8.31891,165.217 0,156.866 0,146.581C0,136.295 8.31891,127.976 18.6047,127.976C28.8905,127.976 37.2416,136.295 37.2416,146.581Z" style="fill:rgb(32,131,208);fill-rule:nonzero;"/>
            </g>
            <g id="bezier9">
                <path d="M132.716,66.3578C126.589,66.3578 121.592,71.3556 121.592,77.5142C121.592,83.6405 126.589,88.6383 132.716,88.6383C138.874,88.6383 143.872,83.6405 143.872,77.5142C143.872,71.3556 138.874,66.3578 132.716,66.3578Z" style="fill:rgb(14,74,131);fill-rule:nonzero;"/>
            </g>
            <g id="bezier10">
                <path d="M132.716,225.255C138.874,225.255 143.872,220.29 143.872,214.131C143.872,207.973 138.874,203.007 132.716,203.007C126.589,203.007 121.592,207.973 121.592,214.131C121.592,220.29 126.589,225.255 132.716,225.255Z" style="fill:rgb(14,74,131);fill-rule:nonzero;"/>
            </g>
            <g id="bezier11">
                <path d="M212.197,145.807C212.197,139.68 207.199,134.683 201.04,134.683C194.882,134.683 189.884,139.68 189.884,145.807C189.884,151.965 194.882,156.963 201.04,156.963C207.199,156.963 212.197,151.965 212.197,145.807Z" style="fill:rgb(14,74,131);fill-rule:nonzero;"/>
            </g>
            <g id="bezier12">
                <path d="M53.2991,145.807C53.2991,151.965 58.2646,156.963 64.4232,156.963C70.5495,156.963 75.5473,151.965 75.5473,145.807C75.5473,139.68 70.5495,134.683 64.4232,134.683C58.2646,134.683 53.2991,139.68 53.2991,145.807Z" style="fill:rgb(14,74,131);fill-rule:nonzero;"/>
            </g>
            <g id="bezier13">
                <path d="M188.917,105.405C193.27,101.052 193.27,93.9908 188.917,89.6379C184.564,85.285 177.502,85.285 173.149,89.6379C168.797,93.9908 168.829,101.052 173.149,105.373C177.502,109.758 184.564,109.758 188.917,105.405Z" style="fill:rgb(14,74,131);fill-rule:nonzero;"/>
            </g>
            <g id="bezier14">
                <path d="M76.5469,186.24C72.194,190.593 72.194,197.655 76.5469,202.008C80.8998,206.361 87.9612,206.361 92.3141,202.008C96.667,197.655 96.667,190.593 92.3141,186.24C87.9612,181.888 80.8998,181.888 76.5469,186.24Z" style="fill:rgb(14,74,131);fill-rule:nonzero;"/>
            </g>
            <g id="bezier15">
                <path d="M188.917,186.24C184.564,181.888 177.502,181.92 173.149,186.24C168.797,190.593 168.797,197.655 173.149,202.008C177.502,206.361 184.564,206.361 188.917,202.008C193.27,197.655 193.27,190.593 188.917,186.24Z" style="fill:rgb(14,74,131);fill-rule:nonzero;"/>
            </g>
            <g id="bezier16">
                <path d="M76.5469,105.373C80.8998,109.758 87.9612,109.758 92.3141,105.373C96.667,101.052 96.667,93.9908 92.3141,89.6379C87.9612,85.285 80.8998,85.285 76.5469,89.6379C72.194,93.9908 72.194,101.052 76.5469,105.373Z" style="fill:rgb(14,74,131);fill-rule:nonzero;"/>
            </g>
            <g id="bezier17">
                <path d="M154.093,92.7655C159.8,95.0871 166.282,92.3141 168.603,86.607C170.892,80.8998 168.119,74.4188 162.412,72.0972C156.705,69.8079 150.192,72.5809 147.903,78.2881C145.613,83.9952 148.386,90.4762 154.093,92.7655Z" style="fill:rgb(14,74,131);fill-rule:nonzero;"/>
            </g>
            <g id="bezier18">
                <path d="M111.37,198.848C105.663,196.558 99.1821,199.331 96.8928,205.006C94.5712,210.746 97.3442,217.227 103.051,219.516C108.758,221.838 115.272,219.065 117.561,213.358C119.85,207.65 117.077,201.137 111.37,198.848Z" style="fill:rgb(14,74,131);fill-rule:nonzero;"/>
            </g>
            <g id="bezier19">
                <path d="M191.948,181.662C197.655,183.951 204.136,181.21 206.425,175.503C208.747,169.796 205.974,163.315 200.267,160.994C194.559,158.704 188.078,161.477 185.757,167.152C183.467,172.891 186.24,179.373 191.948,181.662Z" style="fill:rgb(14,74,131);fill-rule:nonzero;"/>
            </g>
            <g id="bezier20">
                <path d="M79.6745,124.461C81.9961,118.754 79.2231,112.273 73.516,109.952C67.8088,107.694 61.3278,110.435 59.0385,116.142C56.7169,121.849 59.4899,128.363 65.1971,130.652C70.9042,132.941 77.3852,130.168 79.6745,124.461Z" style="fill:rgb(14,74,131);fill-rule:nonzero;"/>
            </g>
            <g id="bezier21">
                <path d="M199.944,129.298C205.619,126.88 208.231,120.334 205.845,114.691C203.426,109.016 196.881,106.372 191.206,108.791C185.563,111.209 182.919,117.755 185.338,123.429C187.756,129.072 194.301,131.716 199.944,129.298Z" style="fill:rgb(14,74,131);fill-rule:nonzero;"/>
            </g>
            <g id="bezier22">
                <path d="M74.2576,182.823C79.9002,180.437 82.5442,173.891 80.126,168.216C77.7077,162.573 71.1622,159.929 65.5195,162.348C59.8446,164.766 57.2328,171.312 59.6189,176.954C62.0372,182.629 68.5827,185.241 74.2576,182.823Z" style="fill:rgb(14,74,131);fill-rule:nonzero;"/>
            </g>
            <g id="bezier23">
                <path d="M155.125,198.429C149.482,200.815 146.838,207.36 149.257,213.035C151.643,218.71 158.221,221.322 163.863,218.936C169.538,216.517 172.15,209.972 169.732,204.297C167.346,198.654 160.8,196.01 155.125,198.429Z" style="fill:rgb(14,74,131);fill-rule:nonzero;"/>
            </g>
            <g id="bezier24">
                <path d="M110.338,93.217C115.981,90.7987 118.625,84.2532 116.207,78.6105C113.821,72.9356 107.243,70.3238 101.6,72.7099C95.9254,75.1282 93.3137,81.6737 95.6997,87.3486C98.118,92.9912 104.664,95.6352 110.338,93.217Z" style="fill:rgb(14,74,131);fill-rule:nonzero;"/>
            </g>
            <g id="bezier25">
                <path d="M236.025,118.657C237.669,116.239 239.604,113.918 241.732,111.757C260.853,92.6688 291.807,92.6688 310.895,111.757C330.016,130.878 330.016,161.832 310.895,180.952C291.807,200.041 260.853,200.041 241.732,180.952C238.411,177.599 235.638,173.891 233.478,169.925C230.124,177.922 225.481,185.176 219.774,191.496C220.935,192.947 222.128,194.398 223.385,195.752L223.385,195.785C223.643,196.075 223.933,196.333 224.191,196.591C224.965,197.429 225.739,198.203 226.577,198.977C227.448,199.847 228.383,200.686 229.318,201.492C229.963,202.072 230.64,202.653 231.317,203.201C232.51,204.136 233.768,205.071 235.025,205.941C235.67,206.393 236.283,206.844 236.96,207.296C238.314,208.199 239.733,209.037 241.184,209.843C241.764,210.165 242.312,210.488 242.893,210.778C244.473,211.616 246.085,212.39 247.762,213.132C248.213,213.325 248.665,213.519 249.116,213.68C250.922,214.454 252.759,215.099 254.63,215.711C254.952,215.808 255.307,215.905 255.629,216.002C257.628,216.614 259.66,217.162 261.756,217.581C261.949,217.614 262.175,217.678 262.368,217.71C264.593,218.13 266.818,218.484 269.075,218.742C269.172,218.742 269.268,218.742 269.397,218.742C271.751,218.968 274.105,219.129 276.523,219.129L276.555,219.129C294.548,219.129 310.992,212.519 323.664,201.621L323.664,218.774L347.685,218.774L347.685,200.395C360.518,212.003 377.479,219.129 396.18,219.129C425.393,219.129 450.479,201.75 461.925,176.825L434.099,176.825C425.2,188.014 411.528,195.204 396.18,195.204C374.19,195.204 355.65,180.566 349.684,160.51L467.342,160.51L467.342,159.543C468.116,155.351 468.568,151.095 468.568,146.709C468.568,106.727 436.13,74.2898 396.18,74.2898C371.32,74.2898 349.394,86.8327 336.368,105.889C323.309,86.8327 301.415,74.2898 276.555,74.2898C276.555,74.2898 276.555,74.2898 276.523,74.2898C274.331,74.2898 272.203,74.4188 270.074,74.6123C269.881,74.6123 269.655,74.6445 269.462,74.6445C267.366,74.8702 265.27,75.1604 263.239,75.5473C263.078,75.5796 262.884,75.6118 262.723,75.6441C260.595,76.031 258.531,76.5469 256.468,77.1273C244.279,80.6741 233.478,87.3163 224.804,96.1511C229.705,102.922 233.542,110.467 236.025,118.657ZM348.782,136.488C353.457,114.627 372.9,98.2147 396.18,98.2147C419.428,98.2147 438.839,114.627 443.546,136.488Z" style="fill:rgb(14,74,131);fill-rule:nonzero;"/>
            </g>
            <g id="bezier26">
                <path d="M318.44,47.7209C318.537,44.9157 318.924,41.2076 319.311,37.1772L319.021,37.1772C314.41,45.7863 308.283,48.7527 302.351,48.7527C293.999,48.7527 288.55,42.2394 288.55,32.8565C288.55,16.9603 299.674,0 321.407,0C326.501,0 331.95,0.935071 335.497,2.09585L330.725,26.44C329.371,33.4369 328.597,42.1427 328.79,47.7209ZM323.051,9.09276C321.89,8.80257 320.439,8.60911 318.44,8.60911C308.09,8.60911 300.126,20.2169 300.126,30.8574C300.126,35.7262 301.964,39.7567 306.865,39.7567C312.024,39.7567 318.343,33.2434 320.536,21.3454Z" style="fill:rgb(40,41,45);fill-rule:nonzero;"/>
            </g>
            <g id="bezier27">
                <path d="M330.435,66.6803L339.528,18.379C340.592,12.833 341.624,5.83614 342.204,1.0318L352.264,1.0318L351.2,8.70584L351.393,8.70584C355.424,3.1599 361.163,0 367.225,0C377.285,0 381.961,8.22218 381.961,17.3149C381.961,33.6303 370.675,48.7527 354.747,48.7527C350.458,48.7527 347.169,47.8176 345.461,46.7536L345.267,46.7536L341.527,66.6803ZM347.105,37.8543C348.814,39.273 351.297,40.1436 354.553,40.1436C363.195,40.1436 370.288,28.6325 370.288,18.1855C370.288,13.8971 368.354,9.09276 362.904,9.09276C357.262,9.09276 351.103,15.5093 349.104,26.44Z" style="fill:rgb(40,41,45);fill-rule:nonzero;"/>
            </g>
            <g id="bezier28">
                <path d="M423.878,47.7209L429.327,18.9594C430.584,12.3494 431.165,5.25575 431.713,1.0318L441.418,1.0318C441.128,4.1917 440.838,7.44833 440.354,10.8984L440.644,10.8984C443.804,4.57863 448.867,0 455.283,0C456.057,0 456.928,0.0967315 457.701,0.193463L450.608,11.2531C444.223,12.8975 440.128,20.1846 438.549,28.9227L434.969,47.7209Z" style="fill:rgb(40,41,45);fill-rule:nonzero;"/>
            </g>
            <g id="bezier29">
                <path d="M478.305,47.3662C476.919,48.1723 474.404,48.656 468.761,48.656C455.831,48.656 449.608,40.8207 449.608,29.4064C449.608,15.3158 459.958,0 476.048,0C485.238,0 491.106,5.35248 491.106,13.1232C491.106,25.0857 478.531,28.9227 460.539,28.5358C460.345,30.1802 460.732,33.3401 461.764,35.1458C463.602,38.3057 466.955,39.9501 471.341,39.9501C476.629,39.9501 481.755,38.5636 485.109,36.8547ZM474.597,8.31891C467.6,8.31891 463.022,14.542 461.667,20.2169C473.178,20.4104 480.562,18.7659 480.562,13.22C480.562,10.1568 478.144,8.31891 474.597,8.31891Z" style="fill:rgb(38,41,45);fill-rule:nonzero;"/>
            </g>
            <g id="bezier30">
                <path d="M412.238,47.3662C410.851,48.1723 408.368,48.656 402.726,48.656C389.764,48.656 383.541,40.8207 383.541,29.4064C383.541,15.3158 393.891,0 409.98,0C419.202,0 425.038,5.35248 425.038,13.1232C425.038,25.0857 412.495,28.9227 394.471,28.5358C394.278,30.1802 394.665,33.3401 395.696,35.1458C397.534,38.3057 400.888,39.9501 405.305,39.9501C410.561,39.9501 415.688,38.5636 419.041,36.8547ZM408.562,8.31891C401.565,8.31891 396.954,14.542 395.632,20.2169C407.111,20.4104 414.495,18.7659 414.495,13.22C414.495,10.1568 412.109,8.31891 408.562,8.31891Z" style="fill:rgb(40,41,45);fill-rule:nonzero;"/>
            </g>
            <g id="bezier31">
                <path d="M536.409,19.3463C536.409,35.1458 525.284,48.7527 509.388,48.7527C497.619,48.7527 490.332,40.6272 490.332,29.5031C490.332,13.7036 501.327,0 517.256,0C529.799,0 536.409,8.99603 536.409,19.3463ZM501.811,29.2129C501.811,35.6294 505.293,40.1436 510.936,40.1436C519.255,40.1436 524.833,28.6325 524.833,19.3463C524.833,14.542 522.705,8.60911 515.902,8.60911C507.002,8.60911 501.811,20.5071 501.811,29.2129Z" style="fill:rgb(38,41,45);fill-rule:nonzero;"/>
            </g>
            <g id="bezier32">
                <path d="M523.898,134.457C526.961,134.457 529.734,133.876 532.185,132.748C534.635,131.619 536.731,130.104 538.472,128.202C540.246,126.299 541.6,124.074 542.535,121.463C543.502,118.915 543.954,116.175 543.954,113.24C543.954,110.338 543.502,107.598 542.535,105.018C541.6,102.439 540.246,100.214 538.472,98.3115C536.731,96.4091 534.635,94.8936 532.185,93.7651C529.734,92.6366 526.961,92.0562 523.898,92.0562C520.867,92.0562 518.094,92.6366 515.644,93.7651C513.193,94.8936 511.097,96.4091 509.324,98.3115C507.583,100.214 506.228,102.439 505.261,105.018C504.326,107.598 503.842,110.338 503.842,113.24C503.842,116.175 504.326,118.915 505.261,121.463C506.228,124.074 507.583,126.299 509.324,128.202C511.097,130.104 513.193,131.619 515.644,132.748C518.094,133.876 520.867,134.457 523.898,134.457ZM523.898,141.196C519.835,141.196 516.127,140.486 512.709,139.068C509.292,137.617 506.39,135.682 503.971,133.167C501.521,130.652 499.618,127.718 498.264,124.3C496.878,120.882 496.168,117.206 496.168,113.24C496.168,109.307 496.878,105.599 498.264,102.213C499.618,98.7951 501.521,95.8609 503.971,93.3459C506.39,90.8309 509.292,88.864 512.709,87.4453C516.127,86.0266 519.835,85.3172 523.898,85.3172C527.961,85.3172 531.701,86.0266 535.087,87.4453C538.504,88.864 541.439,90.8309 543.857,93.3459C546.275,95.8609 548.178,98.7951 549.564,102.213C550.951,105.599 551.628,109.307 551.628,113.24C551.628,117.206 550.951,120.882 549.564,124.3C548.178,127.718 546.275,130.652 543.857,133.167C541.439,135.682 538.504,137.617 535.087,139.068C531.701,140.486 527.961,141.196 523.898,141.196Z" style="fill:rgb(14,74,131);fill-rule:nonzero;"/>
            </g>
            <g id="bezier33">
                <path d="M577.262,109.629C575.456,109.629 573.811,109.952 572.36,110.596C570.91,111.209 569.684,112.047 568.685,113.144C567.685,114.208 566.911,115.53 566.363,117.045C565.815,118.561 565.525,120.237 565.525,122.043C565.525,123.849 565.815,125.525 566.363,127.041C566.911,128.556 567.685,129.878 568.685,130.942C569.684,132.039 570.91,132.877 572.36,133.49C573.811,134.134 575.456,134.457 577.262,134.457C579.067,134.457 580.679,134.134 582.13,133.49C583.581,132.877 584.807,132.039 585.806,130.942C586.806,129.878 587.612,128.556 588.16,127.041C588.708,125.525 588.966,123.849 588.966,122.043C588.966,120.237 588.708,118.561 588.16,117.045C587.612,115.53 586.806,114.208 585.806,113.144C584.807,112.047 583.581,111.209 582.13,110.596C580.679,109.952 579.067,109.629 577.262,109.629ZM558.754,104.244L565.525,104.244L565.525,109.339L565.686,109.339C566.976,107.436 568.781,105.953 571.038,104.921C573.328,103.857 575.682,103.342 578.068,103.342C580.841,103.342 583.323,103.793 585.548,104.76C587.773,105.728 589.675,107.05 591.255,108.758C592.835,110.435 594.061,112.434 594.899,114.724C595.77,117.013 596.189,119.431 596.189,122.043C596.189,124.687 595.77,127.17 594.899,129.427C594.061,131.716 592.835,133.715 591.255,135.392C589.675,137.069 587.773,138.358 585.548,139.326C583.323,140.261 580.841,140.744 578.068,140.744C575.52,140.744 573.134,140.228 570.877,139.132C568.62,138.068 566.879,136.585 565.686,134.747L565.525,134.747L565.525,161.026L558.754,161.026Z" style="fill:rgb(14,74,131);fill-rule:nonzero;"/>
            </g>
            <g id="bezier34">
                <path d="M629.626,119.109C629.561,117.626 629.335,116.239 628.916,114.982C628.497,113.724 627.852,112.628 626.982,111.725C626.143,110.79 625.079,110.048 623.789,109.532C622.532,109.016 621.016,108.758 619.34,108.758C617.663,108.758 616.148,109.049 614.793,109.694C613.407,110.306 612.246,111.112 611.279,112.112C610.344,113.111 609.602,114.24 609.086,115.465C608.538,116.69 608.28,117.916 608.28,119.109ZM608.28,124.526C608.28,126.073 608.603,127.492 609.312,128.782C609.989,130.039 610.86,131.136 611.956,132.039C613.052,132.941 614.342,133.651 615.793,134.134C617.244,134.65 618.759,134.876 620.307,134.876C622.403,134.876 624.241,134.392 625.789,133.425C627.336,132.458 628.755,131.168 630.077,129.556L635.171,133.457C631.431,138.326 626.175,140.744 619.404,140.744C616.599,140.744 614.052,140.261 611.762,139.326C609.505,138.358 607.571,137.069 605.991,135.392C604.411,133.715 603.186,131.716 602.347,129.427C601.509,127.17 601.057,124.687 601.057,122.043C601.057,119.399 601.541,116.916 602.444,114.627C603.379,112.37 604.669,110.371 606.281,108.694C607.925,107.017 609.86,105.728 612.117,104.76C614.374,103.825 616.825,103.342 619.469,103.342C622.629,103.342 625.305,103.89 627.465,104.986C629.658,106.082 631.463,107.533 632.85,109.307C634.269,111.08 635.268,113.079 635.881,115.304C636.526,117.561 636.848,119.818 636.848,122.107L636.848,124.526Z" style="fill:rgb(14,74,131);fill-rule:nonzero;"/>
            </g>
            <g id="bezier35">
                <path d="M643.458,104.244L650.197,104.244L650.197,109.726L650.358,109.726C651.197,107.823 652.68,106.276 654.808,105.115C656.904,103.922 659.322,103.342 662.095,103.342C663.772,103.342 665.416,103.599 666.996,104.115C668.576,104.631 669.963,105.47 671.123,106.566C672.316,107.662 673.251,109.081 673.961,110.822C674.638,112.531 674.993,114.595 674.993,116.948L674.993,139.842L668.254,139.842L668.254,118.819C668.254,117.174 668.028,115.755 667.577,114.562C667.125,113.402 666.513,112.434 665.771,111.725C664.997,110.983 664.159,110.467 663.159,110.145C662.192,109.823 661.192,109.629 660.128,109.629C658.709,109.629 657.42,109.855 656.227,110.338C655.001,110.758 653.97,111.499 653.067,112.467C652.164,113.434 651.455,114.691 650.971,116.175C650.455,117.69 650.197,119.463 650.197,121.527L650.197,139.842L643.458,139.842Z" style="fill:rgb(14,74,131);fill-rule:nonzero;"/>
            </g>
            <g id="bezier36">
                <path d="M735.933,120.399L726.035,95.9577L725.873,95.9577L715.813,120.399ZM723.004,86.6392L729.549,86.6392L752.313,139.842L743.898,139.842L738.577,126.686L713.234,126.686L707.978,139.842L699.562,139.842Z" style="fill:rgb(14,74,131);fill-rule:nonzero;"/>
            </g>
            <g id="bezier37">
                <path d="M779.979,113.692C778.721,112.402 777.399,111.402 776.013,110.725C774.658,110.048 773.014,109.726 771.112,109.726C769.241,109.726 767.629,110.048 766.243,110.725C764.888,111.402 763.728,112.338 762.793,113.531C761.858,114.691 761.18,116.046 760.697,117.561C760.213,119.109 759.987,120.689 759.987,122.333C759.987,124.01 760.245,125.558 760.794,127.041C761.374,128.524 762.148,129.814 763.147,130.91C764.147,132.006 765.34,132.877 766.726,133.49C768.145,134.134 769.725,134.457 771.466,134.457C773.369,134.457 775.013,134.102 776.367,133.425C777.722,132.748 778.979,131.748 780.108,130.459L784.912,135.263C783.171,137.23 781.139,138.616 778.818,139.487C776.464,140.325 774.013,140.744 771.402,140.744C768.661,140.744 766.146,140.293 763.857,139.39C761.567,138.487 759.6,137.23 757.956,135.618C756.312,133.973 755.022,132.039 754.119,129.749C753.216,127.46 752.765,124.945 752.765,122.204C752.765,119.431 753.216,116.916 754.119,114.595C755.022,112.305 756.279,110.306 757.924,108.662C759.536,107.017 761.503,105.728 763.792,104.792C766.049,103.857 768.597,103.406 771.402,103.406C774.013,103.406 776.496,103.857 778.882,104.792C781.268,105.728 783.332,107.146 785.073,109.049Z" style="fill:rgb(14,74,131);fill-rule:nonzero;"/>
            </g>
            <g id="bezier38">
                <path d="M808.45,122.72C806.838,122.72 805.193,122.817 803.517,122.978C801.84,123.171 800.324,123.494 798.938,124.01C797.551,124.493 796.423,125.203 795.552,126.106C794.682,127.009 794.23,128.169 794.23,129.556C794.23,131.619 794.94,133.103 796.326,134.005C797.68,134.876 799.551,135.327 801.904,135.327C803.775,135.327 805.322,135.037 806.644,134.392C807.934,133.78 808.998,132.974 809.804,131.974C810.61,130.974 811.158,129.846 811.513,128.621C811.868,127.395 812.061,126.17 812.061,124.977L812.061,122.72ZM789.362,108.597C791.264,106.856 793.457,105.534 795.972,104.664C798.487,103.761 800.969,103.342 803.484,103.342C806.096,103.342 808.321,103.664 810.223,104.309C812.093,104.954 813.641,105.824 814.834,106.953C816.027,108.049 816.93,109.307 817.51,110.725C818.059,112.176 818.349,113.66 818.349,115.207L818.349,133.393C818.349,134.65 818.381,135.779 818.445,136.843C818.478,137.907 818.574,138.906 818.671,139.842L812.642,139.842C812.513,138.036 812.416,136.23 812.416,134.457L812.287,134.457C810.771,136.746 808.998,138.358 806.934,139.326C804.871,140.261 802.517,140.744 799.809,140.744C798.164,140.744 796.584,140.519 795.069,140.067C793.553,139.616 792.263,138.939 791.135,138.036C790.006,137.133 789.104,136.037 788.459,134.715C787.814,133.361 787.491,131.845 787.491,130.072C787.491,127.782 788.007,125.848 789.007,124.3C790.039,122.752 791.457,121.463 793.231,120.495C795.004,119.528 797.1,118.819 799.454,118.399C801.84,117.98 804.387,117.755 807.096,117.755L812.061,117.755L812.061,116.271C812.061,115.368 811.868,114.466 811.513,113.563C811.158,112.66 810.642,111.822 809.933,111.112C809.256,110.371 808.353,109.823 807.321,109.371C806.257,108.952 805,108.758 803.549,108.758C802.259,108.758 801.131,108.855 800.131,109.113C799.164,109.371 798.261,109.694 797.487,110.048C796.681,110.435 795.939,110.887 795.294,111.37C794.65,111.886 794.005,112.338 793.424,112.789Z" style="fill:rgb(14,74,131);fill-rule:nonzero;"/>
            </g>
            <g id="bezier39">
                <path d="M843.918,134.457C845.724,134.457 847.336,134.134 848.787,133.49C850.238,132.877 851.463,132.039 852.463,130.942C853.462,129.878 854.236,128.556 854.817,127.041C855.365,125.525 855.623,123.849 855.623,122.043C855.623,120.237 855.365,118.561 854.817,117.045C854.236,115.53 853.462,114.208 852.463,113.144C851.463,112.047 850.238,111.209 848.787,110.596C847.336,109.952 845.724,109.629 843.918,109.629C842.112,109.629 840.468,109.952 839.017,110.596C837.566,111.209 836.341,112.047 835.341,113.144C834.342,114.208 833.568,115.53 833.02,117.045C832.472,118.561 832.181,120.237 832.181,122.043C832.181,123.849 832.472,125.525 833.02,127.041C833.568,128.556 834.342,129.878 835.341,130.942C836.341,132.039 837.566,132.877 839.017,133.49C840.468,134.134 842.112,134.457 843.918,134.457ZM862.394,139.842L855.623,139.842L855.623,134.747L855.461,134.747C854.172,136.649 852.398,138.133 850.109,139.164C847.82,140.228 845.498,140.744 843.08,140.744C840.339,140.744 837.824,140.261 835.599,139.326C833.374,138.358 831.472,137.036 829.892,135.327C828.312,133.651 827.087,131.652 826.249,129.395C825.41,127.137 824.959,124.687 824.959,122.043C824.959,119.399 825.41,116.916 826.249,114.659C827.087,112.37 828.312,110.371 829.892,108.694C831.472,107.017 833.374,105.728 835.599,104.76C837.824,103.793 840.339,103.342 843.08,103.342C845.627,103.342 848.045,103.857 850.302,104.954C852.559,106.018 854.268,107.501 855.461,109.339L855.623,109.339L855.623,83.0601L862.394,83.0601Z" style="fill:rgb(14,74,131);fill-rule:nonzero;"/>
            </g>
            <g id="bezier40">
                <path d="M897.54,119.109C897.507,117.626 897.249,116.239 896.83,114.982C896.411,113.724 895.766,112.628 894.928,111.725C894.057,110.79 892.993,110.048 891.736,109.532C890.446,109.016 888.963,108.758 887.254,108.758C885.609,108.758 884.094,109.049 882.707,109.694C881.321,110.306 880.16,111.112 879.225,112.112C878.258,113.111 877.516,114.24 877,115.465C876.484,116.69 876.226,117.916 876.226,119.109ZM876.226,124.526C876.226,126.073 876.549,127.492 877.226,128.782C877.903,130.039 878.806,131.136 879.902,132.039C880.999,132.941 882.288,133.651 883.739,134.134C885.19,134.65 886.673,134.876 888.221,134.876C890.349,134.876 892.155,134.392 893.735,133.425C895.283,132.458 896.701,131.168 897.991,129.556L903.118,133.457C899.345,138.326 894.09,140.744 887.351,140.744C884.513,140.744 881.998,140.261 879.709,139.326C877.419,138.358 875.485,137.069 873.937,135.392C872.357,133.715 871.132,131.716 870.294,129.427C869.423,127.17 869.004,124.687 869.004,122.043C869.004,119.399 869.455,116.916 870.39,114.627C871.325,112.37 872.583,110.371 874.227,108.694C875.84,107.017 877.806,105.728 880.031,104.76C882.288,103.825 884.771,103.342 887.415,103.342C890.575,103.342 893.219,103.89 895.412,104.986C897.604,106.082 899.378,107.533 900.796,109.307C902.183,111.08 903.215,113.079 903.827,115.304C904.44,117.561 904.762,119.818 904.762,122.107L904.762,124.526Z" style="fill:rgb(14,74,131);fill-rule:nonzero;"/>
            </g>
            <g id="bezier41">
                <path d="M911.372,104.244L917.692,104.244L917.692,109.79L917.853,109.79C917.982,109.307 918.369,108.662 919.014,107.92C919.627,107.179 920.433,106.469 921.4,105.792C922.4,105.115 923.528,104.535 924.85,104.051C926.204,103.567 927.655,103.342 929.268,103.342C931.912,103.342 934.136,103.89 935.942,104.986C937.748,106.082 939.231,107.759 940.392,109.952C941.52,107.759 943.165,106.082 945.261,104.986C947.356,103.89 949.484,103.342 951.645,103.342C954.418,103.342 956.675,103.793 958.416,104.696C960.157,105.599 961.544,106.792 962.543,108.243C963.543,109.726 964.22,111.402 964.607,113.305C964.994,115.175 965.187,117.11 965.187,119.109L965.187,139.842L958.416,139.842L958.416,120.012C958.416,118.657 958.319,117.368 958.158,116.11C957.965,114.853 957.61,113.756 957.062,112.789C956.514,111.854 955.74,111.08 954.74,110.5C953.741,109.919 952.386,109.629 950.742,109.629C947.485,109.629 945.164,110.661 943.777,112.66C942.359,114.659 941.649,117.239 941.649,120.399L941.649,139.842L934.91,139.842L934.91,121.205C934.91,119.528 934.814,117.948 934.62,116.561C934.459,115.143 934.104,113.95 933.588,112.918C933.04,111.886 932.299,111.08 931.331,110.5C930.364,109.919 929.042,109.629 927.397,109.629C926.172,109.629 925.011,109.887 923.883,110.371C922.754,110.822 921.787,111.564 920.916,112.499C920.078,113.466 919.401,114.659 918.885,116.142C918.401,117.626 918.143,119.367 918.143,121.366L918.143,139.842L911.372,139.842Z" style="fill:rgb(14,74,131);fill-rule:nonzero;"/>
            </g>
            <g id="bezier42">
                <path d="M975.924,104.244L982.696,104.244L982.696,139.842L975.924,139.842ZM974.344,91.4758C974.344,90.1215 974.828,88.9285 975.795,87.9612C976.795,86.9939 977.956,86.5102 979.31,86.5102C980.664,86.5102 981.825,86.9939 982.792,87.9612C983.76,88.9285 984.276,90.1215 984.276,91.4758C984.276,92.83 983.76,93.9908 982.792,94.9581C981.825,95.9254 980.664,96.4091 979.31,96.4091C977.956,96.4091 976.795,95.9254 975.795,94.9581C974.828,93.9908 974.344,92.83 974.344,91.4758Z" style="fill:rgb(14,74,131);fill-rule:nonzero;"/>
            </g>
            <g id="bezier43">
                <path d="M1018.91,113.692C1017.65,112.402 1016.33,111.402 1014.94,110.725C1013.59,110.048 1011.94,109.726 1010.04,109.726C1008.17,109.726 1006.56,110.048 1005.17,110.725C1003.82,111.402 1002.65,112.338 1001.72,113.531C1000.82,114.691 1000.11,116.046 999.624,117.561C999.14,119.109 998.914,120.689 998.914,122.333C998.914,124.01 999.172,125.558 999.753,127.041C1000.3,128.524 1001.07,129.814 1002.07,130.91C1003.07,132.006 1004.27,132.877 1005.69,133.49C1007.07,134.134 1008.65,134.457 1010.39,134.457C1012.3,134.457 1013.94,134.102 1015.29,133.425C1016.65,132.748 1017.91,131.748 1019.03,130.459L1023.87,135.263C1022.1,137.23 1020.07,138.616 1017.74,139.487C1015.39,140.325 1012.94,140.744 1010.33,140.744C1007.59,140.744 1005.07,140.293 1002.78,139.39C1000.49,138.487 998.527,137.23 996.883,135.618C995.238,133.973 993.949,132.039 993.046,129.749C992.143,127.46 991.692,124.945 991.692,122.204C991.692,119.431 992.143,116.916 993.046,114.595C993.949,112.305 995.206,110.306 996.851,108.662C998.463,107.017 1000.43,105.728 1002.72,104.792C1004.98,103.857 1007.52,103.406 1010.33,103.406C1012.94,103.406 1015.42,103.857 1017.81,104.792C1020.2,105.728 1022.26,107.146 1024,109.049Z" style="fill:rgb(14,74,131);fill-rule:nonzero;"/>
            </g>
            <g id="bezier44">
                <path d="M499.489,165.798L533.829,165.798L533.829,172.569L506.712,172.569L506.712,188.401L531.959,188.401L531.959,195.172L506.712,195.172L506.712,212.229L535.183,212.229L535.183,219L499.489,219Z" style="fill:rgb(14,74,131);fill-rule:nonzero;"/>
            </g>
            <g id="bezier45">
                <path d="M543.663,183.371L550.435,183.371L550.435,188.852L550.564,188.852C551.434,186.95 552.917,185.402 555.013,184.241C557.109,183.048 559.56,182.468 562.3,182.468C564.009,182.468 565.654,182.726 567.234,183.274C568.814,183.79 570.168,184.596 571.361,185.692C572.522,186.821 573.457,188.207 574.166,189.948C574.875,191.69 575.23,193.721 575.23,196.075L575.23,219L568.459,219L568.459,197.945C568.459,196.301 568.233,194.882 567.782,193.721C567.33,192.528 566.718,191.561 565.976,190.851C565.235,190.11 564.364,189.594 563.397,189.271C562.429,188.949 561.398,188.788 560.334,188.788C558.947,188.788 557.657,189.013 556.432,189.465C555.239,189.916 554.175,190.626 553.272,191.593C552.369,192.592 551.692,193.818 551.176,195.333C550.693,196.816 550.435,198.59 550.435,200.653L550.435,219L543.663,219Z" style="fill:rgb(14,74,131);fill-rule:nonzero;"/>
            </g>
            <g id="bezier46">
                <path d="M578.164,183.371L585.967,183.371L596.64,210.649L606.861,183.371L614.084,183.371L600.09,219L592.642,219Z" style="fill:rgb(14,74,131);fill-rule:nonzero;"/>
            </g>
            <g id="bezier47">
                <path d="M620.533,183.371L627.304,183.371L627.304,219L620.533,219ZM618.953,170.602C618.953,169.248 619.436,168.087 620.404,167.12C621.403,166.12 622.564,165.637 623.918,165.637C625.273,165.637 626.433,166.12 627.401,167.12C628.368,168.087 628.884,169.248 628.884,170.602C628.884,171.956 628.368,173.117 627.401,174.085C626.433,175.084 625.273,175.568 623.918,175.568C622.564,175.568 621.403,175.084 620.404,174.085C619.436,173.117 618.953,171.956 618.953,170.602Z" style="fill:rgb(14,74,131);fill-rule:nonzero;"/>
            </g>
            <g id="bezier48">
                <path d="M641.04,183.371L647.811,183.371L647.811,188.852L647.94,188.852C648.391,187.917 649.004,187.047 649.746,186.273C650.52,185.499 651.358,184.822 652.261,184.274C653.196,183.725 654.228,183.274 655.324,182.952C656.42,182.629 657.516,182.468 658.613,182.468C659.709,182.468 660.741,182.629 661.644,182.919L661.321,190.206C660.773,190.077 660.225,189.948 659.677,189.852C659.129,189.723 658.581,189.691 658.032,189.691C654.711,189.691 652.196,190.626 650.423,192.464C648.682,194.334 647.811,197.203 647.811,201.105L647.811,219L641.04,219Z" style="fill:rgb(14,74,131);fill-rule:nonzero;"/>
            </g>
            <g id="bezier49">
                <path d="M675.541,201.169C675.541,202.975 675.799,204.652 676.347,206.167C676.895,207.715 677.669,209.005 678.668,210.069C679.668,211.165 680.925,212.003 682.376,212.648C683.827,213.261 685.44,213.583 687.245,213.583C689.051,213.583 690.663,213.261 692.146,212.648C693.597,212.003 694.823,211.165 695.822,210.069C696.822,209.005 697.596,207.715 698.144,206.167C698.692,204.652 698.982,202.975 698.982,201.169C698.982,199.364 698.692,197.719 698.144,196.172C697.596,194.656 696.822,193.366 695.822,192.27C694.823,191.206 693.597,190.335 692.146,189.723C690.663,189.11 689.051,188.788 687.245,188.788C685.44,188.788 683.827,189.11 682.376,189.723C680.925,190.335 679.668,191.206 678.668,192.27C677.669,193.366 676.895,194.656 676.347,196.172C675.799,197.719 675.541,199.364 675.541,201.169ZM668.318,201.169C668.318,198.59 668.802,196.139 669.769,193.882C670.769,191.625 672.091,189.658 673.8,187.949C675.509,186.273 677.508,184.918 679.797,183.951C682.119,182.952 684.601,182.468 687.245,182.468C689.922,182.468 692.372,182.952 694.694,183.951C696.983,184.918 698.982,186.273 700.691,187.949C702.4,189.658 703.754,191.625 704.721,193.882C705.689,196.139 706.172,198.59 706.172,201.169C706.172,203.781 705.689,206.232 704.721,208.521C703.754,210.778 702.4,212.777 700.691,214.454C698.982,216.13 696.983,217.452 694.694,218.42C692.372,219.387 689.922,219.903 687.245,219.903C684.601,219.903 682.119,219.387 679.797,218.42C677.508,217.452 675.509,216.13 673.8,214.454C672.091,212.777 670.769,210.778 669.769,208.521C668.802,206.232 668.318,203.781 668.318,201.169Z" style="fill:rgb(14,74,131);fill-rule:nonzero;"/>
            </g>
            <g id="bezier50">
                <path d="M713.169,183.371L719.941,183.371L719.941,188.852L720.07,188.852C720.94,186.95 722.423,185.402 724.519,184.241C726.615,183.048 729.066,182.468 731.806,182.468C733.515,182.468 735.16,182.726 736.74,183.274C738.32,183.79 739.674,184.596 740.867,185.692C742.028,186.821 742.963,188.207 743.672,189.948C744.381,191.69 744.736,193.721 744.736,196.075L744.736,219L737.965,219L737.965,197.945C737.965,196.301 737.739,194.882 737.288,193.721C736.836,192.528 736.224,191.561 735.482,190.851C734.74,190.11 733.87,189.594 732.903,189.271C731.903,188.949 730.903,188.788 729.839,188.788C728.453,188.788 727.131,189.013 725.938,189.465C724.745,189.916 723.681,190.626 722.778,191.593C721.875,192.592 721.198,193.818 720.682,195.333C720.199,196.816 719.941,198.59 719.941,200.653L719.941,219L713.169,219Z" style="fill:rgb(14,74,131);fill-rule:nonzero;"/>
            </g>
            <g id="bezier51">
                <path d="M754.957,183.371L761.245,183.371L761.245,188.949L761.406,188.949C761.567,188.433 761.954,187.82 762.567,187.047C763.212,186.305 763.986,185.596 764.985,184.918C765.953,184.241 767.113,183.661 768.435,183.177C769.757,182.726 771.241,182.468 772.82,182.468C775.497,182.468 777.722,183.016 779.527,184.112C781.333,185.241 782.784,186.885 783.945,189.078C785.105,186.885 786.718,185.241 788.846,184.112C790.941,183.016 793.07,182.468 795.23,182.468C797.971,182.468 800.228,182.919 801.969,183.822C803.742,184.725 805.129,185.918 806.128,187.401C807.128,188.884 807.805,190.561 808.192,192.431C808.547,194.301 808.74,196.236 808.74,198.267L808.74,219L801.969,219L801.969,199.17C801.969,197.816 801.904,196.494 801.711,195.236C801.55,194.011 801.195,192.883 800.615,191.948C800.067,190.98 799.293,190.239 798.293,189.658C797.294,189.078 795.972,188.788 794.327,188.788C791.07,188.788 788.717,189.787 787.33,191.786C785.944,193.786 785.234,196.365 785.234,199.525L785.234,219L778.463,219L778.463,200.363C778.463,198.654 778.366,197.107 778.205,195.688C778.012,194.301 777.689,193.076 777.141,192.044C776.625,191.013 775.884,190.239 774.884,189.658C773.917,189.078 772.595,188.788 770.95,188.788C769.757,188.788 768.597,189.013 767.468,189.497C766.339,189.981 765.34,190.69 764.502,191.625C763.631,192.592 762.954,193.818 762.47,195.269C761.954,196.752 761.696,198.493 761.696,200.492L761.696,219L754.957,219Z" style="fill:rgb(14,74,131);fill-rule:nonzero;"/>
            </g>
            <g id="bezier52">
                <path d="M845.401,198.267C845.369,196.752 845.111,195.365 844.692,194.108C844.273,192.85 843.628,191.786 842.79,190.851C841.919,189.916 840.855,189.207 839.597,188.659C838.308,188.143 836.824,187.885 835.116,187.885C833.471,187.885 831.956,188.207 830.569,188.82C829.183,189.465 828.022,190.271 827.087,191.27C826.12,192.27 825.378,193.399 824.862,194.624C824.346,195.849 824.056,197.042 824.056,198.267ZM824.056,203.652C824.056,205.232 824.411,206.619 825.088,207.908C825.765,209.198 826.635,210.262 827.764,211.165C828.86,212.068 830.118,212.777 831.569,213.293C833.052,213.777 834.535,214.035 836.083,214.035C838.211,214.035 840.017,213.551 841.564,212.551C843.144,211.584 844.563,210.294 845.853,208.682L850.98,212.616C847.207,217.452 841.951,219.903 835.18,219.903C832.375,219.903 829.86,219.419 827.571,218.452C825.281,217.517 823.347,216.195 821.767,214.518C820.187,212.842 818.994,210.875 818.123,208.585C817.285,206.296 816.866,203.846 816.866,201.169C816.866,198.525 817.317,196.075 818.252,193.786C819.187,191.496 820.445,189.529 822.089,187.853C823.701,186.176 825.636,184.854 827.893,183.887C830.15,182.952 832.601,182.468 835.277,182.468C838.437,182.468 841.081,183.016 843.273,184.112C845.434,185.241 847.239,186.66 848.626,188.433C850.044,190.239 851.044,192.238 851.689,194.463C852.302,196.687 852.624,198.945 852.624,201.266L852.624,203.652Z" style="fill:rgb(14,74,131);fill-rule:nonzero;"/>
            </g>
            <g id="bezier53">
                <path d="M860.749,183.371L867.488,183.371L867.488,188.852L867.65,188.852C868.488,186.95 869.971,185.402 872.099,184.241C874.195,183.048 876.613,182.468 879.386,182.468C881.063,182.468 882.707,182.726 884.287,183.274C885.867,183.79 887.254,184.596 888.415,185.692C889.608,186.821 890.543,188.207 891.252,189.948C891.929,191.69 892.284,193.721 892.284,196.075L892.284,219L885.545,219L885.545,197.945C885.545,196.301 885.319,194.882 884.868,193.721C884.416,192.528 883.804,191.561 883.062,190.851C882.288,190.11 881.45,189.594 880.45,189.271C879.483,188.949 878.484,188.788 877.419,188.788C876.001,188.788 874.711,189.013 873.518,189.465C872.293,189.916 871.261,190.626 870.358,191.593C869.455,192.592 868.746,193.818 868.262,195.333C867.746,196.816 867.488,198.59 867.488,200.653L867.488,219L860.749,219Z" style="fill:rgb(14,74,131);fill-rule:nonzero;"/>
            </g>
            <g id="bezier54">
                <path d="M920.078,189.239L910.405,189.239L910.405,205.393C910.405,206.393 910.437,207.392 910.469,208.36C910.534,209.327 910.727,210.198 911.05,210.971C911.372,211.778 911.856,212.39 912.533,212.874C913.21,213.358 914.21,213.583 915.499,213.583C916.306,213.583 917.144,213.519 917.982,213.358C918.853,213.196 919.627,212.938 920.304,212.519L920.304,218.678C919.53,219.129 918.466,219.452 917.208,219.645C915.919,219.806 914.919,219.903 914.242,219.903C911.63,219.903 909.599,219.516 908.18,218.807C906.761,218.065 905.697,217.13 905.02,215.969C904.343,214.841 903.956,213.551 903.827,212.1C903.698,210.681 903.634,209.263 903.634,207.779L903.634,189.239L895.831,189.239L895.831,183.371L903.634,183.371L903.634,173.375L910.405,173.375L910.405,183.371L920.078,183.371Z" style="fill:rgb(14,74,131);fill-rule:nonzero;"/>
            </g>
        </g>
    </g>
</svg>
